<?xml version="1.0" encoding="UTF-8"?>
<svg id="Layer_1" data-name="Layer 1" xmlns="http://www.w3.org/2000/svg" viewBox="0 0 166 29.32">
  <path d="m38.4,24.37c0,.56.31.76.77.76.23,0,.43-.04.67-.16v.58c-.24.12-.5.19-.83.19-.74,0-1.3-.36-1.3-1.29v-2.75h-.64v-.6h.64v-1.38h.69v1.38h1.46v.6h-1.46v2.66Z" fill="#002f87"/>
  <path d="m41.95,25.67h-.69v-4.56h.69v1.19c.34-.76,1.01-1.31,1.88-1.27v.73h-.05c-1.01,0-1.83.71-1.83,2.09v1.82Z" fill="#002f87"/>
  <path d="m45.11,21.98l-.21-.56c.51-.23,1.01-.38,1.68-.38,1.26,0,1.96.64,1.96,1.83v2.79h-.66v-.69c-.32.41-.86.79-1.67.79-.86,0-1.72-.48-1.72-1.43s.8-1.48,1.97-1.48c.59,0,1.01.08,1.42.19v-.16c0-.82-.51-1.24-1.37-1.24-.54,0-.97.14-1.4.33m.08,2.33c0,.58.53.92,1.16.92.85,0,1.54-.51,1.54-1.24v-.44c-.34-.1-.79-.19-1.35-.19-.86,0-1.35.37-1.35.95" fill="#002f87"/>
  <polygon points="53.34 21.11 54.08 21.11 52.08 25.71 51.47 25.71 49.48 21.11 50.24 21.11 51.79 24.89 53.34 21.11" fill="#002f87"/>
  <path d="m57.21,25.19c.63,0,1.08-.26,1.45-.64l.43.38c-.46.51-1.03.86-1.9.86-1.26,0-2.3-.96-2.3-2.38,0-1.32.94-2.38,2.21-2.38,1.36,0,2.15,1.08,2.15,2.42,0,.06,0,.13,0,.21h-3.65c.1.99.81,1.54,1.62,1.54m1.35-2.05c-.07-.83-.55-1.55-1.47-1.55-.8,0-1.41.66-1.5,1.55h2.97Z" fill="#002f87"/>
  <rect x="60.89" y="19.23" width=".69" height="6.44" fill="#002f87"/>
  <path d="m66.25,19.36h.78v.75h-.78v-.75Zm.04,1.75h.69v4.56h-.69v-4.56Z" fill="#002f87"/>
  <path d="m69.46,25.67h-.69v-4.56h.69v.79c.3-.49.78-.89,1.58-.89,1.11,0,1.76.74,1.76,1.83v2.83h-.69v-2.66c0-.85-.46-1.38-1.27-1.38s-1.38.57-1.38,1.43v2.61Z" fill="#002f87"/>
  <path d="m75.98,25.76c-.66,0-1.39-.26-1.91-.67l.35-.48c.5.37,1.05.58,1.59.58s.95-.28.95-.72v-.02c0-.46-.54-.64-1.15-.8-.72-.2-1.52-.45-1.52-1.29v-.02c0-.79.66-1.31,1.57-1.31.56,0,1.18.19,1.66.5l-.31.51c-.43-.27-.92-.44-1.36-.44-.54,0-.89.28-.89.66v.02c0,.43.57.6,1.18.78.71.21,1.48.49,1.48,1.31v.02c0,.86-.72,1.37-1.64,1.37" fill="#002f87"/>
  <path d="m82.18,21.11h.68v4.56h-.68v-.79c-.31.49-.78.89-1.58.89-1.11,0-1.76-.74-1.76-1.83v-2.83h.69v2.66c0,.85.46,1.38,1.27,1.38s1.38-.57,1.38-1.43v-2.61Z" fill="#002f87"/>
  <path d="m85.28,25.67h-.69v-4.56h.69v1.19c.34-.76,1.01-1.31,1.88-1.27v.73h-.05c-1.01,0-1.83.71-1.83,2.09v1.82Z" fill="#002f87"/>
  <path d="m88.35,21.98l-.21-.56c.51-.23,1.01-.38,1.67-.38,1.26,0,1.96.64,1.96,1.83v2.79h-.66v-.69c-.32.41-.85.79-1.67.79-.85,0-1.72-.48-1.72-1.43s.8-1.48,1.97-1.48c.59,0,1.01.08,1.42.19v-.16c0-.82-.51-1.24-1.37-1.24-.54,0-.97.14-1.4.33m.08,2.33c0,.58.53.92,1.16.92.85,0,1.54-.51,1.54-1.24v-.44c-.34-.1-.79-.19-1.35-.19-.86,0-1.35.37-1.35.95" fill="#002f87"/>
  <path d="m94.03,25.67h-.69v-4.56h.69v.79c.3-.49.78-.89,1.58-.89,1.11,0,1.76.74,1.76,1.83v2.83h-.69v-2.66c0-.85-.46-1.38-1.27-1.38s-1.38.57-1.38,1.43v2.61Z" fill="#002f87"/>
  <path d="m101.02,25.78c-1.35,0-2.36-1.09-2.36-2.37s1.02-2.39,2.36-2.39c.87,0,1.42.36,1.84.81l-.46.48c-.36-.38-.77-.69-1.4-.69-.94,0-1.65.79-1.65,1.77s.73,1.78,1.69,1.78c.59,0,1.04-.29,1.41-.68l.44.41c-.46.51-1.02.88-1.88.88" fill="#002f87"/>
  <path d="m106.05,25.19c.63,0,1.08-.26,1.45-.64l.43.38c-.46.51-1.03.86-1.9.86-1.27,0-2.3-.96-2.3-2.38,0-1.32.94-2.38,2.21-2.38,1.36,0,2.15,1.08,2.15,2.42,0,.06,0,.13,0,.21h-3.65c.1.99.81,1.54,1.62,1.54m1.35-2.05c-.07-.83-.55-1.55-1.47-1.55-.8,0-1.41.66-1.5,1.55h2.97Z" fill="#002f87"/>
  <path d="m42.1,16.69c-1.96,0-3.95-.68-5.51-2.06l1.69-2c1.17.95,2.39,1.56,3.87,1.56,1.17,0,1.87-.46,1.87-1.21v-.04c0-.72-.45-1.08-2.61-1.63-2.61-.66-4.3-1.38-4.3-3.93v-.04c0-2.33,1.89-3.87,4.54-3.87,1.89,0,3.5.59,4.82,1.63l-1.48,2.13c-1.15-.79-2.28-1.27-3.37-1.27s-1.67.5-1.67,1.12v.04c0,.84.56,1.12,2.8,1.69,2.63.68,4.12,1.62,4.12,3.85v.04c0,2.55-1.96,3.98-4.76,3.98" fill="#002f87"/>
  <polygon points="48.61 16.5 48.61 3.65 58.4 3.65 58.4 6.17 51.45 6.17 51.45 8.77 57.57 8.77 57.57 11.29 51.45 11.29 51.45 13.99 58.5 13.99 58.5 16.5 48.61 16.5" fill="#002f87"/>
  <path d="m66.38,16.72c-3.82,0-6.66-2.92-6.66-6.61v-.04c0-3.65,2.78-6.64,6.77-6.64,2.45,0,3.91.81,5.12,1.98l-1.82,2.07c-1-.9-2.02-1.45-3.32-1.45-2.19,0-3.76,1.8-3.76,4v.04c0,2.2,1.54,4.04,3.76,4.04,1.48,0,2.39-.59,3.41-1.51l1.82,1.82c-1.34,1.41-2.82,2.29-5.32,2.29" fill="#002f87"/>
  <path d="m78.65,16.7c-3.49,0-5.62-1.93-5.62-5.71V3.65h2.86v7.27c0,2.09,1.06,3.18,2.8,3.18s2.8-1.05,2.8-3.08V3.65h2.86v7.25c0,3.89-2.21,5.8-5.69,5.8" fill="#002f87"/>
  <path d="m94.39,16.5l-2.78-4.11h-2.24v4.11h-2.85V3.65h5.93c3.06,0,4.9,1.6,4.9,4.24v.04c0,2.07-1.13,3.38-2.78,3.98l3.17,4.59h-3.34Zm.06-8.46c0-1.21-.85-1.84-2.24-1.84h-2.84v3.69h2.89c1.39,0,2.19-.73,2.19-1.82v-.04Z" fill="#002f87"/>
  <rect x="99.68" y="3.65" width="2.85" height="12.85" fill="#002f87"/>
  <path d="m111.28,16.72c-4.04,0-6.82-2.81-6.82-6.61v-.04c0-3.65,2.87-6.64,6.81-6.64,2.34,0,3.74.62,5.1,1.76l-1.8,2.15c-1-.83-1.89-1.3-3.39-1.3-2.08,0-3.73,1.82-3.73,4v.04c0,2.35,1.63,4.07,3.93,4.07,1.04,0,1.97-.26,2.69-.77v-1.84h-2.87v-2.44h5.64v5.58c-1.34,1.12-3.17,2.04-5.54,2.04" fill="#002f87"/>
  <polygon points="118.83 16.5 118.83 3.65 121.69 3.65 121.69 13.93 128.16 13.93 128.16 16.5 118.83 16.5" fill="#002f87"/>
  <path d="m134.76,16.72c-4,0-6.88-2.95-6.88-6.61v-.04c0-3.65,2.91-6.64,6.92-6.64s6.88,2.95,6.88,6.61v.04c0,3.65-2.91,6.64-6.92,6.64m3.93-6.64c0-2.2-1.63-4.04-3.93-4.04s-3.89,1.8-3.89,4v.04c0,2.2,1.63,4.04,3.93,4.04s3.89-1.8,3.89-4v-.04Z" fill="#002f87"/>
  <path d="m149.65,16.5h-6.17V3.65h6.02c2.65,0,4.28,1.3,4.28,3.32v.04c0,1.45-.78,2.26-1.71,2.77,1.5.57,2.43,1.43,2.43,3.16v.04c0,2.35-1.93,3.52-4.86,3.52m1.3-9.05c0-.84-.67-1.32-1.87-1.32h-2.82v2.72h2.63c1.26,0,2.06-.4,2.06-1.36v-.04Zm.72,5.14c0-.86-.65-1.4-2.11-1.4h-3.3v2.83h3.39c1.26,0,2.02-.44,2.02-1.4v-.04Z" fill="#002f87"/>
  <polygon points="156.12 16.5 156.12 3.65 165.91 3.65 165.91 6.17 158.96 6.17 158.96 8.77 165.07 8.77 165.07 11.29 158.96 11.29 158.96 13.99 166 13.99 166 16.5 156.12 16.5" fill="#002f87"/>
  <path d="m14.81,0C6.64,0,0,6.58,0,14.66s6.64,14.66,14.81,14.66,14.81-6.58,14.81-14.66S22.98,0,14.81,0" fill="#002f87"/>
  <path d="m14.81,1.34C7.39,1.34,1.35,7.32,1.35,14.66s6.04,13.32,13.46,13.32,13.46-5.98,13.46-13.32S22.23,1.34,14.81,1.34m12.53,12.88h-3.17c-.09-2.87-1.07-5.6-2.71-7.86.55-.31,1.08-.66,1.59-1.05,2.53,2.19,4.16,5.36,4.29,8.91m-5.16,9.58l-6.92-3.38V4.39l6.92,19.41ZM14.36,4.39v16.03l-6.92,3.38L14.36,4.39Zm0,17.03v5.45c-1.72-.75-3.26-1.86-4.53-3.24l4.53-2.21Zm.9,0l4.53,2.21c-1.27,1.38-2.81,2.49-4.53,3.24v-5.45Zm.32-18.82c1.76.83,3.29,2.02,4.51,3.46-.94.43-1.93.74-2.94.93l-1.57-4.4Zm1.64-.13c1.89.37,3.63,1.16,5.12,2.27-.45.34-.93.64-1.42.91-1.03-1.25-2.28-2.33-3.7-3.18m-8.51,3.18c-.49-.27-.96-.58-1.42-.91,1.49-1.11,3.22-1.9,5.12-2.27-1.42.85-2.67,1.93-3.7,3.18m5.34-3.05l-1.57,4.4c-1.02-.19-2.01-.5-2.94-.93,1.23-1.44,2.75-2.64,4.51-3.46m-1.87,5.25l-2.27,6.37h-3.55c.09-2.72,1.04-5.31,2.62-7.44,1.02.49,2.1.85,3.21,1.07m-2.59,7.26l-1.91,5.36c-.81-1.67-1.26-3.5-1.33-5.36h3.24Zm-.59,8.93c.98,1.11,2.13,2.06,3.4,2.82-1.79-.35-3.44-1.08-4.88-2.1l1.48-.72Zm11.64,0l1.48.72c-1.43,1.02-3.08,1.75-4.88,2.1,1.27-.76,2.42-1.71,3.4-2.82m-.59-8.93h3.24c-.06,1.86-.51,3.69-1.33,5.36l-1.91-5.36Zm-.32-.89l-2.27-6.37c1.11-.22,2.19-.58,3.21-1.07,1.58,2.13,2.52,4.71,2.62,7.44h-3.55ZM6.57,5.31c.51.39,1.04.74,1.59,1.05-1.64,2.26-2.62,4.99-2.71,7.86h-3.17c.13-3.55,1.76-6.72,4.29-8.91M2.28,15.11h3.16c.07,2.29.7,4.52,1.82,6.51l-.82,2.29c-2.46-2.18-4.04-5.31-4.17-8.8m20.9,8.8l-.82-2.29c1.12-1.99,1.75-4.22,1.82-6.51h3.16c-.13,3.49-1.71,6.61-4.17,8.8" fill="#fff"/>
</svg>