<?xml version="1.0" encoding="UTF-8"?>
<svg width="135px" height="60px" viewBox="0 0 135 60" version="1.1" xmlns="http://www.w3.org/2000/svg" xmlns:xlink="http://www.w3.org/1999/xlink">
    <title>5569FEAE-C346-438C-9D60-90E76E49E0D6@0.5x</title>
    <g id="⚙️-Logo" stroke="none" stroke-width="1" fill="none" fill-rule="evenodd">
        <g id="Group-32" transform="translate(1.000000, 1.000000)">
            <polygon id="Fill-1" fill="#C60C30" points="0 0 0 58.4393939 20.1515152 58.4393939 20.1515152 52.3100809 6.20116748 52.3100809 6.20116748 6.12751026 20.1515152 6.12751026 20.1515152 0"></polygon>
            <polygon id="Fill-2" fill="#C60C30" points="112.848485 0 112.848485 6.12751026 126.800656 6.12751026 126.800656 52.3100809 112.848485 52.3100809 112.848485 58.4393939 133 58.4393939 133 0"></polygon>
            <g id="Group-31" transform="translate(16.121212, 10.075758)">
                <path d="M33.0561778,18.8526828 C33.0561778,15.3078074 32.0974429,14.197235 31.3922283,13.439538 C30.1799732,12.171336 28.214299,11.3616929 26.1950641,11.3616929 C25.3380944,11.3616929 21.9066449,11.4637939 19.3839404,15.0086694 L19.3839404,11.9689253 L11.3141424,11.9689253 L11.3141424,13.0329253 L14.5920515,13.0329253 L14.5920515,31.7604 L12.4246323,31.7604 L11.3141424,31.7604 L9.14493788,31.7604 L9.14493788,11.9689253 L0.971589394,11.9689253 L0.971589394,13.0329253 L4.40303889,13.0329253 L4.40303889,31.7604 L0.921599495,31.7604 L0.921599495,32.8208175 L11.3141424,32.8208175 L12.4246323,32.8208175 L22.7654,32.8208175 L22.7654,31.7604 L19.3839404,31.7604 L19.3839404,22.9044808 C19.4357157,19.0568848 19.4857056,16.018932 21.8548697,14.0431879 C22.8153899,13.2890734 23.9758697,12.8305145 25.0863596,12.8305145 C25.8433495,12.8305145 27.5572889,13.0848714 28.0625439,15.1573428 C28.1625237,15.6660566 28.214299,16.0690869 28.2642889,18.1433495 L28.2642889,31.7604 L25.0863596,31.7604 L25.0863596,32.8208175 L36.3858621,32.8208175 L36.3858621,31.7604 L33.0561778,31.7604 L33.0561778,18.8526828 Z" id="Fill-3" fill="#231F20"></path>
                <path d="M66.4017614,31.9633481 C65.2412816,31.9633481 65.2412816,30.7435098 65.2412816,29.0257051 L65.2412816,18.4483987 C65.2412816,16.5263919 65.2412816,14.8533684 63.8272816,13.386338 C62.5686073,12.1682909 60.1958725,11.3640215 57.7767184,11.3640215 C52.6813194,11.3640215 49.3998396,14.246136 49.3998396,16.7288027 C49.3998396,17.9934222 50.2585947,19.1039946 51.6190341,19.1039946 C52.9812588,19.1039946 53.941779,18.0435771 53.941779,16.9312135 C53.941779,15.7651125 52.881279,15.1077253 52.881279,14.5004929 C52.881279,13.7410047 54.7469735,12.3724929 57.0179432,12.3724929 C60.3476275,12.3724929 60.4493927,14.7512673 60.5511578,16.2218801 L60.5511578,21.2839407 C58.683678,21.2839407 55.9074533,21.4845603 53.6900442,22.1437387 C50.3085846,23.2041562 47.9894104,25.3787286 47.9894104,28.4704189 C47.9894104,28.7176108 48.0108346,28.952264 48.0394003,29.1833347 C47.8537235,30.104035 47.3520391,31.8110923 45.0650013,31.8110923 C42.5405114,31.8110923 42.5922866,29.6848835 42.5922866,28.1157522 L42.5922866,13.0334626 L47.9894104,13.0334626 L47.9894104,11.9694626 L42.5922866,11.9694626 L42.5922866,3.56672862 L41.8352967,3.56672862 C41.5817765,4.62893737 41.2282765,6.14970505 39.2626023,8.52847946 C38.0003573,10.0976108 36.4845922,11.5162774 34.6206831,12.322338 L34.6206831,13.0334626 L37.9003775,13.0334626 L37.9003775,25.7889239 C37.9003775,28.3683178 37.9003775,29.4824727 38.3038674,30.4425805 C39.0608573,32.4684795 41.0747361,33.4285872 43.5510215,33.4285872 C46.5307765,33.4285872 47.9001427,32.1012741 48.5714356,30.8205333 C49.487322,32.4971394 51.4190745,33.4285872 53.6900442,33.4285872 C57.1197083,33.4285872 59.3406881,31.4564256 60.4493927,29.2299071 C60.5511578,30.2419609 60.7011275,31.5065805 61.8616073,32.4684795 C62.6168119,33.077503 63.6755265,33.4285872 64.7878018,33.4285872 C66.9052311,33.4285872 68.0657109,32.2660687 68.5709659,31.7627286 L67.9639457,31.0498128 C67.6122311,31.3543246 67.0587715,31.9633481 66.4017614,31.9633481 L66.4017614,31.9633481 Z M60.5511578,24.0155906 C60.4493927,26.5967758 60.3476275,28.3683178 58.7354533,29.9392404 C58.2784028,30.3422707 57.3214533,31.1017589 55.9074533,31.1017589 C54.295279,31.1017589 52.7313093,30.0413414 52.7313093,27.560466 C52.7313093,23.4083582 56.6162386,22.2440485 60.5511578,22.1956848 L60.5511578,24.0155906 Z" id="Fill-5" fill="#231F20"></path>
                <path d="M78.7622995,32.3149697 C76.1396152,32.3149697 74.7756051,30.8497306 74.2221455,29.1784983 C73.7151051,27.7598316 73.7151051,25.8396162 73.7151051,24.118229 C73.7151051,21.8379731 73.7650949,17.1825253 74.5720747,15.2085724 C75.5825848,12.7259057 77.7000141,12.3748215 79.1140141,12.3748215 C81.8384636,12.3748215 83.0989232,13.6394411 83.0989232,14.0944175 C83.0989232,14.295037 83.0007288,14.3989293 82.8489737,14.6013401 C82.4454838,15.0079529 81.8384636,15.8158047 81.8384636,16.976532 C81.8384636,18.346835 82.7454232,19.6634007 84.2094131,19.6634007 C85.6716177,19.6634007 86.7838929,18.4471448 86.7838929,16.8278586 C86.7838929,14.295037 83.905903,11.3627677 79.2139939,11.3627677 C73.2616253,11.3627677 68.2180015,16.0701616 68.2180015,22.5992525 C68.2180015,28.5694747 72.7081657,33.4309158 78.6105444,33.4309158 C84.0576581,33.4309158 86.7321177,29.635266 87.435547,26.0384444 L86.1786581,26.0384444 C85.4698727,29.0763973 83.0007288,32.3149697 78.7622995,32.3149697" id="Fill-7" fill="#231F20"></path>
                <path d="M100.402748,28.9266492 C100.249208,29.7362923 99.8992785,31.8087636 97.3783593,31.8087636 C94.8556548,31.8087636 94.9056447,29.6861374 94.9056447,28.1152148 L94.9056447,13.0329253 L100.302768,13.0329253 L100.302768,11.967134 L94.9056447,11.967134 L94.9056447,3.56798249 L94.1468694,3.56798249 C93.8951346,4.63019125 93.5416346,6.14916768 91.5759604,8.52794209 C90.3137154,10.0952822 88.7997356,11.5139488 86.9322558,12.3218007 L86.9322558,13.0329253 L90.2119503,13.0329253 L90.2119503,25.7901778 C90.2119503,28.3677805 90.2119503,29.4837266 90.6154402,30.4438343 C91.3742154,32.4715246 93.3916649,33.4298411 95.8625942,33.4298411 C100.552718,33.4298411 101.261503,30.1393226 101.513238,28.9266492 L100.402748,28.9266492 Z" id="Fill-9" fill="#231F20"></path>
                <path d="M6.38317449,7.57679057 C8.2810053,7.57679057 9.82533611,6.0327367 9.82533611,4.12505993 C9.82533611,2.21738316 8.2810053,0.671538047 6.38317449,0.671538047 C4.48355833,0.671538047 2.94101288,2.21738316 2.94101288,4.12505993 C2.94101288,6.0327367 4.48355833,7.57679057 6.38317449,7.57679057" id="Fill-11" fill="#231F20"></path>
                <path d="M20.8150798,47.8431003 L20.4633652,46.6984943 L18.3334384,46.6984943 L17.9817237,47.8431003 L16.4980949,47.8431003 L18.5423247,41.7851071 L20.3687414,41.7851071 L22.4111859,47.8431003 L20.8150798,47.8431003 Z M19.3975091,43.2073562 L18.6762263,45.5252283 L20.1205773,45.5252283 L19.3975091,43.2073562 Z" id="Fill-13" fill="#C60C30"></path>
                <path d="M29.3442492,43.50327 C28.9943199,43.189802 28.3069588,42.8709603 27.7659967,42.8709603 C27.2143225,42.8709603 26.939378,43.0375461 26.939378,43.3689266 C26.939378,43.714637 27.3107316,43.838233 27.4910523,43.9045091 C27.6695876,43.9815327 28.4033679,44.2197684 28.5926154,44.2860444 C28.7532972,44.3541118 29.0871583,44.486664 29.3638881,44.7231084 C29.6388326,44.9541791 29.9244891,45.3160108 29.9244891,45.9751892 C29.9244891,46.6325764 29.6299058,47.1000916 29.2585523,47.3956471 C28.8979109,47.7001589 28.383729,47.9401859 27.5089058,47.9401859 C26.6251558,47.9401859 25.7110548,47.5962667 25.1700927,47.0803879 L25.8538831,45.9841455 C26.2359487,46.3191084 26.939378,46.6791488 27.5285447,46.6791488 C28.1284235,46.6791488 28.4212215,46.4892768 28.4212215,46.1453576 C28.4212215,45.7942734 28.0320144,45.6581387 27.823128,45.5829064 C27.6142417,45.5058828 27.0054361,45.2980983 26.8536811,45.2389872 C26.7197795,45.1924148 26.3287871,45.0473239 26.0270624,44.800132 C25.7306937,44.5618963 25.4557492,44.1714047 25.4557492,43.5122263 C25.4557492,42.8548391 25.8163907,42.3783677 26.1770321,42.118637 C26.5394588,41.8732364 26.9679437,41.6905293 27.7749235,41.6905293 C28.7265169,41.6905293 29.5531356,42.1293845 29.9244891,42.4625562 L29.3442492,43.50327 Z" id="Fill-15" fill="#C60C30"></path>
                <path d="M36.8475545,43.50327 C36.4958399,43.189802 35.8102641,42.8709603 35.269302,42.8709603 C34.7176278,42.8709603 34.440898,43.0375461 34.440898,43.3689266 C34.440898,43.714637 34.8122515,43.838233 34.9925722,43.9045091 C35.1728929,43.9815327 35.9048879,44.2197684 36.0959207,44.2860444 C36.2583879,44.3541118 36.5886783,44.486664 36.8654081,44.7231084 C37.1421379,44.9541791 37.4260091,45.3160108 37.4260091,45.9751892 C37.4260091,46.6325764 37.1332111,47.1000916 36.7618576,47.3956471 C36.3994308,47.7001589 35.8870343,47.9401859 35.0122111,47.9401859 C34.1284611,47.9401859 33.2143601,47.5962667 32.673398,47.0803879 L33.3571884,45.9841455 C33.7374687,46.3191084 34.440898,46.6791488 35.03185,46.6791488 C35.6299434,46.6791488 35.9245268,46.4892768 35.9245268,46.1453576 C35.9245268,45.7942734 35.5353197,45.6581387 35.3264333,45.5829064 C35.1157616,45.5058828 34.5087414,45.2980983 34.355201,45.2389872 C34.2212995,45.1924148 33.8320924,45.0473239 33.5285823,44.800132 C33.233999,44.5618963 32.9572692,44.1714047 32.9572692,43.5122263 C32.9572692,42.8548391 33.319696,42.3783677 33.6821227,42.118637 C34.0409788,41.8732364 34.471249,41.6905293 35.2782288,41.6905293 C36.2298222,41.6905293 37.0564409,42.1293845 37.4260091,42.4625562 L36.8475545,43.50327 Z" id="Fill-17" fill="#C60C30"></path>
                <path d="M44.0062866,41.7854653 L45.5095543,41.7854653 L45.5095543,45.4378155 C45.5095543,46.301196 45.336375,46.8403609 44.9293144,47.2810074 C44.5097563,47.7198626 43.892024,47.9401859 42.9797083,47.9401859 C42.0656073,47.9401859 41.4496604,47.7198626 41.0301023,47.2810074 C40.6230417,46.8403609 40.4498624,46.301196 40.4498624,45.4378155 L40.4498624,41.7854653 L41.9531301,41.7854653 L41.9531301,45.5058828 C41.9531301,45.9357818 42.0191881,46.1471488 42.1923674,46.3280646 C42.361976,46.5089805 42.6476326,46.6128727 42.9797083,46.6128727 C43.3028573,46.6128727 43.5974407,46.5089805 43.7688346,46.3280646 C43.9402285,46.1471488 44.0062866,45.9357818 44.0062866,45.5058828 L44.0062866,41.7854653 Z" id="Fill-19" fill="#C60C30"></path>
                <path d="M52.1546402,47.8431003 L50.9102487,45.6201643 L50.3014432,45.6201643 L50.3014432,47.8431003 L48.7981755,47.8431003 L48.7981755,41.7851071 L51.1851932,41.7851071 C51.820779,41.7851071 52.3920922,41.8925818 52.7920114,42.1863461 C53.2008573,42.4819017 53.5043674,42.9780768 53.5043674,43.6462114 C53.5043674,44.4397333 53.1258725,45.0469657 52.3635265,45.3622249 L53.8650088,47.8431003 L52.1546402,47.8431003 Z M51.7083018,43.0945077 C51.5369078,42.9780768 51.3369482,42.9315044 51.0709306,42.9315044 L50.3014432,42.9315044 L50.3014432,44.5060094 L51.0709306,44.5060094 C51.3369482,44.5060094 51.5369078,44.4576458 51.7083018,44.3412148 C51.8796957,44.2104539 51.9939583,43.9919219 51.9939583,43.7124875 C51.9939583,43.4455919 51.8796957,43.2252687 51.7083018,43.0945077 L51.7083018,43.0945077 Z" id="Fill-21" fill="#C60C30"></path>
                <path d="M60.5897215,47.8431003 L60.2380068,46.6984943 L58.1080801,46.6984943 L57.7563654,47.8431003 L56.2727366,47.8431003 L58.3169664,41.7851071 L60.1433831,41.7851071 L62.1876129,47.8431003 L60.5897215,47.8431003 Z M59.1721508,43.2073562 L58.4490826,45.5252283 L59.8970043,45.5252283 L59.1721508,43.2073562 Z" id="Fill-23" fill="#C60C30"></path>
                <polygon id="Fill-25" fill="#C60C30" points="68.7005826 47.8431003 66.3903351 43.9310195 66.3903351 47.8431003 64.9638376 47.8431003 64.9638376 41.7851071 66.531378 41.7851071 68.7398604 45.4876121 68.7398604 41.7851071 70.1574311 41.7851071 70.1574311 47.8431003"></polygon>
                <path d="M78.4850341,46.9091448 C78.4850341,46.9091448 77.8387361,47.9391111 76.1926402,47.9391111 C74.5483295,47.9391111 73.2182412,46.8607811 73.2182412,44.8098047 C73.2182412,42.7606195 74.6822311,41.6912458 76.2301326,41.6912458 C77.7798194,41.6912458 78.4564684,42.683596 78.4761073,42.7122559 L77.7334003,43.7225185 C77.7334003,43.7225185 77.2584962,42.997064 76.328327,42.997064 C75.4035139,42.997064 74.7590013,43.6849024 74.7590013,44.782936 C74.7590013,45.8791785 75.383875,46.5849293 76.3158295,46.5849293 C77.2495694,46.5849293 77.7530391,45.8594747 77.7530391,45.8594747 L78.4850341,46.9091448 Z" id="Fill-27" fill="#C60C30"></path>
                <polygon id="Fill-29" fill="#C60C30" points="81.5476295 47.8431003 81.5476295 41.7851071 85.6164503 41.7851071 85.6164503 42.9583731 83.0491119 42.9583731 83.0491119 44.1137266 85.4361295 44.1137266 85.4361295 45.3049051 83.0491119 45.3049051 83.0491119 46.6322182 85.711074 46.6322182 85.711074 47.8431003"></polygon>
            </g>
        </g>
    </g>
</svg>
