<svg id="Calque_1" data-name="Calque 1" xmlns="http://www.w3.org/2000/svg" viewBox="0 0 139.72 52.49"><defs><style>.cls-1{fill:#666;}.cls-2{fill:#00adef;}</style></defs><title>Plan de travail 1</title><path class="cls-1" d="M0,46c0-3.95,2.18-6.4,5.29-6.4,2.35,0,4,1.24,4.6,3.85l-1.38.35C7.93,41.79,7,41,5.27,41c-1.95,0-3.78,1.49-3.78,5s1.63,5.18,3.83,5.18c1.93,0,3.24-1.31,3.28-3.61H5.74V46.31H10v5.95H8.73V50.39h0a3.7,3.7,0,0,1-3.51,2.1C1.83,52.49,0,49.75,0,46Z"/><path class="cls-1" d="M12.12,47.82c0-3.23,2.15-4.62,4-4.62,2.1,0,3.7,1.48,3.7,4.69v.3H13.56c0,2,1.21,3.07,2.67,3.07a3,3,0,0,0,2.67-1.44l.84.74a4.14,4.14,0,0,1-3.62,1.88C14,52.44,12.12,50.91,12.12,47.82Zm6.33-.76c-.12-1.58-.87-2.65-2.34-2.65-1.19,0-2.32.82-2.52,2.65Z"/><path class="cls-1" d="M21.89,52.25V43.38h1.46v1.33a4.75,4.75,0,0,1,3.33-1.51,2.38,2.38,0,0,1,2.62,2.13,2.26,2.26,0,0,1,0,.52v6.4H27.85V46.17a1.47,1.47,0,0,0-1.15-1.72,1.55,1.55,0,0,0-.48,0,4.19,4.19,0,0,0-2.87,1.43v6.38Z"/><path class="cls-1" d="M31.26,47.82c0-3.23,2.15-4.62,4-4.62,2.1,0,3.7,1.48,3.7,4.69v.3H32.71c0,2,1.21,3.07,2.67,3.07a3,3,0,0,0,2.67-1.44l.84.74a4.13,4.13,0,0,1-3.61,1.88C33.18,52.44,31.26,50.91,31.26,47.82Zm6.33-.76c-.12-1.58-.87-2.65-2.34-2.65-1.19,0-2.32.82-2.52,2.65Z"/><path class="cls-1" d="M41,52.25V43.38h1.44V45h0a3.82,3.82,0,0,1,3.43-1.83h.21L46,44.49a2.94,2.94,0,0,0-.42,0,3.41,3.41,0,0,0-3.12,2v5.73H41Z"/><path class="cls-1" d="M46.9,50.15c0-1.8,1.53-3.08,5.93-3.7v-.4a1.48,1.48,0,0,0-1.71-1.64,4.71,4.71,0,0,0-3.21,1.34l-.76-.91a5.92,5.92,0,0,1,4.12-1.64c2.12,0,3,1.11,3,3v3.92a6.18,6.18,0,0,0,.25,2.18H53a3.69,3.69,0,0,1-.2-1.23,4.82,4.82,0,0,1-3.43,1.36C47.88,52.39,46.9,51.58,46.9,50.15Zm5.93-.2V47.46c-3.38.54-4.5,1.36-4.5,2.47a1.29,1.29,0,0,0,1.25,1.33l.25,0a4.22,4.22,0,0,0,3-1.26Z"/><path class="cls-1" d="M56.83,52.25V39.82h1.45V52.25Z"/><path class="cls-1" d="M65.28,52.25V39.82h1.48V52.25Z"/><path class="cls-1" d="M69.73,52.25V43.38h1.46v1.33a4.75,4.75,0,0,1,3.33-1.51,2.39,2.39,0,0,1,2.6,2.15,2.09,2.09,0,0,1,0,.5v6.4H75.7V46.17a1.47,1.47,0,0,0-1.15-1.72,1.55,1.55,0,0,0-.48,0,4.19,4.19,0,0,0-2.87,1.43v6.38Z"/><path class="cls-1" d="M79,50.91l.87-.87a3.65,3.65,0,0,0,2.77,1.23c1.38,0,2.13-.49,2.13-1.39S84,48.65,82.45,48.3c-1.88-.45-3.18-1-3.18-2.67,0-1.34,1.18-2.42,3.11-2.42a4.63,4.63,0,0,1,3.39,1.28l-.76,1a3.84,3.84,0,0,0-2.57-1.06c-1.29,0-1.8.57-1.8,1.19,0,.82.71,1.13,2.1,1.45,2,.49,3.37,1,3.37,2.81s-1.53,2.6-3.54,2.6A4.7,4.7,0,0,1,79,50.91Z"/><path class="cls-1" d="M88.12,49.78v-6.4h1.45v6.1a1.47,1.47,0,0,0,1.15,1.72,1.55,1.55,0,0,0,.48,0,4.16,4.16,0,0,0,2.92-1.43v-6.4h1.46v8.87H94.12V50.93a4.78,4.78,0,0,1-3.33,1.5,2.38,2.38,0,0,1-2.67-2A3,3,0,0,1,88.12,49.78Z"/><path class="cls-1" d="M98.12,52.25V43.38h1.45V45h0A3.82,3.82,0,0,1,103,43.15h.19l-.07,1.39h-.42a3.41,3.41,0,0,0-3.12,2v5.73H98.12Z"/><path class="cls-1" d="M104,50.15c0-1.8,1.53-3.08,5.93-3.7v-.4a1.48,1.48,0,0,0-1.28-1.65,1.34,1.34,0,0,0-.4,0A4.71,4.71,0,0,0,105,45.74l-.76-.91a5.92,5.92,0,0,1,4.12-1.64c2.12,0,3,1.11,3,3v3.92a6.18,6.18,0,0,0,.25,2.18h-1.49a4,4,0,0,1-.2-1.23,4.82,4.82,0,0,1-3.43,1.36C104.93,52.39,104,51.58,104,50.15Zm5.93-.2V47.46c-3.38.54-4.5,1.36-4.5,2.47a1.29,1.29,0,0,0,1.25,1.33l.25,0a4.22,4.22,0,0,0,3-1.26Z"/><path class="cls-1" d="M113.78,52.25V43.38h1.46v1.33a4.75,4.75,0,0,1,3.33-1.51,2.38,2.38,0,0,1,2.62,2.13,2.26,2.26,0,0,1,0,.52v6.4h-1.44V46.17a1.47,1.47,0,0,0-1.15-1.72,1.55,1.55,0,0,0-.48,0,4.19,4.19,0,0,0-2.87,1.43v6.38h-1.47Z"/><path class="cls-1" d="M123.12,47.82c0-3.24,2.08-4.62,4.07-4.62a3.52,3.52,0,0,1,3.48,2.49l-1.23.5a2.32,2.32,0,0,0-2.29-1.77c-1.28,0-2.57.89-2.57,3.39,0,2.18,1,3.41,2.54,3.41a2.41,2.41,0,0,0,2.39-1.78l1.19.47a3.75,3.75,0,0,1-3.58,2.53C125.06,52.44,123.12,50.86,123.12,47.82Z"/><path class="cls-1" d="M132,47.82c0-3.23,2.15-4.62,4-4.62,2.1,0,3.7,1.48,3.7,4.69v.3h-6.27c0,2,1.21,3.07,2.67,3.07a3,3,0,0,0,2.67-1.44l.84.74A4.13,4.13,0,0,1,136,52.44C133.93,52.44,132,50.91,132,47.82Zm6.33-.76c-.12-1.58-.87-2.65-2.34-2.65-1.19,0-2.32.82-2.52,2.65Z"/><rect class="cls-2" x="0.19" y="32.37" width="90.7" height="3.01"/><rect class="cls-2" x="108.81" y="32.37" width="30.76" height="3.01"/><path class="cls-1" d="M100.43,8.67q-.12,3.59-.12,8.55V33.4a.63.63,0,0,0,.45.64l2.23.66v.77q-2.61-.06-4.5-.06c-1.29,0-.15,0-1.87.06V25.12a11.12,11.12,0,0,1-5.73,1.76,7.25,7.25,0,0,1-5.71-2.43,8.85,8.85,0,0,1-2.06-6.1,9.47,9.47,0,0,1,2.76-7.16q2.76-2.64,7.67-2.64A30.28,30.28,0,0,1,98.3,9l2-.45Zm-3.71,1.86a12.64,12.64,0,0,0-3-.37,6.18,6.18,0,0,0-5,2,8.28,8.28,0,0,0-1.6,5.44,8,8,0,0,0,1.5,5.14A5.23,5.23,0,0,0,93,24.63,10.54,10.54,0,0,0,96.72,24Z"/><path class="cls-1" d="M6.9.49V24.77h9.61l2.39-4.95.67-.1-.35,6.52-.1.13H.29l-.08-.64L2.53,25a.61.61,0,0,0,.5-.58V2.5a.61.61,0,0,0-.45-.63L.33,1.19.24.49Z"/><path class="cls-1" d="M139.66,15.72a7.14,7.14,0,0,0-1.82-5.2,6.77,6.77,0,0,0-5.09-1.89,7.9,7.9,0,0,0-6.22,2.63A9.87,9.87,0,0,0,124.2,18a8.49,8.49,0,0,0,2.49,6.51,9.15,9.15,0,0,0,6.54,2.34,11.75,11.75,0,0,0,3-.43A11,11,0,0,0,139.42,25l-.08-.64a25.81,25.81,0,0,1-3.73.29q-3.83,0-5.63-1.84c-1.2-1.23-1.8-3.26-1.8-6.11h11.39A8.78,8.78,0,0,0,139.66,15.72Zm-4-.45h-7.45a7.11,7.11,0,0,1,1.22-3.73A3.58,3.58,0,0,1,132.56,10a2.65,2.65,0,0,1,2.31,1.1,6.5,6.5,0,0,1,.78,3.64v.54Z"/><path class="cls-1" d="M51.49,9.83q3.28-.6,6.19-1.32l.2.13v2.19A11.38,11.38,0,0,1,64.21,8.5,6,6,0,0,1,68.56,10a5.62,5.62,0,0,1,1.56,4.3v10.2a.73.73,0,0,0,.51.72l2.19.65v.62H66.41V15.18a4.24,4.24,0,0,0-1.15-3.34,5,5,0,0,0-3.39-1,8.84,8.84,0,0,0-4,1.14v14.5H54.24V15.75c0-1.65,0-3.18-.08-4.59l-2.6-.68Z"/><path class="cls-1" d="M79.68,2.07A2.16,2.16,0,0,1,79,3.7a2.3,2.3,0,0,1-1.69.63,2.24,2.24,0,0,1-1.62-.58,2,2,0,0,1-.59-1.55A2,2,0,0,1,75.75.59,2.51,2.51,0,0,1,77.47,0a2.35,2.35,0,0,1,1.59.54A1.94,1.94,0,0,1,79.68,2.07Zm-.21,12c0-2,0-3.75.12-5.38l-.17-.13c-1.9.46-4,.93-6.26,1.34l.06.47,2.51.72c0,1.43.07,3,.08,4.68V26.38h6.4v-.62L80,25.12a.67.67,0,0,1-.47-.66V14Z"/><path class="cls-1" d="M45,24.88A10.9,10.9,0,0,1,38,27q-5.25,0-7.75-2.64t-2.5-8.21V2.6A.64.64,0,0,0,27.29,2L25,1.25V.45c1.61,0,3.15.07,4.63.07S31.51.39,31.51.45V15.56q0,5.34,1.7,7.41t5.4,2c2.55,0,4.38-.7,5.51-2.1a1.74,1.74,0,0,0,.55-.76V2.61A.63.63,0,0,0,44.19,2l-2.32-.73V.45C43.48.5,45,.52,46.5.52S48.41.39,48.41.45V22.67a6.42,6.42,0,0,0,.13,1.23,1.27,1.27,0,0,0,.4.72,1.88,1.88,0,0,0,.88.35,10,10,0,0,0,1.55.12l.11.73c-.65.22-1.39.44-2.24.64a7.76,7.76,0,0,1-1.43.31A2.7,2.7,0,0,1,45,24.88Z"/><path class="cls-1" d="M111.12,26.87a6.29,6.29,0,0,1-4.35-1.41,5.54,5.54,0,0,1-1.57-4.23V10.53a.73.73,0,0,0-.51-.72l-2.19-.65V8.55h6.41V20.31a4.24,4.24,0,0,0,1.15,3.34,4.8,4.8,0,0,0,3.39,1,9.71,9.71,0,0,0,3.67-1.11v-15h3.69V22.78a6.43,6.43,0,0,0,.12,1.24,1.29,1.29,0,0,0,.37.72,1.58,1.58,0,0,0,.8.36,8.42,8.42,0,0,0,1.42.12l.1.73a21.2,21.2,0,0,1-2.05.65,7.85,7.85,0,0,1-1.59.31,2.6,2.6,0,0,1-2.6-2.16A10.87,10.87,0,0,1,111.12,26.87Z"/><path class="cls-1" d="M17.81,9q2.31-2.07,2.31-4a3.1,3.1,0,0,0-1.8-2.76,2.14,2.14,0,0,1,.6-1.63A2.06,2.06,0,0,1,20.46,0a2.08,2.08,0,0,1,1.66.83,3.19,3.19,0,0,1,.64,2,6.57,6.57,0,0,1-1.07,3.6A12.67,12.67,0,0,1,18.45,9.7Z"/></svg>