<svg id="Layer_1" data-name="Layer 1" xmlns="http://www.w3.org/2000/svg" viewBox="0 0 83.86 12.73" width="110" height="23"><defs><style>.cls-1{fill:#024b8f;}</style></defs><title>pafco</title><path class="cls-1" d="M71.16,0c-4.53,0-7.94,1.45-9.3,3.84C60.83,1.4,57.72,0,52.64,0a12,12,0,0,0-7.22,2.07V.32H30.65v9.5L25.31.32H19L17.13,3.6c-.53-2-3.14-3.28-8-3.28H0V12.41H6.22V8.65H9.36a13.79,13.79,0,0,0,5.42-.87l-2.61,4.63h6.09l.71-1.6h6.19l.74,1.6h11V8.16h6.61c1,2.85,4.52,4.57,9.76,4.57,4.31,0,7.51-1.4,8.67-3.78,1.38,2.44,4.75,3.78,9.25,3.78,5.62,0,10-2.32,10-6.43,0-3.19-3.19-6.3-10-6.3M8.8,5.83H6.22V3.14H8c1.32,0,3.32.15,3.32,1.28S10.25,5.83,8.8,5.83M20.16,8.29,22.09,4l2,4.33H20.16M36.87,3.14H44.3a5.06,5.06,0,0,0-1,2.2H36.87V3.14M56.33,7.72c-.24,1.16-1.19,2-3.19,2-3.16,0-3.74-1.59-3.74-3.29A3.18,3.18,0,0,1,52.9,3c2,0,3.19.72,3.37,2H61.4a5,5,0,0,0-.18,1.33,5.69,5.69,0,0,0,.18,1.46H56.33m14.84,2c-3,0-3.72-1.93-3.72-3.48S68.29,3,71.11,3s3.79,1.7,3.79,3.34C74.91,8.29,73.85,9.77,71.16,9.77Z"/><path class="cls-1" d="M82.71,3.48a1.11,1.11,0,0,1-1.16-1.15,1.16,1.16,0,0,1,2.31,0A1.11,1.11,0,0,1,82.71,3.48Zm0-2a.83.83,0,0,0-.83.88.83.83,0,0,0,.83.88h0a.84.84,0,0,0,.82-.89A.84.84,0,0,0,82.71,1.44Zm-.19,1.5h-.27V1.7h.46c.32,0,.51.09.51.37a.29.29,0,0,1-.3.32l.32.54h-.31l-.29-.52h-.12Zm.23-.73c.12,0,.19,0,.19-.16s-.14-.14-.24-.14h-.19v.3Z"/></svg>