<svg xmlns:inkscape="http://www.inkscape.org/namespaces/inkscape" xmlns:sodipodi="http://sodipodi.sourceforge.net/DTD/sodipodi-0.dtd" xmlns="http://www.w3.org/2000/svg" xmlns:svg="http://www.w3.org/2000/svg" viewBox="0 0 204.2 107.05" id="svg139" sodipodi:docname="Asset-89.svg" inkscape:version="1.1.1 (c3084ef, 2021-09-22)"><defs id="defs143"></defs><g id="Layer_2" data-name="Layer 2"><g id="Layer_2-2" data-name="Layer 2" transform="translate(0.20236295,0.4047259)"><path d="M 201.69,57.78 V 67.7 A 16.68,16.68 0 0 1 185,84.38 H 19.25 A 16.67,16.67 0 0 1 2.58,67.7 v -8 a 16.71,16.71 0 0 1 12,-16 l 28.31,-8.36 a 17.52,17.52 0 0 0 8.64,-5.79 L 68.32,8.72 a 16.67,16.67 0 0 1 13,-6.21 h 67.52 a 16.68,16.68 0 0 1 15.56,10.66 l 5.52,14.28 a 16.72,16.72 0 0 0 8.73,9.2 l 13.2,5.91 a 16.68,16.68 0 0 1 9.84,15.22 z" style="fill:#e6e7e8" id="path101"></path><path d="m 199.19,57.78 c 0,3.3 0,6.61 0,9.92 a 14.3,14.3 0 0 1 -9.67,13.45 c -3.05,1 -6.39,0.73 -9.57,0.73 H 19.25 A 14.27,14.27 0 0 1 6,72.68 C 4.57,68.68 5.09,64.13 5.11,59.99 A 14.37,14.37 0 0 1 15.27,46.14 c 7.32,-2.22 14.67,-4.33 22,-6.5 2.68,-0.79 5.48,-1.44 8.08,-2.5 A 20.2,20.2 0 0 0 53.3,31.3 l 2,-2.46 C 60.2,22.76 65.08,16.66 70,10.6 A 14.69,14.69 0 0 1 81.6,5 h 58 c 5.51,0 11.91,-0.85 16.77,2.2 4,2.5 5.5,6.46 7.11,10.61 1.32,3.43 2.62,6.87 4,10.29 a 20,20 0 0 0 7,9 26.71,26.71 0 0 0 4.76,2.51 c 3.69,1.65 7.38,3.29 11.07,5 a 14.54,14.54 0 0 1 8.9,13.19 c 0,3.21 5,3.22 5,0 A 19.38,19.38 0 0 0 193.08,40.41 c -3.56,-1.63 -7.14,-3.2 -10.71,-4.8 a 37.84,37.84 0 0 1 -4.44,-2.15 14.29,14.29 0 0 1 -5.64,-6.76 c -1.51,-3.71 -2.89,-7.47 -4.34,-11.21 -0.54,-1.41 -1.05,-2.85 -1.67,-4.23 A 19.19,19.19 0 0 0 159.07,3 20.69,20.69 0 0 0 147.66,0 H 98.29 C 92.68,0 87.08,0 81.47,0 a 19.39,19.39 0 0 0 -15,7 c -2.09,2.57 -4.16,5.16 -6.24,7.74 l -8.59,10.69 c -0.63,0.79 -1.26,1.59 -1.91,2.37 A 15.66,15.66 0 0 1 42.17,33 C 34.93,35.21 27.66,37.29 20.4,39.43 A 86.63,86.63 0 0 0 12.05,42 19.46,19.46 0 0 0 0.05,60.16 c 0,4.66 -0.51,9.74 1.18,14.17 a 19.42,19.42 0 0 0 15.95,12.42 70.09,70.09 0 0 0 8.2,0.13 h 159 a 20.39,20.39 0 0 0 9.6,-2.25 19.38,19.38 0 0 0 10.17,-16.95 c 0,-3.3 0,-6.6 0,-9.9 0,-3.3 -4.96,-3.22 -4.96,0 z" style="fill:#3b3b3c" id="path103"></path><circle cx="54.23" cy="82.360001" r="22.24" style="fill:#e6e7e8" id="circle105"></circle><path d="M 74,82.36 A 19.73,19.73 0 1 1 58,63 19.91,19.91 0 0 1 74,82.36 c 0,3.21 5,3.22 5,0 a 24.72,24.72 0 0 0 -43.75,-15.8 24.72,24.72 0 0 0 24,40 C 70.62,104.36 78.88,93.9 79,82.36 c 0,-3.22 -5,-3.22 -5,0 z" style="fill:#3b3b3c" id="path107"></path><circle cx="154.03999" cy="82.360001" r="22.24" style="fill:#e6e7e8" id="circle109"></circle><path d="m 173.78,82.36 a 19.74,19.74 0 1 1 -16,-19.39 19.93,19.93 0 0 1 16,19.39 c 0,3.21 5,3.22 5,0 A 24.74,24.74 0 1 0 159,106.59 c 11.45,-2.23 19.71,-12.69 19.8,-24.23 0,-3.22 -5,-3.22 -5.02,0 z" style="fill:#3b3b3c" id="path111"></path><circle cx="54.23" cy="82.360001" r="12.13" style="fill:#9b928b;fill-opacity:1" id="circle113"></circle><path d="m 63.86,82.36 a 9.62,9.62 0 1 1 -8,-9.5 9.7,9.7 0 0 1 8,9.5 c 0,3.21 5,3.22 5,0 a 14.85,14.85 0 0 0 -9.61,-13.74 14.62,14.62 0 1 0 9.61,13.74 c 0.04,-3.22 -4.96,-3.22 -5,0 z" style="fill:#3b3b3c" id="path115"></path><circle cx="154.03999" cy="82.360001" r="12.13" style="fill:#9b928b;fill-opacity:1" id="circle117"></circle><path d="m 163.67,82.36 a 9.62,9.62 0 1 1 -8,-9.5 9.71,9.71 0 0 1 8,9.5 c 0,3.21 5,3.22 5,0 a 14.86,14.86 0 0 0 -9.62,-13.74 14.62,14.62 0 1 0 9.62,13.74 c 0.04,-3.22 -4.96,-3.22 -5,0 z" style="fill:#3b3b3c" id="path119"></path><path d="m 70.64,37.44 c 20.91,0.05 65.23,0 83.7,-0.07 a 5.82,5.82 0 0 0 5.45,-7.85 L 154.34,14.83 A 5.83,5.83 0 0 0 148.88,11 H 81.25 a 5.8,5.8 0 0 0 -4.73,2.43 L 65.93,28.22 a 5.82,5.82 0 0 0 4.71,9.22 z" style="fill:#0581a5;fill-opacity:1" id="path121"></path><path d="m 70.64,39.94 c 21.76,0.05 43.53,0 65.29,0 h 14.32 c 2.18,0 4.64,0.28 6.72,-0.43 a 8.4,8.4 0 0 0 5.54,-6.36 c 0.57,-3.32 -1.18,-6.59 -2.31,-9.63 -1.13,-3.04 -2.22,-6.05 -3.37,-9.06 A 8.62,8.62 0 0 0 148.53,8.6 H 83.36 a 14.75,14.75 0 0 0 -4.59,0.38 c -3.44,1.09 -5.26,4.47 -7.25,7.23 L 65,25.27 a 24.87,24.87 0 0 0 -1.56,2.24 8.32,8.32 0 0 0 7.22,12.43 c 3.22,0.09 3.22,-4.91 0,-5 A 3.18,3.18 0 0 1 68.33,34 a 3.59,3.59 0 0 1 -1,-2.06 4.39,4.39 0 0 1 1.17,-3 L 74.18,21 c 1.47,-2 2.83,-4.33 4.48,-6.25 1.08,-1.25 2.47,-1.2 3.93,-1.2 h 64.26 a 8.79,8.79 0 0 1 3.36,0.26 3.71,3.71 0 0 1 1.95,2.34 l 1.52,4.09 3.46,9.31 a 4.24,4.24 0 0 1 0.22,3.4 c -0.87,1.86 -2.65,1.93 -4.53,1.94 H 140.31 Q 108.44,35 76.56,35 h -5.92 c -3.22,-0.06 -3.22,4.94 0,4.94 z" style="fill:#3b3b3c" id="path123"></path><line x1="121.15" y1="11.2" x2="121.15" y2="37.299999" style="fill:#e6e7e8" id="line125"></line><path d="m 118.65,11.2 v 26.1 c 0,3.21 5,3.22 5,0 V 11.2 c 0,-3.22 -5,-3.23 -5,0 z" style="fill:#3b3b3c" id="path127"></path><line x1="108.48" y1="47.360001" x2="116.48" y2="47.360001" style="fill:#e6e7e8" id="line129"></line><path d="m 108.48,49.86 h 8 a 2.5,2.5 0 0 0 0,-5 h -8 a 2.5,2.5 0 0 0 0,5 z" style="fill:#3b3b3c" id="path131"></path><path d="m 16.71,57.25 a 6.13,6.13 0 0 1 -6.11,6.11 h -8 V 59.75 A 16.67,16.67 0 0 1 5,51.14 h 5.6 a 6.13,6.13 0 0 1 6.11,6.11 z" style="fill:#e6e7e8" id="path133"></path><path d="m 14.21,57.25 c 0,0.13 -0.14,1 0,0.45 -0.06,0.29 -0.14,0.57 -0.22,0.85 -0.08,0.28 -0.1,0.27 0,0 -0.06,0.13 -0.13,0.26 -0.2,0.38 -0.07,0.12 -0.55,0.82 -0.2,0.38 a 6.85,6.85 0 0 1 -0.58,0.62 l -0.33,0.28 c 0.23,-0.17 0.22,-0.17 0,0 l -0.56,0.32 c -0.26,0.13 -0.26,0.13 0,0 l -0.41,0.14 c -0.11,0 -1,0.21 -0.41,0.13 a 5.32,5.32 0 0 1 -0.69,0 h -8 l 2.5,2.5 c 0,-1.19 0,-2.39 0,-3.58 A 17.53,17.53 0 0 1 5.17,58 c 0,-0.17 0,-0.34 0,-0.07 0,-0.2 0.07,-0.4 0.11,-0.61 0.04,-0.21 0.15,-0.72 0.24,-1.07 0.09,-0.35 0.22,-0.78 0.35,-1.17 0,-0.15 0.1,-0.3 0.16,-0.45 C 6.09,54.48 6.28,54 6.17,54.25 6.06,54.5 6.27,54.03 6.29,54 6.37,53.81 6.46,53.63 6.55,53.45 6.73,53.1 6.93,52.75 7.14,52.4 L 5,53.64 h 6 c 0.52,0 -0.46,-0.11 0.19,0 0.22,0 0.43,0.1 0.64,0.17 0.21,0.07 0.64,0.31 0.1,0 0.16,0.08 0.33,0.16 0.49,0.26 0.16,0.1 0.67,0.43 0.36,0.21 -0.31,-0.22 0.25,0.23 0.31,0.29 l 0.38,0.4 c 0.37,0.39 -0.2,-0.35 0,0.08 l 0.34,0.56 c 0.32,0.53 -0.06,-0.29 0.08,0.17 0.06,0.18 0.12,0.35 0.17,0.54 a 2.07,2.07 0 0 1 0.12,0.56 c 0.06,-0.67 0,0.14 0,0.3 a 2.5,2.5 0 0 0 5,0 A 8.74,8.74 0 0 0 14.74,49.66 11.34,11.34 0 0 0 9,48.64 c -1.34,0 -2.69,-0.06 -4,0 -2.26,0.11 -3.21,3.07 -3.86,4.88 a 19.66,19.66 0 0 0 -1,5 c -0.12,1.61 0,3.25 0,4.86 a 2.53,2.53 0 0 0 2.5,2.5 H 8 c 2.65,0 5.31,0.1 7.57,-1.58 a 8.85,8.85 0 0 0 3.68,-7 2.5,2.5 0 0 0 -5,0 z" style="fill:#3b3b3c" id="path135"></path></g></g></svg>