<svg xmlns:inkscape="http://www.inkscape.org/namespaces/inkscape" xmlns:sodipodi="http://sodipodi.sourceforge.net/DTD/sodipodi-0.dtd" xmlns="http://www.w3.org/2000/svg" xmlns:svg="http://www.w3.org/2000/svg" viewBox="0 0 251.44 195.49" id="svg298" sodipodi:docname="BusinessOwner.svg" inkscape:version="1.1.1 (c3084ef, 2021-09-22)"><defs id="defs302"></defs><g id="Layer_2" data-name="Layer 2"><g id="Layer_31" data-name="Layer 31"><rect x="21.38" y="42.77" width="215.27" height="24.26" rx="3.1" style="fill:#808285" id="rect184"></rect><path d="M233.54,64.53H25.12a4.28,4.28,0,0,1-.62,0c-.85-.16-.62-1.11-.62-1.92V48c0-.89-.35-2.57.6-2.76a2.57,2.57,0,0,1,.48,0c1.16,0,2.32,0,3.48,0H231.5a12.51,12.51,0,0,1,2,0c.87.15.62,1.24.62,2.06V61.68c0,.77.35,2.8-.61,2.85-3.2.17-3.22,5.17,0,5a5.72,5.72,0,0,0,5.4-4.12,8.55,8.55,0,0,0,.21-2.25V48.65c0-1.95.22-4-.85-5.74-2.14-3.44-7-2.64-10.48-2.64H35c-3.37,0-6.74,0-10.1,0-.26,0-.51,0-.77,0A5.65,5.65,0,0,0,19,44.71a9.29,9.29,0,0,0-.13,2V61.33c0,2.08-.2,4.17,1.13,5.94a5.78,5.78,0,0,0,4.66,2.26c1,0,1.94,0,2.92,0h206C236.76,69.53,236.77,64.53,233.54,64.53Z" style="fill:#3b3b3c" id="path186"></path><rect x="14.24" y="36" width="229.54" height="13.53" rx="3.1" style="fill:#a7a9ac" id="rect188"></rect><path d="M240.68,47H17.92a2.62,2.62,0,0,1-.56,0c-.46-.08-.55-.24-.62-.7a24,24,0,0,1,0-3.06c0-1.22,0-2.45,0-3.67,0-.6,0-1,.61-1.1a2.36,2.36,0,0,1,.46,0h221a10.73,10.73,0,0,1,1.88,0c.47.1.54.25.61.7a20.75,20.75,0,0,1,0,2.95v3.64c0,.59.07,1.21-.6,1.24-3.2.18-3.22,5.18,0,5a5.73,5.73,0,0,0,5.4-4.11,12.11,12.11,0,0,0,.2-3.24V40.55a9.43,9.43,0,0,0-.36-3.39c-1-2.78-3.61-3.66-6.28-3.66H27.55c-3.26,0-6.53,0-9.79,0-.25,0-.5,0-.75,0a5.66,5.66,0,0,0-5.13,4.42,15,15,0,0,0-.14,3.14c0,2.42-.5,5.65.62,7.89A5.73,5.73,0,0,0,17.49,52c2.85.08,5.7,0,8.54,0H240.68C243.9,52,243.9,47,240.68,47Z" style="fill:#3b3b3c" id="path190"></path><rect x="18.92" y="82.82" width="220.18" height="96.44" rx="3.96" style="fill:#e6e7e8" id="rect192"></rect><path d="M235.14,176.76H36.93c-4.61,0-9.24.06-13.86,0-2.13,0-1.65-2.56-1.65-4.11V87.59c0-1.11.12-2.16,1.47-2.27a7.48,7.48,0,0,1,.82,0H233.54c1.37,0,2.94-.23,3.06,1.58.18,2.72,0,5.51,0,8.24v79.34c0,1.09-.09,2.22-1.46,2.28-3.2.13-3.22,5.13,0,5a6.63,6.63,0,0,0,6.46-6.87c0-1.11,0-2.23,0-3.34v-58c0-8.85.2-17.73,0-26.58a6.58,6.58,0,0,0-6.48-6.61c-.35,0-.7,0-1.05,0H23.61a13.1,13.1,0,0,0-1.4.05,6.61,6.61,0,0,0-5.79,6.85c0,3.28,0,6.56,0,9.84v75.41c0,.89,0,1.8,0,2.69a6.61,6.61,0,0,0,6.5,6.6c1.2,0,2.41,0,3.61,0H235.14C238.36,181.76,238.36,176.76,235.14,176.76Z" style="fill:#3b3b3c" id="path194"></path><rect x="160.79" y="120.73" width="54" height="58.27" rx="3.96" style="fill:#4f504e" id="rect196"></rect><path d="M210.82,176.49H167.41c-1.5,0-4,.49-4.12-1.52s0-3.95,0-5.89V129.91c0-1.72-.15-3.51,0-5.22.17-2,3.19-1.46,4.71-1.46h41.77a3.52,3.52,0,0,1,1.84.23c1.19.76.68,3.73.68,5V154.2c0,6.81,0,13.62,0,20.43,0,1-.37,1.82-1.47,1.86-3.2.14-3.22,5.14,0,5a6.59,6.59,0,0,0,6.47-6.52c0-.65,0-1.3,0-1.95V125.35c0-4.08-2.74-7.1-6.91-7.12-7.57,0-15.15,0-22.72,0s-15,0-22.52,0a6.76,6.76,0,0,0-5.86,3,7.43,7.43,0,0,0-1,4.17v47.71c0,.62,0,1.25,0,1.87a6.58,6.58,0,0,0,6.46,6.5c6.46.23,13,0,19.43,0h26.64C214,181.49,214.05,176.49,210.82,176.49Z" style="fill:#3b3b3c" id="path198"></path><rect x="168.04" y="127.68" width="39.62" height="51.75" rx="3.96" style="fill:#0581a5;fill-opacity:1" id="rect200"></rect><path d="M203.7,176.93H177.38c-1.76,0-3.6.15-5.36,0s-1.48-1.81-1.48-3.14V135.05a17.93,17.93,0,0,1,0-3.74c.39-1.64,3.09-1.13,4.38-1.13h28.19c1.46,0,2,.71,2,2.11v6.25c0,12.24.17,24.5,0,36.75a1.51,1.51,0,0,1-1.47,1.64c-3.2.14-3.22,5.14,0,5a6.6,6.6,0,0,0,6.47-6.46c0-.37,0-.74,0-1.11V134.64c0-2,.21-4.18-.76-6a6.62,6.62,0,0,0-5.83-3.44c-.75,0-1.5,0-2.25,0h-9.89c-6.36,0-12.72-.05-19.08,0a6.63,6.63,0,0,0-6.82,6.73c0,2,0,3.93,0,5.89v22.77c0,4.94-.17,9.92,0,14.86a6.59,6.59,0,0,0,4.48,6.19,9.21,9.21,0,0,0,2.86.31H203.7C206.92,181.93,206.93,176.93,203.7,176.93Z" style="fill:#3b3b3c" id="path202"></path><path d="M199.09,150.25v9.55a2.5,2.5,0,0,0,5,0v-9.55a2.5,2.5,0,0,0-5,0Z" style="fill:#3b3b3c" id="path204"></path><path d="M243.08,85.7s0,18.92,0,18.88a7.35,7.35,0,0,1-13.79,0c-.09.25-.32-18.81-.32-18.81a21.9,21.9,0,0,1,14.15-.09Z" style="fill:#808285" id="path206"></path><path d="M240.58,85.7c0,3.44,0,6.88,0,10.32,0,2.15,0,4.3,0,6.45,0,.61,0,1.22,0,1.83,0,0,0,.24,0,.27-.49-.57.34-.83,0-.46a2.65,2.65,0,0,0-.25.44,4.36,4.36,0,0,1-.75,1,4.91,4.91,0,0,1-7.89-1.58,2.54,2.54,0,0,0-4.18-1.1h0l4.18,1.11c.27.71.06.77.06.35,0-.21,0-.43,0-.65,0-.75,0-1.5,0-2.25q-.06-3.17-.11-6.35l-.12-9.25L229.6,88.2a20,20,0,0,1,12.82-.09c3.07,1,4.38-3.83,1.33-4.82a24.54,24.54,0,0,0-15.48.09,2.57,2.57,0,0,0-1.84,2.41q.06,4.74.13,9.5,0,3.24.1,6.48a11.34,11.34,0,0,0,.18,3.49,2.53,2.53,0,0,0,4.17,1.11h0l-4.18-1.11a10,10,0,0,0,11,6.46c3.39-.55,7.46-3.6,7.65-7.31.24-4.53,0-9.12,0-13.66v-5C245.59,82.48,240.59,82.48,240.58,85.7Z" style="fill:#3b3b3c" id="path208"></path><path d="M228.93,85.7s0,18.92,0,18.88a7.35,7.35,0,0,1-13.79,0c-.09.25-.31-18.81-.31-18.81a21.87,21.87,0,0,1,14.14-.09Z" style="fill:#0581a5;fill-opacity:1" id="path210"></path><path d="M226.43,85.7c0,3.44,0,6.88,0,10.32,0,2.15,0,4.3,0,6.45,0,.61,0,1.22,0,1.83,0,0,0,.24,0,.27-.48-.57.34-.83,0-.46a2.65,2.65,0,0,0-.25.44,4.36,4.36,0,0,1-.75,1,4.91,4.91,0,0,1-7.89-1.58,2.54,2.54,0,0,0-4.18-1.1h0l4.18,1.11c.27.71.06.77.06.35,0-.21,0-.43,0-.65,0-.75,0-1.5,0-2.25q-.06-3.17-.1-6.35c0-3.08-.09-6.17-.12-9.25l-1.84,2.41a20,20,0,0,1,12.82-.09c3.07,1,4.38-3.83,1.33-4.82a24.54,24.54,0,0,0-15.48.09,2.55,2.55,0,0,0-1.83,2.41q0,4.74.12,9.5,0,3.24.1,6.48a11.34,11.34,0,0,0,.18,3.49,2.53,2.53,0,0,0,4.17,1.11h0l-4.18-1.11a10,10,0,0,0,11.05,6.46c3.39-.55,7.46-3.6,7.65-7.31.24-4.53,0-9.12,0-13.66v-5C231.44,82.48,226.44,82.48,226.43,85.7Z" style="fill:#3b3b3c" id="path212"></path><path d="M214.79,85.69s0,18.92,0,18.89a7.35,7.35,0,0,1-13.79,0c-.09.25-.31-18.81-.31-18.81a21.9,21.9,0,0,1,14.15-.09Z" style="fill:#808285" id="path214"></path><path d="M212.29,85.69q0,5.16,0,10.32c0,2.15,0,4.3,0,6.46,0,.6,0,1.21,0,1.82,0,0,0,.24,0,.28-.48-.57.34-.84,0-.47a3.25,3.25,0,0,0-.25.45,4.3,4.3,0,0,1-.75,1,4.91,4.91,0,0,1-7.89-1.57,2.53,2.53,0,0,0-4.18-1.11h0l4.18,1.11c.28.72.06.77.07.35,0-.21,0-.43,0-.64,0-.75,0-1.5,0-2.25q-.06-3.18-.1-6.36c0-3.08-.09-6.17-.12-9.25l-1.84,2.41a20,20,0,0,1,12.82-.09c3.07,1,4.38-3.83,1.33-4.82a24.68,24.68,0,0,0-15.48.09,2.56,2.56,0,0,0-1.83,2.41c0,3.17.07,6.33.12,9.5q0,3.24.1,6.48a11.41,11.41,0,0,0,.18,3.5,2.53,2.53,0,0,0,4.18,1.1h0l-4.18-1.11a10,10,0,0,0,11.05,6.47c3.39-.56,7.47-3.61,7.66-7.31.23-4.54,0-9.13,0-13.67,0-1.68,0-3.37,0-5C217.29,82.47,212.29,82.47,212.29,85.69Z" style="fill:#3b3b3c" id="path216"></path><path d="M200.64,85.69s0,18.92,0,18.89a7.35,7.35,0,0,1-13.79,0c-.09.25-.31-18.81-.31-18.81a21.9,21.9,0,0,1,14.15-.09Z" style="fill:#0581a5;fill-opacity:1" id="path218"></path><path d="M198.14,85.69q0,5.16,0,10.32c0,2.15,0,4.3,0,6.46,0,.6,0,1.21,0,1.82,0,0,0,.24,0,.28-.48-.57.34-.84,0-.47a2.42,2.42,0,0,0-.24.45,4.67,4.67,0,0,1-.76,1,4.91,4.91,0,0,1-7.89-1.57,2.53,2.53,0,0,0-4.18-1.11h0l4.18,1.11c.28.72.06.77.07.35,0-.21,0-.43,0-.64,0-.75,0-1.5,0-2.25q-.06-3.18-.1-6.36c-.05-3.08-.09-6.17-.12-9.25l-1.84,2.41A20,20,0,0,1,200,88.1c3.07,1,4.38-3.83,1.33-4.82a24.68,24.68,0,0,0-15.48.09A2.56,2.56,0,0,0,184,85.78c0,3.17.07,6.33.12,9.5q0,3.24.1,6.48a11.41,11.41,0,0,0,.18,3.5,2.53,2.53,0,0,0,4.18,1.1h0l-4.18-1.11a10,10,0,0,0,11.05,6.47c3.39-.56,7.47-3.61,7.66-7.31.23-4.54,0-9.13,0-13.67,0-1.68,0-3.37,0-5C203.14,82.47,198.14,82.47,198.14,85.69Z" style="fill:#3b3b3c" id="path220"></path><path d="M185.61,85.7s0,18.92,0,18.89a7.36,7.36,0,0,1-13.8,0c-.08.25-.31-18.81-.31-18.81a22.07,22.07,0,0,1,14.15-.09Z" style="fill:#808285" id="path222"></path><path d="M183.11,85.7c0,3.44,0,6.88,0,10.32,0,2.15,0,4.31,0,6.46,0,.6,0,1.22,0,1.82,0,0,0,.24,0,.28-.49-.57.33-.83,0-.47a3.21,3.21,0,0,0-.24.45,4.62,4.62,0,0,1-.75,1,4.91,4.91,0,0,1-7.89-1.57,2.54,2.54,0,0,0-4.18-1.11h0l4.18,1.1c.28.72.06.77.07.36,0-.22,0-.44,0-.65,0-.75,0-1.5,0-2.25q-.06-3.18-.1-6.35L174,85.79l-1.83,2.41A20,20,0,0,1,185,88.11c3.06,1,4.38-3.82,1.32-4.82a24.65,24.65,0,0,0-15.47.09A2.58,2.58,0,0,0,169,85.79l.12,9.5c0,2.16.07,4.32.11,6.48a11.73,11.73,0,0,0,.17,3.5,2.54,2.54,0,0,0,4.18,1.1h0l-4.18-1.1a10,10,0,0,0,11.06,6.46c3.39-.56,7.46-3.61,7.65-7.31.23-4.53,0-9.13,0-13.67,0-1.68,0-3.36,0-5C188.11,82.48,183.11,82.48,183.11,85.7Z" style="fill:#3b3b3c" id="path224"></path><path d="M171.46,85.7s0,18.92,0,18.89a7.35,7.35,0,0,1-13.79,0c-.09.25-.32-18.81-.32-18.81a22.07,22.07,0,0,1,14.15-.09Z" style="fill:#0581a5;fill-opacity:1" id="path226"></path><path d="M169,85.7q0,5.16,0,10.32c0,2.15,0,4.31,0,6.46,0,.6,0,1.22,0,1.82,0,0,0,.24,0,.28-.49-.57.33-.83,0-.47a3.21,3.21,0,0,0-.24.45,4.62,4.62,0,0,1-.75,1,4.91,4.91,0,0,1-7.89-1.57,2.54,2.54,0,0,0-4.18-1.11h0l4.17,1.1c.28.72.06.77.07.36,0-.22,0-.44,0-.65,0-.75,0-1.5-.05-2.25q-.06-3.18-.1-6.35l-.12-9.26L158,88.2a20,20,0,0,1,12.82-.09c3.06,1,4.38-3.82,1.33-4.82a24.68,24.68,0,0,0-15.48.09,2.58,2.58,0,0,0-1.84,2.41l.12,9.5c0,2.16.07,4.32.11,6.48a11.73,11.73,0,0,0,.17,3.5,2.54,2.54,0,0,0,4.18,1.1h0l-4.18-1.1a10,10,0,0,0,11.06,6.46c3.39-.56,7.46-3.61,7.65-7.31.23-4.53,0-9.13,0-13.67,0-1.68,0-3.36,0-5C174,82.48,169,82.48,169,85.7Z" style="fill:#3b3b3c" id="path228"></path><path d="M157.31,85.69s0,18.93,0,18.89a7.35,7.35,0,0,1-13.79,0c-.09.26-.32-18.81-.32-18.81a22.07,22.07,0,0,1,14.15-.09Z" style="fill:#808285" id="path230"></path><path d="M154.81,85.69q0,5.16,0,10.32,0,3.24,0,6.46c0,.6,0,1.22,0,1.82,0,0,0,.24,0,.28-.49-.57.34-.83,0-.47a3.21,3.21,0,0,0-.24.45,4.62,4.62,0,0,1-.75,1,4.9,4.9,0,0,1-7.89-1.57,2.54,2.54,0,0,0-4.18-1.1h0l4.17,1.1c.28.72.06.77.07.36,0-.22,0-.44,0-.65,0-.75,0-1.5-.05-2.25,0-2.12-.07-4.23-.1-6.35l-.12-9.26-1.83,2.41a20,20,0,0,1,12.82-.09c3.06,1,4.38-3.82,1.33-4.82a24.68,24.68,0,0,0-15.48.09,2.59,2.59,0,0,0-1.84,2.41q.06,4.75.13,9.5,0,3.24.1,6.48a11.73,11.73,0,0,0,.17,3.5,2.53,2.53,0,0,0,4.18,1.1h0l-4.17-1.1a10,10,0,0,0,11.05,6.46c3.39-.56,7.46-3.6,7.65-7.31.23-4.53,0-9.13,0-13.66,0-1.69,0-3.37,0-5.06C159.82,82.48,154.82,82.47,154.81,85.69Z" style="fill:#3b3b3c" id="path232"></path><path d="M143.16,85.69s0,18.93,0,18.89a7.35,7.35,0,0,1-13.79,0c-.09.26-.32-18.81-.32-18.81a22.07,22.07,0,0,1,14.15-.09Z" style="fill:#0581a5;fill-opacity:1" id="path234"></path><path d="M140.66,85.69q0,5.16,0,10.32,0,3.24,0,6.46c0,.6,0,1.22,0,1.82,0,0,0,.24,0,.28-.49-.57.34-.83,0-.47a3.21,3.21,0,0,0-.24.45,4.62,4.62,0,0,1-.75,1,4.9,4.9,0,0,1-7.89-1.57,2.54,2.54,0,0,0-4.18-1.1h0l4.18,1.1c.27.72.06.77.06.36,0-.22,0-.44,0-.65,0-.75,0-1.5-.05-2.25,0-2.12-.07-4.23-.1-6.35l-.12-9.26-1.83,2.41a20,20,0,0,1,12.82-.09c3.06,1,4.38-3.82,1.33-4.82a24.68,24.68,0,0,0-15.48.09,2.59,2.59,0,0,0-1.84,2.41q.06,4.75.13,9.5,0,3.24.1,6.48a11.73,11.73,0,0,0,.17,3.5,2.53,2.53,0,0,0,4.18,1.1h0l-4.17-1.1a10,10,0,0,0,11,6.46c3.39-.56,7.46-3.6,7.65-7.31.23-4.53,0-9.13,0-13.66,0-1.69,0-3.37,0-5.06C145.67,82.48,140.67,82.47,140.66,85.69Z" style="fill:#3b3b3c" id="path236"></path><path d="M129,85.69s0,18.92,0,18.89a7.35,7.35,0,0,1-13.79,0c-.09.25-.32-18.81-.32-18.81A21.9,21.9,0,0,1,129,85.69Z" style="fill:#808285" id="path238"></path><path d="M126.51,85.69q0,5.16,0,10.32,0,3.22,0,6.46c0,.6,0,1.21,0,1.82,0,0,0,.24,0,.28-.49-.57.34-.84,0-.47a3.21,3.21,0,0,0-.24.45,4.3,4.3,0,0,1-.75,1,4.91,4.91,0,0,1-7.89-1.57,2.53,2.53,0,0,0-4.18-1.11h0l4.18,1.11c.27.72.06.77.06.35,0-.21,0-.43,0-.64,0-.75,0-1.5,0-2.25q-.06-3.18-.1-6.36l-.12-9.25-1.83,2.41a20,20,0,0,1,12.82-.09c3.06,1,4.38-3.83,1.33-4.82a24.68,24.68,0,0,0-15.48.09,2.58,2.58,0,0,0-1.84,2.41c0,3.17.08,6.33.13,9.5q0,3.24.1,6.48a11.73,11.73,0,0,0,.17,3.5,2.54,2.54,0,0,0,4.18,1.1h0l-4.18-1.11a10,10,0,0,0,11,6.47c3.39-.56,7.46-3.61,7.65-7.31.24-4.54,0-9.13,0-13.67,0-1.68,0-3.37,0-5C131.52,82.47,126.52,82.47,126.51,85.69Z" style="fill:#3b3b3c" id="path240"></path><path d="M114.86,85.69s0,18.92,0,18.89a7.35,7.35,0,0,1-13.79,0c-.09.25-.32-18.81-.32-18.81a21.9,21.9,0,0,1,14.15-.09Z" style="fill:#0581a5;fill-opacity:1" id="path242"></path><path d="M112.36,85.69c0,3.44,0,6.88,0,10.32,0,2.15,0,4.3,0,6.46,0,.6,0,1.21,0,1.82,0,0,0,.24,0,.28-.49-.57.34-.84,0-.47a4.76,4.76,0,0,0-.24.45,4.3,4.3,0,0,1-.75,1,4.91,4.91,0,0,1-7.89-1.57,2.53,2.53,0,0,0-4.18-1.11h0l4.18,1.11c.27.72.06.77.06.35,0-.21,0-.43,0-.64,0-.75,0-1.5,0-2.25q-.06-3.18-.1-6.36l-.12-9.25-1.83,2.41a20,20,0,0,1,12.82-.09c3.06,1,4.38-3.83,1.33-4.82a24.68,24.68,0,0,0-15.48.09,2.58,2.58,0,0,0-1.84,2.41c0,3.17.08,6.33.13,9.5q0,3.24.1,6.48a11.73,11.73,0,0,0,.17,3.5,2.54,2.54,0,0,0,4.18,1.1h0l-4.18-1.11a10,10,0,0,0,11,6.47c3.39-.56,7.46-3.61,7.65-7.31.24-4.54,0-9.13,0-13.67,0-1.68,0-3.37,0-5C117.37,82.47,112.37,82.47,112.36,85.69Z" style="fill:#3b3b3c" id="path244"></path><path d="M100.71,85.68s0,18.93,0,18.89a7.35,7.35,0,0,1-13.79,0c-.09.26-.32-18.81-.32-18.81a22.07,22.07,0,0,1,14.15-.09Z" style="fill:#808285" id="path246"></path><path d="M98.21,85.68c0,3.44,0,6.88,0,10.32,0,2.15,0,4.31,0,6.46,0,.6,0,1.22,0,1.82,0,0,0,.24,0,.28-.49-.57.34-.83,0-.47a3.25,3.25,0,0,0-.25.45,4.3,4.3,0,0,1-.75.95,4.91,4.91,0,0,1-7.89-1.57,2.54,2.54,0,0,0-4.18-1.11h0l4.18,1.1c.27.72.06.77.06.36,0-.22,0-.44,0-.65,0-.75,0-1.5,0-2.25,0-2.12-.07-4.24-.1-6.35l-.12-9.26-1.83,2.41a20,20,0,0,1,12.82-.09c3.07,1,4.38-3.82,1.33-4.82a24.68,24.68,0,0,0-15.48.09,2.58,2.58,0,0,0-1.84,2.41c0,3.17.08,6.33.13,9.5q0,3.24.1,6.48a11.41,11.41,0,0,0,.18,3.5,2.53,2.53,0,0,0,4.17,1.1h0l-4.18-1.1a10,10,0,0,0,11,6.46c3.39-.56,7.46-3.61,7.65-7.31.24-4.53,0-9.13,0-13.67v-5C103.22,82.46,98.22,82.46,98.21,85.68Z" style="fill:#3b3b3c" id="path248"></path><path d="M86.56,85.68s0,18.93,0,18.89a7.35,7.35,0,0,1-13.79,0c-.09.26-.32-18.81-.32-18.81a22.07,22.07,0,0,1,14.15-.09Z" style="fill:#0581a5;fill-opacity:1" id="path250"></path><path d="M84.06,85.68c0,3.44,0,6.88,0,10.32,0,2.15,0,4.31,0,6.46,0,.6,0,1.22,0,1.82,0,0,0,.24,0,.28-.49-.57.34-.83,0-.47a3.25,3.25,0,0,0-.25.45,4.3,4.3,0,0,1-.75.95,4.91,4.91,0,0,1-7.89-1.57A2.54,2.54,0,0,0,71,102.81h0l4.18,1.1c.27.72.06.77.06.36,0-.22,0-.44,0-.65,0-.75,0-1.5,0-2.25Q75.08,98.2,75,95c-.05-3.09-.09-6.17-.13-9.26l-1.83,2.41a20,20,0,0,1,12.82-.09c3.07,1,4.38-3.82,1.33-4.82a24.68,24.68,0,0,0-15.48.09,2.58,2.58,0,0,0-1.84,2.41c0,3.17.08,6.33.13,9.5q0,3.24.1,6.48a11.41,11.41,0,0,0,.18,3.5,2.53,2.53,0,0,0,4.17,1.1h0l-4.18-1.1a10,10,0,0,0,11.05,6.46c3.39-.56,7.46-3.61,7.65-7.31.24-4.53,0-9.13,0-13.67v-5C89.07,82.46,84.07,82.46,84.06,85.68Z" style="fill:#3b3b3c" id="path252"></path><path d="M72.41,85.69s0,18.93,0,18.89a7.35,7.35,0,0,1-13.79,0c-.09.26-.31-18.81-.31-18.81a22,22,0,0,1,14.14-.09Z" style="fill:#808285" id="path254"></path><path d="M69.91,85.69c0,3.44,0,6.88,0,10.32,0,2.16,0,4.31,0,6.46,0,.6,0,1.22,0,1.82,0,0,0,.24,0,.28-.48-.57.34-.83,0-.47a3.25,3.25,0,0,0-.25.45,4.3,4.3,0,0,1-.75,1A4.91,4.91,0,0,1,61,103.93a2.54,2.54,0,0,0-4.18-1.1h0l4.18,1.1c.28.72.06.77.07.36,0-.22,0-.44,0-.65,0-.75,0-1.5,0-2.25,0-2.12-.07-4.23-.1-6.35,0-3.09-.09-6.17-.12-9.26l-1.84,2.41a20,20,0,0,1,12.82-.09c3.07,1,4.38-3.82,1.33-4.82a24.68,24.68,0,0,0-15.48.09,2.57,2.57,0,0,0-1.83,2.41q0,4.75.12,9.5,0,3.24.1,6.48a11.41,11.41,0,0,0,.18,3.5,2.53,2.53,0,0,0,4.18,1.1h0l-4.18-1.1a10,10,0,0,0,11,6.46c3.39-.56,7.46-3.6,7.66-7.31.23-4.53,0-9.13,0-13.66V85.69C74.92,82.48,69.92,82.47,69.91,85.69Z" style="fill:#3b3b3c" id="path256"></path><path d="M58.27,85.69s0,18.93-.05,18.89a7.35,7.35,0,0,1-13.79,0c-.09.26-.31-18.81-.31-18.81a22.07,22.07,0,0,1,14.15-.09Z" style="fill:#0581a5;fill-opacity:1" id="path258"></path><path d="M55.77,85.69q0,5.16,0,10.32c0,2.16,0,4.31,0,6.46,0,.6,0,1.22,0,1.82,0,0,0,.24,0,.28-.48-.57.34-.83,0-.47a3.25,3.25,0,0,0-.25.45,4.3,4.3,0,0,1-.75,1,4.91,4.91,0,0,1-7.89-1.57,2.54,2.54,0,0,0-4.18-1.1h0l4.18,1.1c.28.72.06.77.07.36,0-.22,0-.44,0-.65,0-.75,0-1.5,0-2.25,0-2.12-.07-4.23-.1-6.35-.05-3.09-.09-6.17-.12-9.26l-1.84,2.41A20,20,0,0,1,57.6,88.1c3.07,1,4.38-3.82,1.33-4.82a24.68,24.68,0,0,0-15.48.09,2.57,2.57,0,0,0-1.83,2.41q0,4.75.12,9.5,0,3.24.1,6.48a11.41,11.41,0,0,0,.18,3.5,2.53,2.53,0,0,0,4.18,1.1h0L42,105.26a10,10,0,0,0,11,6.46c3.39-.56,7.47-3.6,7.66-7.31.23-4.53,0-9.13,0-13.66,0-1.69,0-3.37,0-5.06C60.77,82.48,55.77,82.47,55.77,85.69Z" style="fill:#3b3b3c" id="path260"></path><path d="M44.12,85.69s0,18.92,0,18.88a7.35,7.35,0,0,1-13.79,0c-.09.25-.31-18.82-.31-18.82a21.9,21.9,0,0,1,7.21-1.21A21.48,21.48,0,0,1,44.12,85.69Z" style="fill:#808285" id="path262"></path><path d="M41.62,85.69c0,3.44,0,6.88,0,10.31,0,2.16,0,4.31,0,6.46,0,.61,0,1.22,0,1.82,0,0,0,.25,0,.28-.48-.57.34-.83,0-.47a2.42,2.42,0,0,0-.24.45,5,5,0,0,1-.76,1,4.91,4.91,0,0,1-7.89-1.58,2.54,2.54,0,0,0-4.18-1.1h0l4.18,1.1c.28.72.06.78.07.36,0-.22,0-.43,0-.65,0-.75,0-1.5-.05-2.25q-.06-3.16-.1-6.35-.08-4.62-.12-9.26l-1.84,2.42a20,20,0,0,1,12.82-.09c3.07,1,4.38-3.83,1.33-4.82a24.61,24.61,0,0,0-15.48.08,2.57,2.57,0,0,0-1.83,2.41c0,3.17.08,6.34.12,9.51q0,3.23.1,6.47a11.39,11.39,0,0,0,.18,3.5,2.54,2.54,0,0,0,4.18,1.11h0l-4.18-1.1a10,10,0,0,0,11.05,6.46c3.39-.55,7.47-3.6,7.66-7.31.23-4.53,0-9.13,0-13.66,0-1.69,0-3.37,0-5C46.62,82.47,41.62,82.46,41.62,85.69Z" style="fill:#3b3b3c" id="path264"></path><path d="M30,85.69s0,18.92,0,18.88a7.35,7.35,0,0,1-13.79,0c-.09.25-.31-18.82-.31-18.82A21.9,21.9,0,0,1,23,84.56,21.48,21.48,0,0,1,30,85.69Z" style="fill:#0581a5;fill-opacity:1" id="path266"></path><path d="M27.47,85.69c0,3.44,0,6.88,0,10.31q0,3.24,0,6.46c0,.61,0,1.22,0,1.82,0,0,0,.25,0,.28-.48-.57.34-.83,0-.47a2.42,2.42,0,0,0-.24.45,4.66,4.66,0,0,1-.76,1,4.91,4.91,0,0,1-7.89-1.58,2.54,2.54,0,0,0-4.18-1.1h0l4.18,1.1c.28.72.06.78.07.36,0-.22,0-.43,0-.65,0-.75,0-1.5-.05-2.25q-.06-3.16-.1-6.35-.07-4.62-.12-9.26l-1.84,2.42A20,20,0,0,1,29.3,88.1c3.07,1,4.38-3.83,1.33-4.82a24.61,24.61,0,0,0-15.48.08,2.57,2.57,0,0,0-1.83,2.41c0,3.17.08,6.34.12,9.51q0,3.23.1,6.47a11.39,11.39,0,0,0,.18,3.5,2.54,2.54,0,0,0,4.18,1.11h0l-4.18-1.1a10,10,0,0,0,11,6.46c3.39-.55,7.47-3.6,7.66-7.31.23-4.53,0-9.13,0-13.66,0-1.69,0-3.37,0-5C32.47,82.47,27.47,82.46,27.47,85.69Z" style="fill:#3b3b3c" id="path268"></path><rect x="9.08" y="64.45" width="239.86" height="24.89" rx="3.86" style="fill:#a7a9ac" id="rect270"></rect><path d="M245.08,86.84H14c-1.29,0-2.38,0-2.4-1.59-.06-4.93,0-9.86,0-14.8,0-1.46-.35-3.36,1.36-3.5a4.51,4.51,0,0,1,.52,0H242.27c.9,0,1.82-.06,2.72,0s1.44.64,1.45,1.65c0,2.19,0,4.38,0,6.57v8.16c0,1.41.36,3.43-1.36,3.51-3.2.13-3.22,5.13,0,5,4-.17,6.36-3.28,6.36-7.1V69.34a10.54,10.54,0,0,0-.18-2.51,6.39,6.39,0,0,0-4.85-4.74,16.8,16.8,0,0,0-3.17-.14H24.43c-3.68,0-7.35,0-11,0-.32,0-.63,0-1,0a6.44,6.44,0,0,0-5.56,4.38,8.8,8.8,0,0,0-.31,2.8V84.63a9.44,9.44,0,0,0,.26,2.64,6.41,6.41,0,0,0,5.61,4.53c.32,0,.63,0,1,0H245.08C248.3,91.84,248.31,86.84,245.08,86.84Z" style="fill:#3b3b3c" id="path272"></path><path d="M2.83,16.8,29.36,2.42,57,16.8S63,67,29.92,77.38C29.92,77.38-.93,72.3,2.83,16.8Z" style="fill:#0581a5;fill-opacity:1" id="path274"></path><path d="M4.09,19,27.34,6.36l3.28-1.78H28.1L52.34,17.19,55.74,19,54.5,16.8A87.28,87.28,0,0,1,54.59,34c-.1,1.23-.23,2.45-.37,3.67,0,.16-.13,1-.1.78s-.09.63-.12.79c-.1.68-.21,1.37-.33,2.05a71.07,71.07,0,0,1-1.84,8,51.94,51.94,0,0,1-2.8,7.5,43.29,43.29,0,0,1-4.41,7.37l-.06.08-.38.48c-.26.32-.53.64-.8,1-.51.6-1.05,1.17-1.6,1.73a32.46,32.46,0,0,1-3.41,3A31,31,0,0,1,29.25,75h1.33a15.18,15.18,0,0,1-3-.89L27,73.81c.95.37-.07,0-.33-.16q-.86-.39-1.68-.84a34.24,34.24,0,0,1-3.89-2.55c.41.31.21.17-.05,0l-.51-.42c-.36-.3-.72-.61-1.07-.93-.74-.67-1.44-1.37-2.12-2.1-.33-.36-.65-.73-1-1.1L15.76,65c-.1-.12-.67-.86-.28-.35-.7-.92-1.36-1.86-2-2.84a48.27,48.27,0,0,1-6.43-16c-2.2-9.46-2.38-19.32-1.74-29a2.52,2.52,0,0,0-2.5-2.5,2.54,2.54,0,0,0-2.5,2.5C-.49,29.16,0,42.11,4.2,53.9,6.72,61,10.62,67.79,16.34,72.81a31.9,31.9,0,0,0,11.18,6.53,9.68,9.68,0,0,0,2.06.5c1.37.12,2.92-.69,4.17-1.21a40.23,40.23,0,0,0,3.75-1.79,35.41,35.41,0,0,0,6.08-4.31c7.06-6.15,11.29-15,13.62-23.92A91.53,91.53,0,0,0,59.92,25c0-2.26-.1-4.52-.28-6.77,0-.45-.08-.9-.13-1.35a3,3,0,0,0-1.75-2.51L37.72,4c-2.33-1.21-4.63-2.5-7-3.64a3.27,3.27,0,0,0-3.27.3l-3.33,1.8-21,11.36-1.58.86C-1.26,16.17,1.26,20.49,4.09,19Z" style="fill:#3b3b3c" id="path276"></path><path d="M15.41,43.55l6.87,8.76c.89,1.14,2.59.77,3.53,0L42.19,39l2.33-1.89a2.5,2.5,0,0,0,0-3.53,2.55,2.55,0,0,0-3.53,0L24.61,46.89l-2.33,1.89h3.53L18.94,40a2.51,2.51,0,0,0-3.53,0,2.56,2.56,0,0,0,0,3.54Z" style="fill:#fff" id="path278"></path><rect x="103.67" y="126.92" width="27.73" height="33.02" rx="3.96" style="fill:#0581a5;fill-opacity:1" id="rect280"></rect><path d="M127.43,157.44H117.9c-3.37,0-6.85.24-10.22,0-1.17-.08-1.51-.89-1.51-1.95,0-1.38,0-2.77,0-4.15V132.45c0-.78-.17-1.88.31-2.49.64-.79,2-.54,2.93-.54h5.89c3.9,0,7.8,0,11.7,0,1.06,0,1.81.39,1.89,1.54s0,2.12,0,3.16v13.36c0,2.8.23,5.7,0,8.49a1.48,1.48,0,0,1-1.46,1.47c-3.2.14-3.22,5.14,0,5a6.58,6.58,0,0,0,6.46-6.59c0-1.25,0-2.5,0-3.74v-20c0-2-.24-3.94-1.67-5.53-1.59-1.77-3.72-2.13-6-2.13h-6.15c-4.09,0-8.18,0-12.27,0a6.57,6.57,0,0,0-6.65,6c-.09,1,0,2.07,0,3.09v20.33a16.86,16.86,0,0,0,.18,3.69,6.6,6.6,0,0,0,6.67,5h19.41C130.65,162.44,130.66,157.44,127.43,157.44Z" style="fill:#3b3b3c" id="path282"></path><rect x="47.59" y="126.92" width="27.73" height="33.02" rx="3.96" style="fill:#0581a5;fill-opacity:1" id="rect284"></rect><path d="M71.36,157.44H61.83c-3.38,0-6.85.24-10.23,0-1.17-.08-1.5-.89-1.51-1.95,0-1.38,0-2.77,0-4.15V132.45c0-.78-.17-1.88.32-2.49.63-.79,2-.54,2.92-.54h5.9c3.9,0,7.79,0,11.69,0,1.07,0,1.82.39,1.9,1.54s0,2.12,0,3.16v13.36c0,2.8.23,5.7,0,8.49a1.48,1.48,0,0,1-1.46,1.47c-3.21.14-3.22,5.14,0,5a6.6,6.6,0,0,0,6.46-6.59c0-1.25,0-2.5,0-3.74v-20c0-2-.24-3.94-1.68-5.53-1.59-1.77-3.71-2.13-5.94-2.13H64.05c-4.09,0-8.18,0-12.27,0a6.56,6.56,0,0,0-6.65,6c-.1,1,0,2.07,0,3.09v20.33a17.5,17.5,0,0,0,.18,3.69,6.62,6.62,0,0,0,6.68,5H71.36C74.58,162.44,74.58,157.44,71.36,157.44Z" style="fill:#3b3b3c" id="path286"></path><rect x="9.08" y="179.43" width="236.67" height="13.53" rx="3.1" style="fill:#a7a9ac" id="rect288"></rect><path d="M242.65,190.46H12.83a3.31,3.31,0,0,1-.63,0c-.43-.08-.53-.21-.62-.63a15.5,15.5,0,0,1,0-2.89V183.1c0-.62,0-1,.61-1.17a3.69,3.69,0,0,1,.47,0c1.15,0,2.3,0,3.45,0H240.58a12.76,12.76,0,0,1,2,0c1.06.19.62,2.46.62,3.4v3.81c0,.61.1,1.29-.6,1.32-3.2.18-3.22,5.18,0,5a5.72,5.72,0,0,0,5.44-4.27,14.56,14.56,0,0,0,.16-3.3c0-2.49.55-5.94-.76-8.18s-3.64-2.78-6-2.78H22.66c-3.35,0-6.7,0-10,0-.26,0-.51,0-.76,0a5.66,5.66,0,0,0-5.16,4.58,19.11,19.11,0,0,0-.11,3.21c0,2.53-.55,6,.94,8.22a5.81,5.81,0,0,0,4.86,2.5c3,0,6,0,9,0h221.3C245.86,195.46,245.87,190.46,242.65,190.46Z" style="fill:#3b3b3c" id="path290"></path><circle cx="187.79" cy="143.43" r="8.34" style="fill:#f47e2b" id="circle292"></circle><path d="M176.94,143.43a11,11,0,0,0,7.19,10.2,10.83,10.83,0,0,0,11.9-3.18,10.84,10.84,0,1,0-19.09-7,2.5,2.5,0,0,0,5,0l0-.7c0-.49,0-.12,0,0a8.19,8.19,0,0,1,.25-1.09c.07-.21.14-.42.23-.63,0,.11-.21.39,0,0s.43-.76.67-1.13c.39-.57-.19.22.08-.09.12-.14.24-.27.37-.4s.87-.78.47-.47a8.93,8.93,0,0,1,.91-.6l.39-.2c.26-.12.26-.13,0,0l.31-.12c.35-.11.7-.22,1.07-.3.13,0,.62-.09.12,0a5.46,5.46,0,0,1,.58,0,7.53,7.53,0,0,1,1.16,0c.43,0-.57-.14.12,0l.65.16.64.2c.09,0,.42.2,0,0a9,9,0,0,1,1,.53,5,5,0,0,1,.45.3c.33.24-.39-.39.09.09.31.31.62.6.91.93-.29-.34-.05-.07,0,0s.24.36.35.55.53,1.05.33.58a7.74,7.74,0,0,1,.35,1.06l.09.44c.05.29.06.29,0,0l0,.34c0,.35,0,.7,0,1.05,0,.07-.12.81,0,.24,0,.15,0,.3-.08.45a9.93,9.93,0,0,1-.32,1.06c-.21.65.24-.38-.09.22-.11.19-.2.38-.32.57s-.19.31-.29.46-.38.46-.07.1a9.33,9.33,0,0,1-.75.79s-.52.45-.24.22-.29.2-.27.2a9.92,9.92,0,0,1-1.15.64c.1,0,.44-.15,0,0l-.64.2a3,3,0,0,1-.43.11s-.71.13-.34.08-.37,0-.35,0h-.58c-.2,0-.39,0-.58,0-.59,0,.28.1-.24,0s-.86-.22-1.29-.36c-.66-.22.26.14-.11,0s-.46-.23-.68-.36l-.37-.23-.35-.26c.22.17.22.16,0,0l-.77-.76c-.47-.48.23.38-.15-.18-.12-.18-.24-.36-.35-.55s-.21-.38-.32-.57c-.25-.45.08.32-.09-.22a11.18,11.18,0,0,1-.36-1.29c0-.09-.07-.48,0,0,0-.3,0-.61-.05-.92a2.5,2.5,0,0,0-5,0Z" style="fill:#3b3b3c" id="path294"></path></g></g></svg>