<svg xmlns:inkscape="http://www.inkscape.org/namespaces/inkscape" xmlns:sodipodi="http://sodipodi.sourceforge.net/DTD/sodipodi-0.dtd" xmlns="http://www.w3.org/2000/svg" xmlns:svg="http://www.w3.org/2000/svg" viewBox="0 0 370.94 231.54" id="svg138" sodipodi:docname="Home.svg" inkscape:version="1.1.1 (c3084ef, 2021-09-22)"><defs id="defs142"></defs><g id="Layer_2" data-name="Layer 2"><g id="Layer_31" data-name="Layer 31"><path d="M79.76,200.33s-2.54-19.86-24.91-18.08-23.44,25.24-23.44,25.24-6-4.57-17.6,1.44S2.5,224.82,2.5,224.82H105.7S98.07,196,79.76,200.33Z" style="fill:#808285" id="path96"></path><path d="M82.26,200.33a23.81,23.81,0,0,0-16.07-19.46,30.36,30.36,0,0,0-23.51,2.47,27.52,27.52,0,0,0-11.46,14,32.33,32.33,0,0,0-2.31,10.11l3.77-2.15a10.27,10.27,0,0,0-3.92-1.59,20.72,20.72,0,0,0-10.73.71C10.39,206.88,3.39,212.13.84,220A15.45,15.45,0,0,0,0,224.82a2.54,2.54,0,0,0,2.5,2.5H93c4.17,0,8.37.16,12.54,0h.18a2.52,2.52,0,0,0,2.41-3.16,56,56,0,0,0-4.06-10.38c-2.85-5.7-6.93-11.57-12.79-14.49a17.9,17.9,0,0,0-12.17-1.38c-3.13.72-1.8,5.54,1.33,4.83a13.15,13.15,0,0,1,4.63-.27c-.47-.06.34.06.5.09a10.92,10.92,0,0,1,1.13.27c.33.09.66.2,1,.31l.54.21c-.48-.2.19.09.23.11a18.71,18.71,0,0,1,6.6,5.38,32.83,32.83,0,0,1,2.35,3.27c.78,1.23,1.49,2.51,2.16,3.81.3.6.59,1.2.87,1.81.12.24.23.49.34.74s.53,1.22.29.65c.41,1,.8,2,1.16,3s.79,2.23,1.09,3.37l2.41-3.17h-99c-1.33,0-2.71-.11-4,0a1.08,1.08,0,0,1-.18,0l2.5,2.5c0-.27,0-.55,0-.82s0-.29,0-.44c0,.41-.08.47,0,.08s.17-.89.28-1.33a14.61,14.61,0,0,1,3.06-6,23,23,0,0,1,9.39-6.47,23,23,0,0,1,5.29-1.4,17.08,17.08,0,0,1,2.26-.09l.88,0,.47.05c.32,0-.37-.07.11,0a14,14,0,0,1,1.67.41l.59.2c.65.22-.41-.23.13.06a8.56,8.56,0,0,1,.93.53c1.63,1.22,3.68-.46,3.76-2.16,0-.18,0-.37.05-.56l.06-.62c0-.11.08-.61,0-.08s0-.11,0-.24a35,35,0,0,1,1.21-5.15q.24-.75.51-1.5l.32-.81.15-.37c-.17.41,0,.06.07-.14A29.08,29.08,0,0,1,38,194.84c.35-.57.72-1.13,1.11-1.67.08-.12.57-.75.29-.4.24-.3.49-.6.74-.89.44-.5.91-1,1.39-1.45l.8-.74.38-.31c.06-.06.59-.48.27-.23,5.27-4.08,12.82-5.37,19.29-4.12a18,18,0,0,1,7.91,3.41c.07.05.38.29,0,0l.35.28.73.65a17.07,17.07,0,0,1,1.33,1.36c.2.22.4.46.59.69l.25.32c0-.07-.3-.41,0,0s.66.94,1,1.43a25.43,25.43,0,0,1,1.6,3.06c.18.4,0-.11-.07-.16.06.14.12.28.17.42s.17.45.25.68c.15.41.29.82.41,1.24.18.61.34,1.23.47,1.85.06.33.22,1.47,0,.09a2.58,2.58,0,0,0,2.5,2.5A2.52,2.52,0,0,0,82.26,200.33Z" style="fill:#3b3b3c" id="path98"></path><path d="M368.44,118.24c0,31.92-27.43,57.8-61.26,57.8s-61.25-25.88-61.25-57.8c0-18.69,9.4-35.29,24-45.88a44.88,44.88,0,1,1,74.57,0C359,83,368.44,99.55,368.44,118.24Z" style="fill:#808285" id="path100"></path><path d="M365.94,118.24a54.1,54.1,0,0,1-16.51,38.43,61.4,61.4,0,0,1-81.6,2.64c-10.94-9.36-18.24-22.73-19.26-37.17a54.18,54.18,0,0,1,18-43.86,55,55,0,0,1,4.6-3.76,2.55,2.55,0,0,0,.9-3.42,42.4,42.4,0,1,1,73-4.6,47.36,47.36,0,0,1-2.71,4.6,2.56,2.56,0,0,0,.9,3.42,55.49,55.49,0,0,1,21.45,32.19,53.19,53.19,0,0,1,1.28,11.53c0,3.21,5,3.22,5,0a59.11,59.11,0,0,0-15.87-39.82,64.61,64.61,0,0,0-9.34-8.22l.9,3.42a47.38,47.38,0,1,0-81.69-4.79,45.73,45.73,0,0,0,2.8,4.79l.9-3.42C254,80.91,244.32,97.42,243.49,115.7A58.81,58.81,0,0,0,260,158.81a65.5,65.5,0,0,0,42.85,19.59A66.36,66.36,0,0,0,348.68,164a59.65,59.65,0,0,0,22-40c.2-1.91.29-3.83.3-5.74C371,115,366,115,365.94,118.24Z" style="fill:#3b3b3c" id="path102"></path><path d="M304.68,47V220.78c0,2.35-.06,4.71,0,7.05,0,.11,0,.21,0,.31,0,3.22,5,3.22,5,0V54.41c0-2.35.06-4.71,0-7.06V47c0-3.21-5-3.22-5,0Z" style="fill:#3b3b3c" id="path104"></path><path d="M330.18,112.34l-22.07,30.15L305,146.71a2.53,2.53,0,0,0,.9,3.42,2.56,2.56,0,0,0,3.42-.9l22.07-30.16,3.09-4.21a2.52,2.52,0,0,0-.9-3.42,2.55,2.55,0,0,0-3.42.9Z" style="fill:#3b3b3c" id="path106"></path><path d="M285.85,72.91l16.77,25.81,2.4,3.71c1.75,2.69,6.08.19,4.32-2.52L292.58,74.1l-2.41-3.71c-1.75-2.69-6.08-.19-4.32,2.52Z" style="fill:#3b3b3c" id="path108"></path><polygon points="266.54 128.38 266.54 228.95 99.41 228.95 99.41 128.38 182.97 41.51 266.54 128.38" style="fill:#e6e7e8" id="polygon110"></polygon><path d="M264,128.38v96.47c0,1.29-.11,2.64,0,3.93V229l2.5-2.5H106.23c-2.16,0-4.38-.14-6.54,0a2.61,2.61,0,0,1-.28,0l2.5,2.5V132.49c0-1.3.12-2.65,0-3.94v-.17l-.73,1.77,8.33-8.66,20-20.78,24.09-25L174.42,54l6.92-7.19c1.07-1.12,2.28-2.19,3.26-3.39a1,1,0,0,1,.14-.15h-3.53l8.33,8.65,20,20.79,24.09,25,20.83,21.66c3.38,3.52,6.66,7.2,10.18,10.58l.14.15c2.24,2.32,5.77-1.22,3.54-3.54L260,118,240,97.17l-24.08-25L195.06,50.47c-3.38-3.52-6.65-7.2-10.17-10.58l-.15-.15a2.52,2.52,0,0,0-3.53,0l-7.12,7.4L156.62,65.31l-22,22.9-20.78,21.6-13.73,14.27c-.79.83-1.64,1.63-2.4,2.49-1,1.12-.77,2.58-.77,4V229a2.53,2.53,0,0,0,2.5,2.5H245.94c6.76,0,13.56.2,20.32,0h.28A2.53,2.53,0,0,0,269,229V140.78c0-4.07.15-8.16,0-12.23v-.17C269,125.16,264,125.16,264,128.38Z" style="fill:#3b3b3c" id="path112"></path><rect x="118.48" y="162.07" width="24.83" height="41.42" rx="3.96" style="fill:#0581a5;fill-opacity:1" id="rect114"></rect><path d="M139.34,201H127.61c-1.67,0-3.36.07-5,0-1.18,0-1.6-.81-1.6-1.89,0-8.7,0-17.4,0-26.1v-5.31c0-.79-.18-2,.31-2.57.7-.87,2.49-.54,3.51-.54h13.73c1.17,0,2.17.15,2.27,1.53.22,3.06,0,6.22,0,9.28v15.46c0,2.85.23,5.81,0,8.66a1.48,1.48,0,0,1-1.46,1.48c-3.2.14-3.22,5.14,0,5a6.6,6.6,0,0,0,6.46-6.68c0-1.29,0-2.59,0-3.89V166.87a7,7,0,0,0-2.76-6.12c-1.89-1.35-4.07-1.18-6.25-1.18-4.67,0-9.35,0-14,0A6.6,6.6,0,0,0,116,166c0,.92,0,1.84,0,2.76v29a10.37,10.37,0,0,0,.56,4.35c1.27,2.94,4.06,3.88,7,3.88h15.79C142.56,206,142.56,201,139.34,201Z" style="fill:#3b3b3c" id="path116"></path><path d="M280.7,146.89l-95-92.54a3.82,3.82,0,0,0-5.32,0L86,146.8a3.81,3.81,0,0,1-5.36,0l-7-7a3.8,3.8,0,0,1,.06-5.45L180.37,32.73a3.79,3.79,0,0,1,5.24,0L293.27,134.54a3.79,3.79,0,0,1,0,5.53L286,146.94A3.82,3.82,0,0,1,280.7,146.89Z" style="fill:#e6e7e8" id="path118"></path><path d="M282.47,145.12l-11.64-11.33-27-26.26-30.4-29.6L191.54,56.6c-1.35-1.31-2.67-2.66-4-3.94a6.45,6.45,0,0,0-9,0c-.37.35-.73.72-1.09,1.07l-17.35,17L131,99.25l-29,28.38-16.83,16.5a11.15,11.15,0,0,1-.92.9c-.86.65-1.54.25-2.2-.41l-3.11-3.1c-1-1-2.08-2.11-3.14-3.14-.73-.7-1-1.42-.28-2.25.24-.28.54-.52.8-.77l15.59-14.85L120,93.73l30.84-29.4,23.83-22.72,6.23-5.94c.9-.86,1.83-2.11,3.1-1,1.44,1.21,2.76,2.61,4.13,3.9L197,46.89l26.88,25.42L255,101.78l25.78,24.37,7.85,7.43c.95.89,2,1.75,2.88,2.72s.36,1.67-.43,2.41l-3.13,2.94-3.22,3c-.64.61-1.4,1.19-2.25.44-2.4-2.13-6,1.4-3.53,3.54a6.43,6.43,0,0,0,8.53.28c.82-.69,1.57-1.46,2.35-2.19l3.75-3.54a12.13,12.13,0,0,0,2.6-2.85,6.48,6.48,0,0,0-1.38-7.83L293.2,131l-18.15-17.16L245.56,86l-31-29.33-22.15-21c-1.57-1.48-3.13-3-4.7-4.45a6.64,6.64,0,0,0-6.52-1.8,7.88,7.88,0,0,0-3.12,2L162.88,45.94,134.65,72.85l-31.2,29.75-24.2,23.06-6.16,5.88c-.36.34-.73.67-1.07,1a6.48,6.48,0,0,0-1.94,4.84,7.17,7.17,0,0,0,2.46,4.79c2.07,2.07,4.12,4.18,6.22,6.21a6.44,6.44,0,0,0,9.14,0c1.46-1.39,2.89-2.83,4.33-4.24L114.92,122l30.73-30.12L172.13,65.9l7.77-7.62c.95-.93,2.54-3.24,4-2.14a42.16,42.16,0,0,1,3.65,3.55l9,8.73,27.76,27,30.63,29.82,21,20.46,3,2.94C281.24,150.9,284.78,147.37,282.47,145.12Z" style="fill:#3b3b3c" id="path120"></path><rect x="163.8" y="154.84" width="39.44" height="73.3" rx="3.96" style="fill:#a7a9ac" id="rect122"></rect><path d="M199.27,225.64h-21.6c-3.19,0-6.39,0-9.58,0-1.88,0-1.79-1.47-1.79-2.92V163c0-1.4-.12-2.85,0-4.24.1-1.18,1-1.46,2-1.46h29.34a5.85,5.85,0,0,1,2.26.14c.77.38.81,1.08.81,1.84v47c0,5.84.05,11.68,0,17.52,0,.95-.42,1.74-1.46,1.78-3.2.14-3.22,5.14,0,5a6.59,6.59,0,0,0,6.46-6.51c0-.52,0-1,0-1.58V161.38c0-2.86.08-5.66-2.5-7.66s-6.59-1.38-9.65-1.38H168.32a6.73,6.73,0,0,0-7,7v60.42c0,1.45-.05,2.92,0,4.37a6.59,6.59,0,0,0,6.54,6.46c1,0,1.92,0,2.88,0h28.55C202.49,230.64,202.5,225.64,199.27,225.64Z" style="fill:#3b3b3c" id="path124"></path><rect x="223.77" y="162.07" width="24.83" height="41.42" rx="3.96" style="fill:#0581a5;fill-opacity:1" id="rect126"></rect><path d="M244.63,201H232.9c-1.67,0-3.36.07-5,0-1.18,0-1.6-.81-1.6-1.89-.05-8.7,0-17.4,0-26.1v-5.31c0-.79-.19-2,.31-2.57.69-.87,2.49-.54,3.51-.54h13.73c1.17,0,2.17.15,2.27,1.53.22,3.06,0,6.22,0,9.28v15.46c0,2.85.23,5.81,0,8.66a1.48,1.48,0,0,1-1.46,1.48c-3.21.14-3.22,5.14,0,5a6.6,6.6,0,0,0,6.46-6.68c0-1.29,0-2.59,0-3.89V166.87a7,7,0,0,0-2.76-6.12c-1.89-1.35-4.07-1.18-6.25-1.18-4.67,0-9.35,0-14,0a6.59,6.59,0,0,0-6.79,6.46c0,.92,0,1.84,0,2.76v29a10.53,10.53,0,0,0,.55,4.35c1.28,2.94,4.07,3.88,7,3.88h15.79C247.85,206,247.85,201,244.63,201Z" style="fill:#3b3b3c" id="path128"></path><circle cx="182.97" cy="114.34" r="16.45" style="fill:#f47e2b" id="circle130"></circle><path d="M196.92,114.34a13.94,13.94,0,1,1-11.38-13.72,14.07,14.07,0,0,1,11.38,13.72c0,3.21,5,3.22,5,0a18.95,18.95,0,1,0-15.21,18.57,19.2,19.2,0,0,0,15.21-18.57C202,111.12,197,111.12,196.92,114.34Z" style="fill:#3b3b3c" id="path132"></path><path d="M191,186.39V199.6a2.5,2.5,0,0,0,5,0V186.39a2.5,2.5,0,0,0-5,0Z" style="fill:#3b3b3c" id="path134"></path></g></g></svg>