<svg xmlns="http://www.w3.org/2000/svg" viewBox="0 0 257.59 132.44"><g id="Layer_2" data-name="Layer 2"><g id="Layer_2-2" data-name="Layer 2"><rect x="154.15" y="39.96" width="14.89" height="63.88" rx="1.56" style="fill:#808285"></rect><path d="M167.49,101.34h-7.73a25.5,25.5,0,0,0-3.81,0c-.87.15,1.26.38.7.94,0,0,0-.17,0-.22a16.85,16.85,0,0,0,0-3.62V42.68a3.26,3.26,0,0,0,0-1.08c-.25-.54-.13,1.67-.94.86.08.08.65,0,.76,0h9.31a10.59,10.59,0,0,0,1.38,0c.07,0,.26,0,.31,0s-1.36-.45-.93-.93c-.08.09,0,.62,0,.74V90.09c0,3.89-.21,7.84,0,11.72.06,1.1-.1-.36,1-.47a2.57,2.57,0,0,0-2.5,2.5,2.51,2.51,0,0,0,2.5,2.5,4.17,4.17,0,0,0,4-4.16c0-.4,0-.81,0-1.21V75.64c0-11.25.21-22.53,0-33.78a4.41,4.41,0,0,0-1-3c-1.22-1.38-2.75-1.42-4.41-1.42h-9.66c-2.09,0-4.16.8-4.7,3.08a6.33,6.33,0,0,0-.12,1.5v59.23c0,.33,0,.66,0,1a4.14,4.14,0,0,0,4.14,4.09c3,.12,6,0,9,0h2.7C170.7,106.34,170.71,101.34,167.49,101.34Z" style="fill:#3b3b3c"></path><path d="M250.1,73.81V87.16c0,9.21-4.92,16.68-11,16.68H168.8V22.29a7.2,7.2,0,0,1,2.11-.32h51.58C227,22,250.1,67.24,250.1,73.81Z" style="fill:#e6e7e8"></path><path d="M247.6,73.81V83.92c0,4.53-.07,9-2.44,13.08a8.28,8.28,0,0,1-5.23,4.28,2.44,2.44,0,0,1-.53.06H173.82c-1.58,0-3.23-.14-4.81,0h-.21l2.5,2.5V22.29l-1.84,2.41c1.84-.5,4-.23,5.89-.23H215c2.38,0,4.77.08,7.15,0a1,1,0,0,0,.35,0c.27-.09-.79-.14-.45-.06s-.37-.13-.36-.16.45.28.48.29c-.19-.06-.51-.45-.21-.15l.24.22c.21.19.41.4.61.62s.38.43.57.66l.35.43c.39.47-.17-.24.06.07,5.54,7.44,9.86,15.88,14,24.14,2.26,4.48,4.44,9,6.43,13.62.1.24.2.47.31.71l.16.39s-.15-.37,0-.11c.19.48.39,1,.58,1.42.35.86.69,1.72,1,2.59a29.55,29.55,0,0,1,1.24,4c0,.18.17,1,.1.42s0,.11,0,.26c0,3.22,5,3.23,5,0,0-2.85-1.41-5.81-2.45-8.39-1.86-4.62-4-9.13-6.13-13.6-4.37-9-9-18-14.66-26.2-1.45-2.1-3.35-5.29-6-6a6.76,6.76,0,0,0-1.85-.12H190.88c-6.61,0-13.23-.07-19.84,0a12,12,0,0,0-2.91.41,2.56,2.56,0,0,0-1.83,2.41v81.55a2.53,2.53,0,0,0,2.5,2.5h69.41a11.78,11.78,0,0,0,8.68-3.45c4.28-4.25,5.71-10.56,5.71-16.4V73.81C252.6,70.59,247.6,70.59,247.6,73.81Z" style="fill:#3b3b3c"></path><line x1="197.61" y1="75.14" x2="205.61" y2="75.14" style="fill:#e6e7e8"></line><path d="M197.61,77.64h8a2.5,2.5,0,0,0,0-5h-8a2.5,2.5,0,0,0,0,5Z" style="fill:#3b3b3c"></path><rect x="2.5" y="91.69" width="154.13" height="12" style="fill:#e6e7e8"></rect><path d="M5,103.69v-12l-2.5,2.5H150.4c2,0,4,.13,6,0h.26l-2.5-2.5v12l2.5-2.5H21.51c-6.24,0-12.51-.18-18.75,0H2.5c-3.22,0-3.22,5,0,5H137.62c6.24,0,12.51.18,18.75,0h.26a2.54,2.54,0,0,0,2.5-2.5v-12a2.53,2.53,0,0,0-2.5-2.5H21.51c-6.24,0-12.51-.18-18.75,0H2.5A2.54,2.54,0,0,0,0,91.69v12C0,106.91,5,106.91,5,103.69Z" style="fill:#3b3b3c"></path><rect x="6.47" y="2.58" width="150.16" height="89.11" style="fill:#e6e7e8"></rect><path d="M9,91.69V6.21c0-1.14.11-2.34,0-3.48V2.58l-2.5,2.5H150.52c1.93,0,3.92.13,5.85,0h.26l-2.5-2.5V88.06c0,1.14-.1,2.34,0,3.47v.16l2.5-2.5H24.87c-6,0-12.1-.18-18.13,0H6.47c-3.21,0-3.22,5,0,5H138.23c6,0,12.1.18,18.14,0h.26a2.54,2.54,0,0,0,2.5-2.5V13.59c0-3.61.14-7.25,0-10.86V2.58a2.53,2.53,0,0,0-2.5-2.5H24.87c-6,0-12.1-.18-18.13,0H6.47A2.53,2.53,0,0,0,4,2.58v78.1c0,3.61-.14,7.25,0,10.85a.85.85,0,0,1,0,.16C4,94.91,9,94.91,9,91.69Z" style="fill:#3b3b3c"></path><circle cx="44.6" cy="107.15" r="22.24" style="fill:#e6e7e8"></circle><path d="M64.33,107.15a19.73,19.73,0,1,1-16-19.38,19.9,19.9,0,0,1,16,19.38c0,3.22,5,3.23,5,0a24.73,24.73,0,0,0-43.75-15.8,24.73,24.73,0,0,0,24,40C61,129.16,69.25,118.7,69.33,107.15,69.36,103.93,64.36,103.93,64.33,107.15Z" style="fill:#3b3b3c"></path><circle cx="44.6" cy="107.15" r="12.13" style="fill:#f47e2b"></circle><path d="M54.23,107.15a9.63,9.63,0,1,1-8-9.49,9.73,9.73,0,0,1,8,9.49c0,3.22,5,3.23,5,0a14.85,14.85,0,0,0-9.62-13.73A14.63,14.63,0,0,0,32,114.63a14.64,14.64,0,0,0,27.21-7.48C59.27,103.93,54.27,103.93,54.23,107.15Z" style="fill:#3b3b3c"></path><path d="M234,64.7H203.16a1.55,1.55,0,0,1-1.55-1.56v-28a1.55,1.55,0,0,1,1.55-1.55h16.09a1.57,1.57,0,0,1,1.31.71,186.68,186.68,0,0,1,14.87,28.25A1.56,1.56,0,0,1,234,64.7Z" style="fill:#0fadd0"></path><path d="M234,62.2H204.7c-.39,0-.81,0-1.2,0-.07,0-.21,0-.27,0s0,0-.06,0c.41-.37,1.05.83.94.94.19-.19,0-1.61,0-1.87v-23a11.21,11.21,0,0,0,0-3c-.19-.57-.32,1.13-.9.76.21.14.94,0,1.19,0h14c.12,0,.77.08.85,0-.23.25-.77-.67-.71-.31a1.73,1.73,0,0,0,.24.38l.69,1.1q.92,1.45,1.8,2.94a185.06,185.06,0,0,1,9.91,18.73c.41.91.82,1.83,1.21,2.75.14.34.29,1.12.55,1.32.95.77-.12.14.11.17l.14-.35a.71.71,0,0,1,.8-.62,2.57,2.57,0,0,0-2.5,2.5,2.51,2.51,0,0,0,2.5,2.5c2.25-.23,4.12-1.77,4-4.18a9.28,9.28,0,0,0-1-3.14c-.46-1.09-.93-2.18-1.42-3.26-1.74-3.87-3.66-7.66-5.69-11.39q-2.39-4.38-5-8.65c-1.29-2.12-2.59-5.21-5.37-5.46-3.43-.31-7,0-10.45,0h-5.38c-2.49,0-4.5,1.45-4.62,4.1-.14,2.89,0,5.81,0,8.7v13.8c0,2.94-.87,7.76,2.48,9.17a7.89,7.89,0,0,0,3.17.34H234C237.21,67.2,237.22,62.2,234,62.2Z" style="fill:#3b3b3c"></path><rect x="178.05" y="33.59" width="14.89" height="31.11" rx="1.56" style="fill:#0fadd0"></rect><path d="M191.38,62.2H180.5a3.64,3.64,0,0,0-.66,0c-.34.08-.22-.2.1.14.18.19.74.52.61.76,0-.06,0-.18,0-.24a8.85,8.85,0,0,0,0-1V37.08a5.71,5.71,0,0,0,0-1.89c.4.73-1.48.77-.71.9a10.1,10.1,0,0,0,1.65,0h5.6a26.2,26.2,0,0,0,4.06,0c.77-.13-1.11-.17-.71-.9-.08.14,0,.52,0,.67V61.47c0,.41,0,.85,0,1.27.09,1,0-.44.94-.54a2.57,2.57,0,0,0-2.5,2.5,2.51,2.51,0,0,0,2.5,2.5,4.24,4.24,0,0,0,4.06-4.46c0-1.08,0-2.16,0-3.24V36.88c0-.63,0-1.26,0-1.89a4.1,4.1,0,0,0-3.88-3.89c-.37,0-.75,0-1.12,0-3.51,0-7-.09-10.54,0a4.18,4.18,0,0,0-4.33,4.14c0,.83,0,1.67,0,2.5V60.48c0,.85,0,1.71,0,2.56a4.18,4.18,0,0,0,4.29,4.16c3.5.1,7,0,10.5,0h1C194.6,67.2,194.61,62.2,191.38,62.2Z" style="fill:#3b3b3c"></path><circle cx="207.73" cy="107.74" r="22.24" style="fill:#e6e7e8"></circle><path d="M227.47,107.74a19.73,19.73,0,1,1-16-19.38,19.91,19.91,0,0,1,16,19.38c0,3.22,5,3.23,5,0A24.74,24.74,0,1,0,212.67,132c11.45-2.23,19.71-12.69,19.8-24.24C232.49,104.53,227.49,104.52,227.47,107.74Z" style="fill:#3b3b3c"></path><circle cx="207.73" cy="107.74" r="12.13" style="fill:#f47e2b"></circle><path d="M217.36,107.74a9.63,9.63,0,1,1-8-9.49,9.72,9.72,0,0,1,8,9.49c0,3.22,5,3.23,5,0A14.86,14.86,0,0,0,212.74,94a14.63,14.63,0,0,0-17.59,21.21,14.64,14.64,0,0,0,27.21-7.48C222.4,104.53,217.4,104.52,217.36,107.74Z" style="fill:#3b3b3c"></path><rect x="236.72" y="90.84" width="18.37" height="14.89" rx="1.56" style="fill:#e6e7e8"></rect><path d="M252.59,92.39v9.25a18.58,18.58,0,0,0,0,2.36s0,.12,0,.16c-.1-.21.52-1.24.94-.93-.06,0-.29,0-.36,0-.8,0-1.61,0-2.41,0h-11c-.29,0-1.23-.17-1.47,0,.26-.18,1.23.62.94.94,0,0,0-.07,0-.09a4.22,4.22,0,0,0,0-.87V93c0-.11.06-.46,0-.56.11.17-.19.62-.4.76-.85.59-.68.11-.44.17a8.17,8.17,0,0,0,1.85,0h12.05c.34,0,.69,0,1,0,.05,0,.15,0,.2,0-.48.2-.89-.58-.92-1a2.56,2.56,0,0,0,2.5,2.5,2.51,2.51,0,0,0,2.5-2.5,4.18,4.18,0,0,0-4.28-4c-.85,0-1.7,0-2.55,0h-8.64c-2.13,0-5.06-.47-6.71,1.19a5,5,0,0,0-1.19,3.82v3.76c0,2.3-.07,4.62,0,6.93a4.15,4.15,0,0,0,4.08,4.19c.64,0,1.29,0,1.93,0h11.94a10.2,10.2,0,0,0,2.28-.11c2.19-.51,3.14-2.46,3.14-4.53V92.39C257.59,89.18,252.59,89.17,252.59,92.39Z" style="fill:#3b3b3c"></path></g></g></svg>