<svg xmlns:inkscape="http://www.inkscape.org/namespaces/inkscape" xmlns:sodipodi="http://sodipodi.sourceforge.net/DTD/sodipodi-0.dtd" xmlns="http://www.w3.org/2000/svg" xmlns:svg="http://www.w3.org/2000/svg" viewBox="0 0 374.12 320.31" id="svg414" sodipodi:docname="Condo.svg" inkscape:version="1.1.1 (c3084ef, 2021-09-22)"><defs id="defs418"></defs><g id="Layer_2" data-name="Layer 2"><g id="Layer_31" data-name="Layer 31"><rect x="206.08" y="120.59" width="106.61" height="195.5" rx="3.96" style="fill:#e6e7e8" id="rect234"></rect><path d="M308.74,313.6H211.27a4.77,4.77,0,0,1-1.87-.15c-1.17-.59-.82-2.62-.82-3.76V139.92c0-5,0-10,0-15,0-1.9,1.53-1.81,3-1.81h96a3.4,3.4,0,0,1,2.09.32,1.85,1.85,0,0,1,.54,1.66v185c0,1.32.35,3.41-1.46,3.49-3.21.13-3.22,5.13,0,5A6.61,6.61,0,0,0,315.2,312c0-.5,0-1,0-1.5V129.93c0-1.68,0-3.35,0-5a6.74,6.74,0,0,0-2.76-5.62,7.52,7.52,0,0,0-4.58-1.19H211.43a20.16,20.16,0,0,0-2.06.06,6.55,6.55,0,0,0-5.79,6.58c0,1.5,0,3,0,4.5V310.05c0,3,.19,5.88,3.16,7.64,2.25,1.33,5.45.91,8,.91h94C312,318.6,312,313.6,308.74,313.6Z" style="fill:#3b3b3c" id="path236"></path><rect x="45.22" y="120.59" width="106.61" height="195.5" rx="3.96" style="fill:#e6e7e8" id="rect238"></rect><path d="M147.87,313.6H50.4a4.8,4.8,0,0,1-1.87-.15c-1.17-.59-.81-2.62-.81-3.76V139.92c0-5,0-10,0-15,0-1.9,1.53-1.81,3-1.81h96a3.38,3.38,0,0,1,2.08.32c.56.44.54,1,.54,1.66v185c0,1.32.35,3.41-1.46,3.49-3.2.13-3.22,5.13,0,5a6.6,6.6,0,0,0,6.46-6.61c0-.5,0-1,0-1.5V129.93c0-1.68,0-3.35,0-5a6.7,6.7,0,0,0-2.75-5.62,7.55,7.55,0,0,0-4.59-1.19H50.56a20.25,20.25,0,0,0-2.06.06,6.54,6.54,0,0,0-5.78,6.58c0,1.5,0,3,0,4.5V310.05c0,3,.19,5.88,3.15,7.64,2.25,1.33,5.46.91,8,.91h94C151.09,318.6,151.09,313.6,147.87,313.6Z" style="fill:#3b3b3c" id="path240"></path><rect x="115.55" y="23.84" width="126.45" height="293.96" rx="3.96" style="fill:#e6e7e8" id="rect242"></rect><path d="M238,315.3H121.38c-.88,0-2.37.24-3-.51-.79-1-.33-3.51-.33-4.61V28.4c0-1,.2-1.94,1.46-2.06.83-.08,1.7,0,2.52,0H236.28c1,0,2.62-.28,3.1.89a4.11,4.11,0,0,1,.11,1.49V310.84c0,1.36.53,4.36-1.46,4.46-3.2.16-3.22,5.16,0,5a6.64,6.64,0,0,0,6.46-6.81c0-.73,0-1.46,0-2.2V28.44a7.08,7.08,0,0,0-1.89-5.21c-1.72-1.72-3.86-1.89-6.09-1.89H121.76a20.44,20.44,0,0,0-3.32.11,6.6,6.6,0,0,0-5.39,6.74c0,2.15,0,4.29,0,6.44V310.71c0,3.11-.26,6.2,2.68,8.34,1.69,1.24,3.51,1.25,5.45,1.25H238C241.25,320.3,241.26,315.3,238,315.3Z" style="fill:#3b3b3c" id="path244"></path><rect x="126.18" y="2.57" width="105.19" height="21.27" rx="3.86" style="fill:#a7a9ac" id="rect246"></rect><path d="M227.51,21.34h-95.9c-.49,0-1,0-1.49,0-1.23-.09-1.44-.88-1.44-2v-7.1c0-1.88-.15-3.83,0-5.71a1.41,1.41,0,0,1,1.61-1.43c.61,0,1.23,0,1.84,0h92.51c1.12,0,3.26-.33,3.93.5a2.28,2.28,0,0,1,.3,1.53V18c0,1.39.32,3.31-1.36,3.39-3.21.13-3.23,5.13,0,5a6.57,6.57,0,0,0,6.36-6.92V12.21c0-1.91.07-3.84,0-5.76A6.49,6.49,0,0,0,227.45.07c-5.15-.16-10.34,0-15.5,0H147.33C141.65.07,136,0,130.28.07a6.52,6.52,0,0,0-5.93,3.52c-.95,2-.67,4.37-.67,6.5v8c0,.61,0,1.22,0,1.83a6.55,6.55,0,0,0,3,5.4c1.89,1.21,4.2,1,6.34,1h94.52C230.72,26.34,230.73,21.34,227.51,21.34Z" style="fill:#3b3b3c" id="path248"></path><path d="M65.3,258.44c0,16.36-14.06,29.63-31.4,29.63S2.5,274.8,2.5,258.44a29.08,29.08,0,0,1,12.29-23.52,23,23,0,1,1,38.22,0A29.08,29.08,0,0,1,65.3,258.44Z" style="fill:#808285" id="path250"></path><path d="M62.8,258.44c-.09,15.05-13.14,26.64-27.82,27.11a30,30,0,0,1-20.3-6.84,26.1,26.1,0,0,1,1.37-41.63,2.56,2.56,0,0,0,.9-3.42,20.51,20.51,0,0,1,7.9-30c10.31-5.18,22.95-.32,27.75,10a20.7,20.7,0,0,1-1.75,20,2.56,2.56,0,0,0,.9,3.42,26.91,26.91,0,0,1,11,21.36c0,3.21,5,3.22,5,0a32.19,32.19,0,0,0-13.53-25.68l.9,3.42a25.51,25.51,0,0,0-30.12-38,25.51,25.51,0,0,0-12.42,38l.9-3.42A32.18,32.18,0,0,0,0,257.26,31.41,31.41,0,0,0,8.78,280c12.3,12.91,33.31,13.88,47.11,2.86A31.71,31.71,0,0,0,67.8,258.44C67.82,255.22,62.82,255.22,62.8,258.44Z" style="fill:#3b3b3c" id="path252"></path><path d="M31.4,222v81.41c0,3.74-.15,7.52,0,11.25v.16c0,3.22,5,3.23,5,0V233.36c0-3.74.15-7.52,0-11.25V222c0-3.22-5-3.23-5,0Z" style="fill:#3b3b3c" id="path254"></path><path d="M44.63,254.8,33.34,270.23l-1.6,2.19a2.52,2.52,0,0,0,.9,3.42,2.56,2.56,0,0,0,3.42-.9l11.29-15.43,1.6-2.19a2.51,2.51,0,0,0-.9-3.42,2.56,2.56,0,0,0-3.42.9Z" style="fill:#3b3b3c" id="path256"></path><path d="M21.91,235.82l8.6,13.25L31.74,251a2.5,2.5,0,1,0,4.32-2.52l-8.61-13.25-1.22-1.88a2.5,2.5,0,0,0-4.32,2.52Z" style="fill:#3b3b3c" id="path258"></path><path d="M371.62,241.11c0,20.39-17.52,36.91-39.11,36.91S293.4,261.5,293.4,241.11a36.21,36.21,0,0,1,15.3-29.29,28.66,28.66,0,1,1,47.61,0A36.2,36.2,0,0,1,371.62,241.11Z" style="fill:#808285" id="path260"></path><path d="M369.12,241.11a33.67,33.67,0,0,1-10.37,24A37.65,37.65,0,0,1,334,275.49a38,38,0,0,1-25.87-8.74A33.12,33.12,0,0,1,310,214a2.54,2.54,0,0,0,.9-3.42,26.17,26.17,0,1,1,43.29,0,2.56,2.56,0,0,0,.9,3.42,34.08,34.08,0,0,1,14.07,27.13c0,3.22,5,3.22,5,0-.07-12.63-6.45-24-16.55-31.45l.9,3.42a31.15,31.15,0,1,0-51.93,0l.9-3.42c-9.63,7.07-16,17.84-16.51,29.88a38.51,38.51,0,0,0,10.88,28.18,42.83,42.83,0,0,0,27.83,12.7,43.35,43.35,0,0,0,29.95-9.4,38.87,38.87,0,0,0,14.53-29.91C374.13,237.89,369.13,237.89,369.12,241.11Z" style="fill:#3b3b3c" id="path262"></path><path d="M330,195.66V297.07c0,4.66-.16,9.35,0,14v.2c0,3.22,5,3.23,5,0V209.87c0-4.66.16-9.35,0-14v-.2c0-3.22-5-3.23-5,0Z" style="fill:#3b3b3c" id="path264"></path><path d="M346.41,236.89,332.35,256.1l-2,2.73a2.52,2.52,0,0,0,.9,3.42,2.56,2.56,0,0,0,3.42-.89l14.06-19.22,2-2.73a2.52,2.52,0,0,0-.9-3.42,2.55,2.55,0,0,0-3.42.9Z" style="fill:#3b3b3c" id="path266"></path><path d="M318.11,212.63l10.71,16.5,1.53,2.35a2.55,2.55,0,0,0,3.42.89,2.52,2.52,0,0,0,.9-3.42L324,212.45l-1.53-2.35a2.5,2.5,0,1,0-4.31,2.53Z" style="fill:#3b3b3c" id="path268"></path><rect x="130.56" y="51.64" width="16.34" height="17.92" rx="3.96" style="fill:#0581a5;fill-opacity:1" id="rect270"></rect><path d="M142.94,67.07h-8.42c-.46,0-.21,0-.07,0-.09,0-.71-.2-.31,0a2.65,2.65,0,0,1-.52-.29c-.35-.22.37.38-.13-.12-.05-.06-.3-.36-.06,0a4.27,4.27,0,0,1-.3-.51c-.13-.29,0,.42,0-.18,0-.08-.06-.49,0-.06,0-.09,0-.22,0-.32,0-.59,0-1.18,0-1.77V57.44c0-.59,0-1.18,0-1.77,0-.1,0-.23,0-.31,0,.42,0,0,0-.07,0-.59-.1.11,0-.18a5.24,5.24,0,0,1,.3-.51c-.07.1-.26.3.06,0s.13-.13,0-.06a3.42,3.42,0,0,1,.62-.35c-.41.17.09,0,.19,0,.4-.09-.53,0,.19,0h3.77c1.54,0,3.1.06,4.65,0,.81,0-.48,0,.31,0,.06,0,.48.14.08,0,.15.06.27.15.41.22.64.34-.19-.14.15.11.09.07.4.46.14.11.09.13.17.27.25.41.25.43.05.15,0,.05,0,.12.12.72.09.3,0,.47,0,1,0,1.43v7c0,.6,0,1.21,0,1.82v.14c0,.19,0,.17,0,0a2,2,0,0,1-.09.35c-.09.39.29-.41-.05.18-.06.09-.45.6-.15.26a2.57,2.57,0,0,1-.33.33c.34-.3-.17.09-.26.14-.59.35.21,0-.18.06a2,2,0,0,1-.35.09c.26,0,.24,0-.07,0a2.5,2.5,0,0,0,0,5,6.63,6.63,0,0,0,6.46-6.93V58.52c0-2.19.23-4.51-1.05-6.44a6.65,6.65,0,0,0-5.43-2.94h-2.06c-2.07,0-4.14,0-6.22,0a6.59,6.59,0,0,0-6.58,6.59c0,2,0,4,0,5.94s-.3,4.22.36,6a6.55,6.55,0,0,0,5.85,4.36c.78,0,1.56,0,2.33,0h6.34a2.5,2.5,0,0,0,0-5Z" style="fill:#3b3b3c" id="path272"></path><rect x="158.02" y="51.64" width="16.34" height="17.92" rx="3.96" style="fill:#a7a9ac;fill-opacity:1" id="rect274"></rect><path d="M170.4,67.07H162c-.46,0-.21,0-.07,0-.09,0-.72-.2-.32,0a2.58,2.58,0,0,1-.51-.29c-.35-.22.37.38-.13-.12-.06-.06-.3-.36-.06,0a2.62,2.62,0,0,1-.3-.51c-.13-.29,0,.42,0-.18,0-.08-.05-.49,0-.06,0-.09,0-.22,0-.32,0-.59,0-1.18,0-1.77V57.44c0-.59,0-1.18,0-1.77a3,3,0,0,1,0-.31c0,.42,0,0,0-.07,0-.59-.09.11,0-.18a3,3,0,0,1,.3-.51c-.07.1-.27.3.06,0s.13-.13,0-.06a3.33,3.33,0,0,1,.61-.35c-.41.17.1,0,.2,0,.4-.09-.53,0,.19,0h3.77c1.54,0,3.1.06,4.65,0,.81,0-.48,0,.31,0,0,0,.47.14.07,0,.15.06.28.15.42.22.64.34-.19-.14.14.11.09.07.4.46.15.11a3.38,3.38,0,0,1,.24.41c.26.43.06.15,0,.05,0,.12.11.72.09.3,0,.47,0,1,0,1.43v7c0,.6,0,1.21,0,1.82,0,0,0,.12,0,.14,0,.19,0,.17,0,0a2,2,0,0,1-.09.35c-.09.39.29-.41-.06.18,0,.09-.44.6-.14.26a3.43,3.43,0,0,1-.33.33c.34-.3-.17.09-.26.14-.59.35.21,0-.18.06a2,2,0,0,1-.35.09c.26,0,.24,0-.07,0a2.5,2.5,0,0,0,0,5,6.63,6.63,0,0,0,6.46-6.93V58.52c0-2.19.23-4.51-1.05-6.44a6.65,6.65,0,0,0-5.43-2.94h-2.06c-2.07,0-4.15,0-6.22,0a6.59,6.59,0,0,0-6.58,6.59c0,2,0,4,0,5.94s-.3,4.22.36,6a6.55,6.55,0,0,0,5.85,4.36c.77,0,1.56,0,2.33,0h6.34a2.5,2.5,0,0,0,0-5Z" style="fill:#3b3b3c" id="path276"></path><rect x="185.14" y="51.64" width="16.34" height="17.92" rx="3.96" style="fill:#0581a5;fill-opacity:1" id="rect278"></rect><path d="M197.51,67.07H189.1c-.47,0-.22,0-.07,0-.09,0-.72-.2-.32,0a2.58,2.58,0,0,1-.51-.29c-.35-.22.37.38-.13-.12-.06-.06-.3-.36-.06,0a2.62,2.62,0,0,1-.3-.51c-.14-.29,0,.42,0-.18,0-.08,0-.49,0-.06,0-.09,0-.22,0-.32,0-.59,0-1.18,0-1.77V57.44c0-.59,0-1.18,0-1.77a3,3,0,0,1,0-.31c0,.42,0,0,0-.07,0-.59-.1.11,0-.18a3,3,0,0,1,.3-.51c-.07.1-.27.3.06,0s.13-.13,0-.06a3.33,3.33,0,0,1,.61-.35c-.41.17.09,0,.2,0,.39-.09-.54,0,.19,0h3.76c1.55,0,3.11.06,4.65,0,.82,0-.47,0,.31,0,.06,0,.48.14.08,0,.15.06.28.15.42.22.64.34-.19-.14.14.11.09.07.4.46.15.11.09.13.16.27.24.41.26.43.06.15,0,.05,0,.12.11.72.09.3,0,.47,0,1,0,1.43v7c0,.6,0,1.21,0,1.82a.65.65,0,0,1,0,.14c0,.19,0,.17,0,0a3.58,3.58,0,0,1-.09.35c-.09.39.29-.41-.06.18,0,.09-.44.6-.14.26q-.17.18-.33.33c.33-.3-.17.09-.27.14-.59.35.22,0-.17.06a2.25,2.25,0,0,1-.35.09c.26,0,.23,0-.08,0a2.5,2.5,0,0,0,0,5A6.62,6.62,0,0,0,204,65.14V58.52c0-2.19.24-4.51-1.05-6.44a6.62,6.62,0,0,0-5.43-2.94h-2.05c-2.07,0-4.15,0-6.22,0a6.59,6.59,0,0,0-6.58,6.59c0,2,0,4,0,5.94s-.3,4.22.36,6a6.54,6.54,0,0,0,5.85,4.36c.77,0,1.55,0,2.33,0h6.33a2.5,2.5,0,0,0,0-5Z" style="fill:#3b3b3c" id="path280"></path><rect x="212.43" y="51.64" width="16.34" height="17.92" rx="3.96" style="fill:#0581a5;fill-opacity:1" id="rect282"></rect><path d="M224.8,67.07h-8.41c-.47,0-.22,0-.08,0-.09,0-.71-.2-.31,0a3,3,0,0,1-.52-.29c-.34-.22.38.38-.13-.12,0-.06-.29-.36,0,0a2.62,2.62,0,0,1-.3-.51c-.14-.29,0,.42,0-.18,0-.08-.05-.49,0-.06,0-.09,0-.22,0-.32,0-.59,0-1.18,0-1.77V57.44c0-.59,0-1.18,0-1.77,0-.1,0-.23,0-.31,0,.42,0,0,0-.07,0-.59-.1.11,0-.18a3,3,0,0,1,.3-.51c-.08.1-.27.3,0,0s.13-.13,0-.06a3.33,3.33,0,0,1,.61-.35c-.41.17.09,0,.2,0,.39-.09-.54,0,.19,0h3.76c1.55,0,3.11.06,4.65,0,.81,0-.47,0,.31,0,.06,0,.48.14.08,0,.15.06.28.15.42.22.64.34-.19-.14.14.11.09.07.4.46.14.11a3.45,3.45,0,0,1,.25.41c.25.43.05.15,0,.05,0,.12.12.72.09.3,0,.47,0,1,0,1.43v7c0,.6,0,1.21,0,1.82v.14c0,.19,0,.17,0,0a3.59,3.59,0,0,1-.08.35c-.1.39.28-.41-.06.18-.06.09-.45.6-.14.26a3.51,3.51,0,0,1-.34.33c.34-.3-.16.09-.26.14-.59.35.21,0-.17.06a2.25,2.25,0,0,1-.35.09c.26,0,.23,0-.08,0a2.5,2.5,0,0,0,0,5,6.63,6.63,0,0,0,6.46-6.93V58.52c0-2.19.24-4.51-1-6.44a6.65,6.65,0,0,0-5.43-2.94h-2.05c-2.08,0-4.15,0-6.22,0a6.58,6.58,0,0,0-6.58,6.59c0,2,0,4,0,5.94s-.3,4.22.35,6a6.55,6.55,0,0,0,5.86,4.36c.77,0,1.55,0,2.32,0h6.34a2.5,2.5,0,0,0,0-5Z" style="fill:#3b3b3c" id="path284"></path><rect x="130.56" y="93.93" width="16.34" height="17.92" rx="3.96" style="fill:#0581a5;fill-opacity:1" id="rect286"></rect><path d="M142.94,109.36h-7.56c-.25,0-.51,0-.76,0h-.1c-.46,0-.21,0-.07,0-.09,0-.71-.2-.31,0a2.65,2.65,0,0,1-.52-.29c-.35-.22.37.38-.13-.12-.05-.06-.3-.36-.06,0a4.27,4.27,0,0,1-.3-.51c-.13-.29,0,.42,0-.18,0-.08-.06-.49,0-.06,0-.09,0-.22,0-.32,0-.59,0-1.18,0-1.77V99.73c0-.59,0-1.18,0-1.77,0-.1,0-.23,0-.32,0,.43,0,0,0-.06,0-.59-.1.11,0-.18a4.27,4.27,0,0,1,.3-.51c-.07.1-.26.3.06,0s.13-.13,0-.06a3.42,3.42,0,0,1,.62-.35c-.41.17.09,0,.19,0,.4-.09-.53,0,.19,0h3.77c1.54,0,3.1.06,4.65,0,.81,0-.48,0,.31,0,.06,0,.48.14.08,0,.15.06.27.15.41.22.64.34-.19-.14.15.11.09.07.4.46.14.11.09.13.17.27.25.4.25.44.05.16,0,.06,0,.12.12.72.09.29,0,.48,0,1,0,1.44v7c0,.6,0,1.21,0,1.82V108c0,.19,0,.17,0,0a2,2,0,0,1-.09.35c-.09.39.29-.41-.05.18-.06.09-.45.6-.15.26a3.43,3.43,0,0,1-.33.33c.34-.3-.17.09-.26.14-.59.35.21,0-.18.06a2,2,0,0,1-.35.09c.26,0,.24,0-.07,0a2.5,2.5,0,0,0,0,5,6.63,6.63,0,0,0,6.46-6.93v-6.62c0-2.19.23-4.51-1.05-6.44a6.65,6.65,0,0,0-5.43-2.94c-.69,0-1.37,0-2.06,0-2.07,0-4.14,0-6.22,0A6.59,6.59,0,0,0,128.06,98c0,2,0,4,0,5.94s-.3,4.22.36,6a6.58,6.58,0,0,0,5.85,4.36c.78,0,1.56,0,2.33,0h6.34a2.5,2.5,0,0,0,0-5Z" style="fill:#3b3b3c" id="path288"></path><rect x="158.02" y="93.93" width="16.34" height="17.92" rx="3.96" style="fill:#0581a5;fill-opacity:1" id="rect290"></rect><path d="M170.4,109.36h-7.57c-.25,0-.5,0-.75,0H162c-.46,0-.21,0-.07,0-.09,0-.72-.2-.32,0a2.58,2.58,0,0,1-.51-.29c-.35-.22.37.38-.13-.12-.06-.06-.3-.36-.06,0a2.62,2.62,0,0,1-.3-.51c-.13-.29,0,.42,0-.18,0-.08-.05-.49,0-.06,0-.09,0-.22,0-.32,0-.59,0-1.18,0-1.77V99.73c0-.59,0-1.18,0-1.77,0-.1,0-.23,0-.32,0,.43,0,0,0-.06,0-.59-.09.11,0-.18a2.62,2.62,0,0,1,.3-.51c-.07.1-.27.3.06,0s.13-.13,0-.06a3.33,3.33,0,0,1,.61-.35c-.41.17.1,0,.2,0,.4-.09-.53,0,.19,0h3.77c1.54,0,3.1.06,4.65,0,.81,0-.48,0,.31,0,0,0,.47.14.07,0,.15.06.28.15.42.22.64.34-.19-.14.14.11.09.07.4.46.15.11a4.23,4.23,0,0,1,.24.4c.26.44.06.16,0,.06,0,.12.11.72.09.29,0,.48,0,1,0,1.44v7c0,.6,0,1.21,0,1.82,0,0,0,.12,0,.14,0,.19,0,.17,0,0a2,2,0,0,1-.09.35c-.09.39.29-.41-.06.18,0,.09-.44.6-.14.26-.1.11-.22.23-.33.33.34-.3-.17.09-.26.14-.59.35.21,0-.18.06a2,2,0,0,1-.35.09c.26,0,.24,0-.07,0a2.5,2.5,0,0,0,0,5,6.63,6.63,0,0,0,6.46-6.93v-6.62c0-2.19.23-4.51-1.05-6.44a6.65,6.65,0,0,0-5.43-2.94c-.69,0-1.38,0-2.06,0-2.07,0-4.15,0-6.22,0A6.59,6.59,0,0,0,155.52,98c0,2,0,4,0,5.94s-.3,4.22.36,6a6.58,6.58,0,0,0,5.85,4.36c.77,0,1.56,0,2.33,0h6.34a2.5,2.5,0,0,0,0-5Z" style="fill:#3b3b3c" id="path292"></path><rect x="185.14" y="93.93" width="16.34" height="17.92" rx="3.96" style="fill:#a7a9ac;fill-opacity:1" id="rect294"></rect><path d="M197.51,109.36H190c-.25,0-.5,0-.75,0h-.1c-.47,0-.22,0-.07,0-.09,0-.72-.2-.32,0a2.58,2.58,0,0,1-.51-.29c-.35-.22.37.38-.13-.12-.06-.06-.3-.36-.06,0a2.62,2.62,0,0,1-.3-.51c-.14-.29,0,.42,0-.18,0-.08,0-.49,0-.06,0-.09,0-.22,0-.32,0-.59,0-1.18,0-1.77V99.73c0-.59,0-1.18,0-1.77,0-.1,0-.23,0-.32,0,.43,0,0,0-.06,0-.59-.1.11,0-.18a2.62,2.62,0,0,1,.3-.51c-.07.1-.27.3.06,0s.13-.13,0-.06a3.33,3.33,0,0,1,.61-.35c-.41.17.09,0,.2,0,.39-.09-.54,0,.19,0h3.76c1.55,0,3.11.06,4.65,0,.82,0-.47,0,.31,0,.06,0,.48.14.08,0,.15.06.28.15.42.22.64.34-.19-.14.14.11.09.07.4.46.15.11.09.13.16.27.24.4.26.44.06.16,0,.06,0,.12.11.72.09.29,0,.48,0,1,0,1.44v7c0,.6,0,1.21,0,1.82a.65.65,0,0,1,0,.14c0,.19,0,.17,0,0a3.58,3.58,0,0,1-.09.35c-.09.39.29-.41-.06.18,0,.09-.44.6-.14.26-.11.11-.22.23-.33.33.33-.3-.17.09-.27.14-.59.35.22,0-.17.06a2.25,2.25,0,0,1-.35.09c.26,0,.23,0-.08,0a2.5,2.5,0,0,0,0,5,6.62,6.62,0,0,0,6.46-6.93v-6.62c0-2.19.24-4.51-1.05-6.44a6.62,6.62,0,0,0-5.43-2.94c-.68,0-1.37,0-2.05,0-2.07,0-4.15,0-6.22,0A6.59,6.59,0,0,0,182.64,98c0,2,0,4,0,5.94s-.3,4.22.36,6a6.57,6.57,0,0,0,5.85,4.36c.77,0,1.55,0,2.33,0h6.33a2.5,2.5,0,0,0,0-5Z" style="fill:#3b3b3c" id="path296"></path><rect x="212.43" y="93.93" width="16.34" height="17.92" rx="3.96" style="fill:#0581a5;fill-opacity:1" id="rect298"></rect><path d="M224.8,109.36h-7.56c-.25,0-.5,0-.75,0h-.1c-.47,0-.22,0-.08,0-.09,0-.71-.2-.31,0a3,3,0,0,1-.52-.29c-.34-.22.38.38-.13-.12,0-.06-.29-.36,0,0a2.62,2.62,0,0,1-.3-.51c-.14-.29,0,.42,0-.18,0-.08-.05-.49,0-.06,0-.09,0-.22,0-.32,0-.59,0-1.18,0-1.77V99.73c0-.59,0-1.18,0-1.77,0-.1,0-.23,0-.32,0,.43,0,0,0-.06,0-.59-.1.11,0-.18a2.62,2.62,0,0,1,.3-.51c-.08.1-.27.3,0,0s.13-.13,0-.06a3.33,3.33,0,0,1,.61-.35c-.41.17.09,0,.2,0,.39-.09-.54,0,.19,0h3.76c1.55,0,3.11.06,4.65,0,.81,0-.47,0,.31,0,.06,0,.48.14.08,0,.15.06.28.15.42.22.64.34-.19-.14.14.11.09.07.4.46.14.11a4.37,4.37,0,0,1,.25.4c.25.44.05.16,0,.06,0,.12.12.72.09.29,0,.48,0,1,0,1.44v7c0,.6,0,1.21,0,1.82V108c0,.19,0,.17,0,0a3.59,3.59,0,0,1-.08.35c-.1.39.28-.41-.06.18-.06.09-.45.6-.14.26-.11.11-.22.23-.34.33.34-.3-.16.09-.26.14-.59.35.21,0-.17.06a2.25,2.25,0,0,1-.35.09c.26,0,.23,0-.08,0a2.5,2.5,0,0,0,0,5,6.63,6.63,0,0,0,6.46-6.93v-6.62c0-2.19.24-4.51-1-6.44a6.65,6.65,0,0,0-5.43-2.94c-.68,0-1.37,0-2.05,0-2.08,0-4.15,0-6.22,0A6.58,6.58,0,0,0,209.93,98c0,2,0,4,0,5.94s-.3,4.22.35,6a6.58,6.58,0,0,0,5.86,4.36c.77,0,1.55,0,2.32,0h6.34a2.5,2.5,0,0,0,0-5Z" style="fill:#3b3b3c" id="path300"></path><rect x="130.56" y="136.22" width="16.34" height="17.92" rx="3.96" style="fill:#0581a5;fill-opacity:1" id="rect302"></rect><path d="M142.94,151.65h-7.56c-.25,0-.51,0-.76,0h-.1c-.46,0-.21,0-.07,0-.09,0-.71-.2-.31,0a2.65,2.65,0,0,1-.52-.29c-.35-.22.37.38-.13-.12-.05-.06-.3-.36-.06,0a4.27,4.27,0,0,1-.3-.51c-.13-.29,0,.42,0-.18,0-.08-.06-.49,0-.06,0-.09,0-.22,0-.32,0-.59,0-1.18,0-1.77V142c0-.59,0-1.18,0-1.77,0-.1,0-.23,0-.32,0,.43,0,0,0-.06,0-.6-.1.11,0-.18a4.27,4.27,0,0,1,.3-.51c-.07.1-.26.3.06,0s.13-.13,0-.06a3.42,3.42,0,0,1,.62-.35c-.41.16.09,0,.19,0,.4-.09-.53,0,.19,0h3.77c1.54,0,3.1.06,4.65,0,.81,0-.48,0,.31,0,.06,0,.48.14.08,0,.15.06.27.15.41.22.64.34-.19-.14.15.11.09.07.4.46.14.11.09.13.17.27.25.4.25.44.05.16,0,.06,0,.12.12.72.09.29,0,.48,0,1,0,1.44v7c0,.6,0,1.21,0,1.82v.14c0,.19,0,.17,0-.05a2,2,0,0,1-.09.35c-.09.39.29-.41-.05.18-.06.09-.45.59-.15.26a3.43,3.43,0,0,1-.33.33c.34-.3-.17.09-.26.14-.59.35.21,0-.18.06a2,2,0,0,1-.35.09c.26,0,.24,0-.07,0a2.5,2.5,0,0,0,0,5,6.63,6.63,0,0,0,6.46-6.93V143.1c0-2.19.23-4.51-1.05-6.44a6.65,6.65,0,0,0-5.43-2.94h-2.06c-2.07,0-4.14,0-6.22,0a6.59,6.59,0,0,0-6.58,6.59c0,2,0,4,0,5.94s-.3,4.22.36,6a6.58,6.58,0,0,0,5.85,4.36c.78,0,1.56,0,2.33,0h6.34a2.5,2.5,0,0,0,0-5Z" style="fill:#3b3b3c" id="path304"></path><rect x="158.02" y="136.22" width="16.34" height="17.92" rx="3.96" style="fill:#a7a9ac;fill-opacity:1" id="rect306"></rect><path d="M170.4,151.65h-7.57c-.25,0-.5,0-.75,0H162c-.46,0-.21,0-.07,0-.09,0-.72-.2-.32,0a2.58,2.58,0,0,1-.51-.29c-.35-.22.37.38-.13-.12-.06-.06-.3-.36-.06,0a2.62,2.62,0,0,1-.3-.51c-.13-.29,0,.42,0-.18,0-.08-.05-.49,0-.06,0-.09,0-.22,0-.32,0-.59,0-1.18,0-1.77V142c0-.59,0-1.18,0-1.77,0-.1,0-.23,0-.32,0,.43,0,0,0-.06,0-.6-.09.11,0-.18a2.62,2.62,0,0,1,.3-.51c-.07.1-.27.3.06,0s.13-.13,0-.06a3.33,3.33,0,0,1,.61-.35c-.41.16.1,0,.2,0,.4-.09-.53,0,.19,0h3.77c1.54,0,3.1.06,4.65,0,.81,0-.48,0,.31,0,0,0,.47.14.07,0,.15.06.28.15.42.22.64.34-.19-.14.14.11.09.07.4.46.15.11a4.23,4.23,0,0,1,.24.4c.26.44.06.16,0,.06,0,.12.11.72.09.29,0,.48,0,1,0,1.44v7c0,.6,0,1.21,0,1.82,0,0,0,.12,0,.14,0,.19,0,.17,0-.05a2,2,0,0,1-.09.35c-.09.39.29-.41-.06.18,0,.09-.44.59-.14.26-.1.11-.22.23-.33.33.34-.3-.17.09-.26.14-.59.35.21,0-.18.06a2,2,0,0,1-.35.09c.26,0,.24,0-.07,0a2.5,2.5,0,0,0,0,5,6.63,6.63,0,0,0,6.46-6.93V143.1c0-2.19.23-4.51-1.05-6.44a6.65,6.65,0,0,0-5.43-2.94h-2.06c-2.07,0-4.15,0-6.22,0a6.59,6.59,0,0,0-6.58,6.59c0,2,0,4,0,5.94s-.3,4.22.36,6a6.58,6.58,0,0,0,5.85,4.36c.77,0,1.56,0,2.33,0h6.34a2.5,2.5,0,0,0,0-5Z" style="fill:#3b3b3c" id="path308"></path><rect x="185.14" y="136.22" width="16.34" height="17.92" rx="3.96" style="fill:#0581a5;fill-opacity:1" id="rect310"></rect><path d="M197.51,151.65H190c-.25,0-.5,0-.75,0h-.1c-.47,0-.22,0-.07,0-.09,0-.72-.2-.32,0a2.58,2.58,0,0,1-.51-.29c-.35-.22.37.38-.13-.12-.06-.06-.3-.36-.06,0a2.62,2.62,0,0,1-.3-.51c-.14-.29,0,.42,0-.18,0-.08,0-.49,0-.06,0-.09,0-.22,0-.32,0-.59,0-1.18,0-1.77V142c0-.59,0-1.18,0-1.77,0-.1,0-.23,0-.32,0,.43,0,0,0-.06,0-.6-.1.11,0-.18a2.62,2.62,0,0,1,.3-.51c-.07.1-.27.3.06,0s.13-.13,0-.06a3.33,3.33,0,0,1,.61-.35c-.41.16.09,0,.2,0,.39-.09-.54,0,.19,0h3.76c1.55,0,3.11.06,4.65,0,.82,0-.47,0,.31,0,.06,0,.48.14.08,0,.15.06.28.15.42.22.64.34-.19-.14.14.11.09.07.4.46.15.11.09.13.16.27.24.4.26.44.06.16,0,.06,0,.12.11.72.09.29,0,.48,0,1,0,1.44v7c0,.6,0,1.21,0,1.82a.65.65,0,0,1,0,.14c0,.19,0,.17,0-.05a3.58,3.58,0,0,1-.09.35c-.09.39.29-.41-.06.18,0,.09-.44.59-.14.26-.11.11-.22.23-.33.33.33-.3-.17.09-.27.14-.59.35.22,0-.17.06a2.25,2.25,0,0,1-.35.09c.26,0,.23,0-.08,0a2.5,2.5,0,0,0,0,5,6.62,6.62,0,0,0,6.46-6.93V143.1c0-2.19.24-4.51-1.05-6.44a6.62,6.62,0,0,0-5.43-2.94h-2.05c-2.07,0-4.15,0-6.22,0a6.59,6.59,0,0,0-6.58,6.59c0,2,0,4,0,5.94s-.3,4.22.36,6a6.57,6.57,0,0,0,5.85,4.36c.77,0,1.55,0,2.33,0h6.33a2.5,2.5,0,0,0,0-5Z" style="fill:#3b3b3c" id="path312"></path><rect x="212.43" y="136.22" width="16.34" height="17.92" rx="3.96" style="fill:#0581a5;fill-opacity:1" id="rect314"></rect><path d="M224.8,151.65h-7.56c-.25,0-.5,0-.75,0h-.1c-.47,0-.22,0-.08,0-.09,0-.71-.2-.31,0a3,3,0,0,1-.52-.29c-.34-.22.38.38-.13-.12,0-.06-.29-.36,0,0a2.62,2.62,0,0,1-.3-.51c-.14-.29,0,.42,0-.18,0-.08-.05-.49,0-.06,0-.09,0-.22,0-.32,0-.59,0-1.18,0-1.77V142c0-.59,0-1.18,0-1.77,0-.1,0-.23,0-.32,0,.43,0,0,0-.06,0-.6-.1.11,0-.18a2.62,2.62,0,0,1,.3-.51c-.08.1-.27.3,0,0s.13-.13,0-.06a3.33,3.33,0,0,1,.61-.35c-.41.16.09,0,.2,0,.39-.09-.54,0,.19,0h3.76c1.55,0,3.11.06,4.65,0,.81,0-.47,0,.31,0,.06,0,.48.14.08,0,.15.06.28.15.42.22.64.34-.19-.14.14.11.09.07.4.46.14.11a4.37,4.37,0,0,1,.25.4c.25.44.05.16,0,.06,0,.12.12.72.09.29,0,.48,0,1,0,1.44v7c0,.6,0,1.21,0,1.82v.14c0,.19,0,.17,0-.05a3.59,3.59,0,0,1-.08.35c-.1.39.28-.41-.06.18-.06.09-.45.59-.14.26-.11.11-.22.23-.34.33.34-.3-.16.09-.26.14-.59.35.21,0-.17.06a2.25,2.25,0,0,1-.35.09c.26,0,.23,0-.08,0a2.5,2.5,0,0,0,0,5,6.63,6.63,0,0,0,6.46-6.93V143.1c0-2.19.24-4.51-1-6.44a6.65,6.65,0,0,0-5.43-2.94h-2.05c-2.08,0-4.15,0-6.22,0a6.58,6.58,0,0,0-6.58,6.59c0,2,0,4,0,5.94s-.3,4.22.35,6a6.58,6.58,0,0,0,5.86,4.36c.77,0,1.55,0,2.32,0h6.34a2.5,2.5,0,0,0,0-5Z" style="fill:#3b3b3c" id="path316"></path><rect x="130.56" y="178.51" width="16.34" height="17.92" rx="3.96" style="fill:#0581a5;fill-opacity:1" id="rect318"></rect><path d="M142.94,193.94h-8.42c-.46,0-.21,0-.07,0-.09,0-.71-.2-.31,0a2.65,2.65,0,0,1-.52-.29c-.35-.23.37.38-.13-.12-.05-.06-.3-.36-.06,0a4.27,4.27,0,0,1-.3-.51c-.13-.29,0,.42,0-.18,0-.08-.06-.49,0-.06,0-.1,0-.22,0-.32,0-.59,0-1.18,0-1.77v-6.33c0-.59,0-1.18,0-1.77,0-.1,0-.23,0-.32,0,.43,0,0,0-.06,0-.6-.1.11,0-.18a4.27,4.27,0,0,1,.3-.51c-.07.1-.26.3.06,0s.13-.13,0-.06a3.42,3.42,0,0,1,.62-.35c-.41.16.09,0,.19,0,.4-.09-.53,0,.19,0h.1c.25,0,.51,0,.76,0h2.91c1.54,0,3.1.06,4.65,0,.81,0-.48,0,.31,0,.06,0,.48.14.08,0,.15.06.27.15.41.22.64.34-.19-.14.15.11.09.07.4.46.14.11.09.13.17.27.25.4.25.44.05.16,0,.06,0,.12.12.72.09.29,0,.48,0,1,0,1.44v7c0,.6,0,1.21,0,1.82v.14c0,.18,0,.17,0,0a2,2,0,0,1-.09.35c-.09.39.29-.41-.05.18-.06.09-.45.59-.15.26l-.33.33c.34-.3-.17.09-.26.14-.59.35.21,0-.18.06a2,2,0,0,1-.35.09c.26,0,.24,0-.07,0a2.5,2.5,0,0,0,0,5A6.63,6.63,0,0,0,149.4,192v-6.62c0-2.2.23-4.51-1.05-6.44a6.65,6.65,0,0,0-5.43-2.94h-2.06c-2.07,0-4.14,0-6.22,0a6.59,6.59,0,0,0-6.58,6.59c0,2,0,4,0,5.94s-.3,4.22.36,6a6.58,6.58,0,0,0,5.85,4.36c.78,0,1.56,0,2.33,0h6.34a2.5,2.5,0,0,0,0-5Z" style="fill:#3b3b3c" id="path320"></path><rect x="158.02" y="178.51" width="16.34" height="17.92" rx="3.96" style="fill:#0581a5;fill-opacity:1" id="rect322"></rect><path d="M170.4,193.94H162c-.46,0-.21,0-.07,0-.09,0-.72-.2-.32,0a2.58,2.58,0,0,1-.51-.29c-.35-.23.37.38-.13-.12-.06-.06-.3-.36-.06,0a2.62,2.62,0,0,1-.3-.51c-.13-.29,0,.42,0-.18,0-.08-.05-.49,0-.06,0-.1,0-.22,0-.32,0-.59,0-1.18,0-1.77v-6.33c0-.59,0-1.18,0-1.77,0-.1,0-.23,0-.32,0,.43,0,0,0-.06,0-.6-.09.11,0-.18a2.62,2.62,0,0,1,.3-.51c-.07.1-.27.3.06,0s.13-.13,0-.06a3.33,3.33,0,0,1,.61-.35c-.41.16.1,0,.2,0,.4-.09-.53,0,.19,0h.1c.25,0,.5,0,.75,0h2.92c1.54,0,3.1.06,4.65,0,.81,0-.48,0,.31,0,0,0,.47.14.07,0,.15.06.28.15.42.22.64.34-.19-.14.14.11.09.07.4.46.15.11a4.23,4.23,0,0,1,.24.4c.26.44.06.16,0,.06,0,.12.11.72.09.29,0,.48,0,1,0,1.44v7c0,.6,0,1.21,0,1.82,0,0,0,.12,0,.14,0,.18,0,.17,0,0a2,2,0,0,1-.09.35c-.09.39.29-.41-.06.18,0,.09-.44.59-.14.26l-.33.33c.34-.3-.17.09-.26.14-.59.35.21,0-.18.06a2,2,0,0,1-.35.09c.26,0,.24,0-.07,0a2.5,2.5,0,0,0,0,5,6.63,6.63,0,0,0,6.46-6.93v-6.62c0-2.2.23-4.51-1.05-6.44a6.65,6.65,0,0,0-5.43-2.94h-2.06c-2.07,0-4.15,0-6.22,0a6.59,6.59,0,0,0-6.58,6.59c0,2,0,4,0,5.94s-.3,4.22.36,6a6.58,6.58,0,0,0,5.85,4.36c.77,0,1.56,0,2.33,0h6.34a2.5,2.5,0,1,0,0-5Z" style="fill:#3b3b3c" id="path324"></path><rect x="185.14" y="178.51" width="16.34" height="17.92" rx="3.96" style="fill:#a7a9ac;fill-opacity:1" id="rect326"></rect><path d="M197.51,193.94H189.1c-.47,0-.22,0-.07,0-.09,0-.72-.2-.32,0a2.58,2.58,0,0,1-.51-.29c-.35-.23.37.38-.13-.12-.06-.06-.3-.36-.06,0a2.62,2.62,0,0,1-.3-.51c-.14-.29,0,.42,0-.18,0-.08,0-.49,0-.06,0-.1,0-.22,0-.32,0-.59,0-1.18,0-1.77v-6.33c0-.59,0-1.18,0-1.77,0-.1,0-.23,0-.32,0,.43,0,0,0-.06,0-.6-.1.11,0-.18a2.62,2.62,0,0,1,.3-.51c-.07.1-.27.3.06,0s.13-.13,0-.06a3.33,3.33,0,0,1,.61-.35c-.41.16.09,0,.2,0,.39-.09-.54,0,.19,0h.1c.25,0,.5,0,.75,0h2.91c1.55,0,3.11.06,4.65,0,.82,0-.47,0,.31,0,.06,0,.48.14.08,0,.15.06.28.15.42.22.64.34-.19-.14.14.11.09.07.4.46.15.11.09.13.16.27.24.4.26.44.06.16,0,.06,0,.12.11.72.09.29,0,.48,0,1,0,1.44v7c0,.6,0,1.21,0,1.82a.65.65,0,0,1,0,.14c0,.18,0,.17,0,0a3.58,3.58,0,0,1-.09.35c-.09.39.29-.41-.06.18,0,.09-.44.59-.14.26l-.33.33c.33-.3-.17.09-.27.14-.59.35.22,0-.17.06a2.25,2.25,0,0,1-.35.09c.26,0,.23,0-.08,0a2.5,2.5,0,0,0,0,5A6.62,6.62,0,0,0,204,192v-6.62c0-2.2.24-4.51-1.05-6.44a6.62,6.62,0,0,0-5.43-2.94h-2.05c-2.07,0-4.15,0-6.22,0a6.59,6.59,0,0,0-6.58,6.59c0,2,0,4,0,5.94s-.3,4.22.36,6a6.57,6.57,0,0,0,5.85,4.36c.77,0,1.55,0,2.33,0h6.33a2.5,2.5,0,0,0,0-5Z" style="fill:#3b3b3c" id="path328"></path><rect x="212.43" y="178.51" width="16.34" height="17.92" rx="3.96" style="fill:#0581a5;fill-opacity:1" id="rect330"></rect><path d="M224.8,193.94h-8.41c-.47,0-.22,0-.08,0-.09,0-.71-.2-.31,0a3,3,0,0,1-.52-.29c-.34-.23.38.38-.13-.12,0-.06-.29-.36,0,0a2.62,2.62,0,0,1-.3-.51c-.14-.29,0,.42,0-.18,0-.08-.05-.49,0-.06,0-.1,0-.22,0-.32,0-.59,0-1.18,0-1.77v-6.33c0-.59,0-1.18,0-1.77,0-.1,0-.23,0-.32,0,.43,0,0,0-.06,0-.6-.1.11,0-.18a2.62,2.62,0,0,1,.3-.51c-.08.1-.27.3,0,0s.13-.13,0-.06A3.33,3.33,0,0,1,216,181c-.41.16.09,0,.2,0,.39-.09-.54,0,.19,0h.1c.25,0,.5,0,.75,0h2.91c1.55,0,3.11.06,4.65,0,.81,0-.47,0,.31,0,.06,0,.48.14.08,0,.15.06.28.15.42.22.64.34-.19-.14.14.11.09.07.4.46.14.11a4.37,4.37,0,0,1,.25.4c.25.44.05.16,0,.06,0,.12.12.72.09.29,0,.48,0,1,0,1.44v7c0,.6,0,1.21,0,1.82v.14c0,.18,0,.17,0,0a3.59,3.59,0,0,1-.08.35c-.1.39.28-.41-.06.18-.06.09-.45.59-.14.26l-.34.33c.34-.3-.16.09-.26.14-.59.35.21,0-.17.06a2.25,2.25,0,0,1-.35.09c.26,0,.23,0-.08,0a2.5,2.5,0,0,0,0,5,6.63,6.63,0,0,0,6.46-6.93v-6.62c0-2.2.24-4.51-1-6.44a6.65,6.65,0,0,0-5.43-2.94h-2.05c-2.08,0-4.15,0-6.22,0a6.58,6.58,0,0,0-6.58,6.59c0,2,0,4,0,5.94s-.3,4.22.35,6a6.58,6.58,0,0,0,5.86,4.36c.77,0,1.55,0,2.32,0h6.34a2.5,2.5,0,0,0,0-5Z" style="fill:#3b3b3c" id="path332"></path><rect x="130.56" y="220.8" width="16.34" height="17.92" rx="3.96" style="fill:#0581a5;fill-opacity:1" id="rect334"></rect><path d="M142.94,236.23h-8.42c-.46,0-.21,0-.07,0-.09,0-.71-.2-.31,0a2.65,2.65,0,0,1-.52-.29c-.35-.23.37.38-.13-.12-.05-.06-.3-.36-.06,0a5.24,5.24,0,0,1-.3-.51c-.13-.29,0,.41,0-.18,0-.08-.06-.49,0-.06,0-.1,0-.22,0-.32,0-.59,0-1.18,0-1.77V226.6c0-.59,0-1.18,0-1.77,0-.1,0-.23,0-.32,0,.43,0,0,0-.06,0-.6-.1.11,0-.18a4.27,4.27,0,0,1,.3-.51c-.07.1-.26.3.06,0s.13-.13,0-.06a3.42,3.42,0,0,1,.62-.35c-.41.16.09,0,.19,0,.4-.09-.53,0,.19,0h3.77c1.54,0,3.1.06,4.65,0,.81,0-.48,0,.31,0,.06,0,.48.15.08,0,.15.06.27.15.41.22.64.34-.19-.14.15.11.09.07.4.46.14.11.09.13.17.27.25.4.25.44.05.16,0,.06,0,.12.12.72.09.29,0,.48,0,1,0,1.43v7c0,.6,0,1.21,0,1.82v.14c0,.18,0,.17,0,0a2,2,0,0,1-.09.35c-.09.39.29-.42-.05.17-.06.1-.45.6-.15.27q-.15.17-.33.33c.34-.3-.17.09-.26.14-.59.35.21,0-.18.06a3.58,3.58,0,0,1-.35.09c.26,0,.24,0-.07,0a2.5,2.5,0,0,0,0,5,6.63,6.63,0,0,0,6.46-6.93v-6.62c0-2.2.23-4.51-1.05-6.44a6.62,6.62,0,0,0-5.43-2.94c-.69,0-1.37,0-2.06,0-2.07,0-4.14,0-6.22,0a6.58,6.58,0,0,0-6.58,6.59c0,2,0,4,0,5.94s-.3,4.22.36,6a6.58,6.58,0,0,0,5.85,4.36c.78,0,1.56,0,2.33,0h6.34a2.5,2.5,0,0,0,0-5Z" style="fill:#3b3b3c" id="path336"></path><rect x="158.02" y="220.8" width="16.34" height="17.92" rx="3.96" style="fill:#a7a9ac;fill-opacity:1" id="rect338"></rect><path d="M170.4,236.23H162c-.46,0-.21,0-.07,0-.09,0-.72-.2-.32,0a2.58,2.58,0,0,1-.51-.29c-.35-.23.37.38-.13-.12-.06-.06-.3-.36-.06,0a3,3,0,0,1-.3-.51c-.13-.29,0,.41,0-.18,0-.08-.05-.49,0-.06,0-.1,0-.22,0-.32,0-.59,0-1.18,0-1.77V226.6c0-.59,0-1.18,0-1.77,0-.1,0-.23,0-.32,0,.43,0,0,0-.06,0-.6-.09.11,0-.18a2.62,2.62,0,0,1,.3-.51c-.07.1-.27.3.06,0s.13-.13,0-.06a3.33,3.33,0,0,1,.61-.35c-.41.16.1,0,.2,0,.4-.09-.53,0,.19,0h3.77c1.54,0,3.1.06,4.65,0,.81,0-.48,0,.31,0,0,0,.47.15.07,0,.15.06.28.15.42.22.64.34-.19-.14.14.11.09.07.4.46.15.11a4.23,4.23,0,0,1,.24.4c.26.44.06.16,0,.06,0,.12.11.72.09.29,0,.48,0,1,0,1.43v7c0,.6,0,1.21,0,1.82,0,0,0,.12,0,.14,0,.18,0,.17,0,0a2,2,0,0,1-.09.35c-.09.39.29-.42-.06.17,0,.1-.44.6-.14.27-.1.11-.22.22-.33.33.34-.3-.17.09-.26.14-.59.35.21,0-.18.06a3.58,3.58,0,0,1-.35.09c.26,0,.24,0-.07,0a2.5,2.5,0,0,0,0,5,6.63,6.63,0,0,0,6.46-6.93v-6.62c0-2.2.23-4.51-1.05-6.44a6.62,6.62,0,0,0-5.43-2.94c-.69,0-1.38,0-2.06,0-2.07,0-4.15,0-6.22,0a6.58,6.58,0,0,0-6.58,6.59c0,2,0,4,0,5.94s-.3,4.22.36,6a6.58,6.58,0,0,0,5.85,4.36c.77,0,1.56,0,2.33,0h6.34a2.5,2.5,0,0,0,0-5Z" style="fill:#3b3b3c" id="path340"></path><rect x="185.14" y="220.8" width="16.34" height="17.92" rx="3.96" style="fill:#0581a5;fill-opacity:1" id="rect342"></rect><path d="M197.51,236.23H189.1c-.47,0-.22,0-.07,0-.09,0-.72-.2-.32,0a2.58,2.58,0,0,1-.51-.29c-.35-.23.37.38-.13-.12-.06-.06-.3-.36-.06,0a3,3,0,0,1-.3-.51c-.14-.29,0,.41,0-.18,0-.08,0-.49,0-.06,0-.1,0-.22,0-.32,0-.59,0-1.18,0-1.77V226.6c0-.59,0-1.18,0-1.77,0-.1,0-.23,0-.32,0,.43,0,0,0-.06,0-.6-.1.11,0-.18a2.62,2.62,0,0,1,.3-.51c-.07.1-.27.3.06,0s.13-.13,0-.06a3.33,3.33,0,0,1,.61-.35c-.41.16.09,0,.2,0,.39-.09-.54,0,.19,0h3.76c1.55,0,3.11.06,4.65,0,.82,0-.47,0,.31,0,.06,0,.48.15.08,0,.15.06.28.15.42.22.64.34-.19-.14.14.11.09.07.4.46.15.11.09.13.16.27.24.4.26.44.06.16,0,.06,0,.12.11.72.09.29,0,.48,0,1,0,1.43v7c0,.6,0,1.21,0,1.82a.65.65,0,0,1,0,.14c0,.18,0,.17,0,0a3.58,3.58,0,0,1-.09.35c-.09.39.29-.42-.06.17,0,.1-.44.6-.14.27l-.33.33c.33-.3-.17.09-.27.14-.59.35.22,0-.17.06l-.35.09c.26,0,.23,0-.08,0a2.5,2.5,0,0,0,0,5A6.63,6.63,0,0,0,204,234.3v-6.62c0-2.2.24-4.51-1.05-6.44a6.6,6.6,0,0,0-5.43-2.94c-.68,0-1.37,0-2.05,0-2.07,0-4.15,0-6.22,0a6.58,6.58,0,0,0-6.58,6.59c0,2,0,4,0,5.94s-.3,4.22.36,6a6.57,6.57,0,0,0,5.85,4.36c.77,0,1.55,0,2.33,0h6.33a2.5,2.5,0,0,0,0-5Z" style="fill:#3b3b3c" id="path344"></path><rect x="212.43" y="220.8" width="16.34" height="17.92" rx="3.96" style="fill:#0581a5;fill-opacity:1" id="rect346"></rect><path d="M224.8,236.23h-8.41c-.47,0-.22,0-.08,0-.09,0-.71-.2-.31,0a3,3,0,0,1-.52-.29c-.34-.23.38.38-.13-.12,0-.06-.29-.36,0,0a3,3,0,0,1-.3-.51c-.14-.29,0,.41,0-.18,0-.08-.05-.49,0-.06,0-.1,0-.22,0-.32,0-.59,0-1.18,0-1.77V226.6c0-.59,0-1.18,0-1.77,0-.1,0-.23,0-.32,0,.43,0,0,0-.06,0-.6-.1.11,0-.18a2.62,2.62,0,0,1,.3-.51c-.08.1-.27.3,0,0s.13-.13,0-.06a3.33,3.33,0,0,1,.61-.35c-.41.16.09,0,.2,0,.39-.09-.54,0,.19,0h3.76c1.55,0,3.11.06,4.65,0,.81,0-.47,0,.31,0,.06,0,.48.15.08,0,.15.06.28.15.42.22.64.34-.19-.14.14.11.09.07.4.46.14.11a4.37,4.37,0,0,1,.25.4c.25.44.05.16,0,.06,0,.12.12.72.09.29,0,.48,0,1,0,1.43v7c0,.6,0,1.21,0,1.82v.14c0,.18,0,.17,0,0a3.59,3.59,0,0,1-.08.35c-.1.39.28-.42-.06.17-.06.1-.45.6-.14.27l-.34.33c.34-.3-.16.09-.26.14-.59.35.21,0-.17.06l-.35.09c.26,0,.23,0-.08,0a2.5,2.5,0,0,0,0,5,6.63,6.63,0,0,0,6.46-6.93v-6.62c0-2.2.24-4.51-1-6.44a6.62,6.62,0,0,0-5.43-2.94c-.68,0-1.37,0-2.05,0-2.08,0-4.15,0-6.22,0a6.57,6.57,0,0,0-6.58,6.59c0,2,0,4,0,5.94s-.3,4.22.35,6a6.58,6.58,0,0,0,5.86,4.36c.77,0,1.55,0,2.32,0h6.34a2.5,2.5,0,0,0,0-5Z" style="fill:#3b3b3c" id="path348"></path><rect x="130.56" y="263.09" width="16.34" height="17.92" rx="3.96" style="fill:#0581a5;fill-opacity:1" id="rect350"></rect><path d="M142.94,278.51h-8.42c-.46,0-.21,0-.07,0-.09,0-.71-.2-.31,0a2.65,2.65,0,0,1-.52-.29c-.35-.23.37.38-.13-.12-.05-.06-.3-.36-.06,0a5.24,5.24,0,0,1-.3-.51c-.13-.29,0,.41,0-.19,0-.07-.06-.48,0-.06,0-.09,0-.21,0-.31,0-.59,0-1.18,0-1.77v-6.33c0-.59,0-1.18,0-1.77,0-.1,0-.23,0-.32,0,.43,0,0,0-.06,0-.6-.1.11,0-.18a4.27,4.27,0,0,1,.3-.51c-.07.1-.26.3.06,0s.13-.13,0-.06a3.42,3.42,0,0,1,.62-.35c-.41.16.09,0,.19,0,.4-.09-.53,0,.19,0h.1c.25,0,.51,0,.76,0h2.91c1.54,0,3.1.06,4.65,0,.81,0-.48,0,.31,0,.06,0,.48.15.08,0,.15.06.27.15.41.22.64.34-.19-.14.15.11.09.07.4.46.14.11.09.13.17.27.25.4.25.44.05.16,0,.06,0,.12.12.71.09.29,0,.48,0,1,0,1.43v7c0,.6,0,1.21,0,1.82v.14c0,.18,0,.17,0-.05a2.25,2.25,0,0,1-.09.35c-.09.39.29-.42-.05.17-.06.1-.45.6-.15.27l-.33.33c.34-.3-.17.09-.26.14-.59.35.21,0-.18.06a3.58,3.58,0,0,1-.35.09c.26,0,.24-.05-.07,0a2.55,2.55,0,0,0-2.5,2.5,2.51,2.51,0,0,0,2.5,2.5,6.62,6.62,0,0,0,6.46-6.93V270c0-2.2.23-4.51-1.05-6.44a6.62,6.62,0,0,0-5.43-2.94c-.69,0-1.37,0-2.06,0-2.07,0-4.14,0-6.22,0a6.58,6.58,0,0,0-6.58,6.59c0,2,0,4,0,5.94s-.3,4.22.36,6a6.58,6.58,0,0,0,5.85,4.36c.78,0,1.56,0,2.33,0h6.34a2.5,2.5,0,0,0,0-5Z" style="fill:#3b3b3c" id="path352"></path><rect x="158.02" y="263.09" width="43.45" height="54.7" rx="3.96" style="fill:#0581a5;fill-opacity:1" id="rect354"></rect><path d="M197.51,315.3H181.12c-6.3,0-12.6.07-18.89,0-1.73,0-1.71-1.37-1.71-2.72V271a32.08,32.08,0,0,1,0-4.16c.24-1.82,3.12-1.29,4.49-1.29h31.35a5.54,5.54,0,0,1,1.64.09c.81.29,1,1,1,1.76,0,2,0,4,0,6.05V297.1c0,5.5.07,11,0,16.49a1.53,1.53,0,0,1-1.46,1.71c-3.2.13-3.22,5.13,0,5a6.59,6.59,0,0,0,6.46-6.47c0-.43,0-.86,0-1.29V269.63c0-2.63.13-5.25-2-7.26s-5.15-1.78-7.95-1.78H182.85c-6.83,0-13.66,0-20.49,0a6.66,6.66,0,0,0-6.84,6.85c0,2.2,0,4.4,0,6.6v24.85c0,5-.19,10,0,14.95A6.6,6.6,0,0,0,162,320.3c.57,0,1.15,0,1.72,0h33.8C200.73,320.3,200.74,315.3,197.51,315.3Z" style="fill:#3b3b3c" id="path356"></path><rect x="212.43" y="263.09" width="16.34" height="17.92" rx="3.96" style="fill:#a7a9ac;fill-opacity:1" id="rect358"></rect><path d="M224.8,278.51h-8.41c-.47,0-.22,0-.08,0-.09,0-.71-.2-.31,0a3,3,0,0,1-.52-.29c-.34-.23.38.38-.13-.12,0-.06-.29-.36,0,0a3,3,0,0,1-.3-.51c-.14-.29,0,.41,0-.19,0-.07-.05-.48,0-.06,0-.09,0-.21,0-.31,0-.59,0-1.18,0-1.77v-6.33c0-.59,0-1.18,0-1.77,0-.1,0-.23,0-.32,0,.43,0,0,0-.06,0-.6-.1.11,0-.18a2.62,2.62,0,0,1,.3-.51c-.08.1-.27.3,0,0s.13-.13,0-.06a3.33,3.33,0,0,1,.61-.35c-.41.16.09,0,.2,0,.39-.09-.54,0,.19,0h.1c.25,0,.5,0,.75,0h2.91c1.55,0,3.11.06,4.65,0,.81,0-.47,0,.31,0,.06,0,.48.15.08,0,.15.06.28.15.42.22.64.34-.19-.14.14.11.09.07.4.46.14.11a4.37,4.37,0,0,1,.25.4c.25.44.05.16,0,.06,0,.12.12.71.09.29,0,.48,0,1,0,1.43v7c0,.6,0,1.21,0,1.82v.14c0,.18,0,.17,0-.05,0,.12-.05.23-.08.35-.1.39.28-.42-.06.17-.06.1-.45.6-.14.27l-.34.33c.34-.3-.16.09-.26.14-.59.35.21,0-.17.06l-.35.09c.26,0,.23-.05-.08,0a2.55,2.55,0,0,0-2.5,2.5,2.52,2.52,0,0,0,2.5,2.5,6.62,6.62,0,0,0,6.46-6.93V270c0-2.2.24-4.51-1-6.44a6.62,6.62,0,0,0-5.43-2.94c-.68,0-1.37,0-2.05,0-2.08,0-4.15,0-6.22,0a6.57,6.57,0,0,0-6.58,6.59c0,2,0,4,0,5.94s-.3,4.22.35,6a6.58,6.58,0,0,0,5.86,4.36c.77,0,1.55,0,2.32,0h6.34a2.5,2.5,0,0,0,0-5Z" style="fill:#3b3b3c" id="path360"></path><rect x="157.94" y="263.09" width="43.45" height="14.93" rx="3.96" style="fill:#0581a5;fill-opacity:1" id="rect362"></rect><path d="M197.43,275.52H162.81c-.77,0-1.53.11-2.06-.54a2.25,2.25,0,0,1-.31-1.56v-5.8a2.14,2.14,0,0,1,.31-1.48c.53-.66,1.33-.55,2.11-.55h28.73c1.92,0,3.93-.16,5.84,0,1.76.16,1.46,2,1.46,3.32,0,1.69.14,3.45,0,5.14a1.49,1.49,0,0,1-1.46,1.47c-3.21.14-3.22,5.14,0,5a6.6,6.6,0,0,0,6.46-6.72c0-2,0-4.07,0-6.11,0-3.22-1.75-6.29-5.12-6.95a14.75,14.75,0,0,0-2.89-.15H170.16c-2.71,0-5.42-.06-8.13,0a6.53,6.53,0,0,0-6.49,5.46,40.44,40.44,0,0,0-.1,5.93c0,2.73.13,5.32,2.5,7.16a7.4,7.4,0,0,0,4.79,1.38H173c8,0,16,.09,24,0h.5C200.65,280.52,200.65,275.52,197.43,275.52Z" style="fill:#3b3b3c" id="path364"></path><rect x="269.38" y="178.51" width="16.34" height="17.92" rx="3.96" style="fill:#0581a5;fill-opacity:1" id="rect366"></rect><path d="M281.76,193.94h-8.42c-.46,0-.21,0-.07,0-.09,0-.71-.2-.31,0a2.39,2.39,0,0,1-.52-.29c-.35-.23.37.38-.13-.12-.05-.06-.3-.36-.06,0a4.27,4.27,0,0,1-.3-.51c-.13-.29,0,.42,0-.18,0-.08-.06-.49,0-.06,0-.1,0-.22,0-.32,0-.59,0-1.18,0-1.77v-6.33c0-.59,0-1.18,0-1.77,0-.1,0-.23,0-.32,0,.43,0,0,0-.06,0-.6-.1.11,0-.18a4.27,4.27,0,0,1,.3-.51c-.07.1-.26.3.06,0s.13-.13,0-.06A3.42,3.42,0,0,1,273,181c-.41.16.09,0,.19,0,.4-.09-.53,0,.19,0h.1c.25,0,.51,0,.76,0h2.91c1.54,0,3.1.06,4.65,0,.81,0-.48,0,.31,0,.06,0,.48.14.08,0,.15.06.27.15.41.22.64.34-.19-.14.15.11.09.07.4.46.14.11.09.13.17.27.25.4.25.44,0,.16,0,.06,0,.12.12.72.09.29,0,.48,0,1,0,1.44v7c0,.6,0,1.21,0,1.82a.57.57,0,0,1,0,.14c0,.18,0,.17,0,0a2,2,0,0,1-.09.35c-.09.39.29-.41,0,.18-.06.09-.45.59-.15.26q-.15.16-.33.33c.34-.3-.17.09-.26.14-.59.35.21,0-.18.06a2,2,0,0,1-.35.09c.26,0,.24,0-.07,0a2.5,2.5,0,0,0,0,5,6.63,6.63,0,0,0,6.46-6.93v-6.62c0-2.2.23-4.51-1.05-6.44a6.65,6.65,0,0,0-5.43-2.94h-2.06c-2.07,0-4.14,0-6.22,0a6.59,6.59,0,0,0-6.58,6.59c0,2,0,4,0,5.94s-.3,4.22.36,6a6.58,6.58,0,0,0,5.85,4.36c.78,0,1.56,0,2.33,0h6.34a2.5,2.5,0,0,0,0-5Z" style="fill:#3b3b3c" id="path368"></path><rect x="269.38" y="136.63" width="16.34" height="17.92" rx="3.96" style="fill:#0581a5;fill-opacity:1" id="rect370"></rect><path d="M281.76,152.05h-8.42c-.46,0-.21,0-.07,0-.09,0-.71-.2-.31,0a2.87,2.87,0,0,1-.52-.28c-.35-.23.37.37-.13-.13-.05-.05-.3-.35-.06,0a4.27,4.27,0,0,1-.3-.51c-.13-.28,0,.42,0-.18,0-.07-.06-.48,0-.06,0-.09,0-.21,0-.32,0-.59,0-1.18,0-1.77v-6.32c0-.59,0-1.18,0-1.77,0-.11,0-.23,0-.32,0,.42,0,0,0-.06,0-.6-.1.1,0-.19a4.14,4.14,0,0,1,.3-.5c-.07.1-.26.29.06,0s.13-.13,0-.06a2.53,2.53,0,0,1,.62-.35c-.41.16.09,0,.19,0,.4-.09-.53,0,.19,0h3.77c1.54,0,3.1.05,4.65,0,.81,0-.48,0,.31,0,.06,0,.48.15.08,0,.15.06.27.15.41.22.64.33-.19-.15.15.11.09.06.4.46.14.11a3.89,3.89,0,0,1,.25.4c.25.43,0,.16,0,.06,0,.12.12.71.09.29,0,.47,0,.95,0,1.43v7c0,.61,0,1.22,0,1.82a.66.66,0,0,1,0,.15q0,.27,0-.06a2.37,2.37,0,0,1-.09.36c-.09.38.29-.42,0,.17-.06.09-.45.6-.15.26a2.57,2.57,0,0,1-.33.33c.34-.3-.17.09-.26.15-.59.34.21,0-.18.06l-.35.08c.26,0,.24,0-.07,0a2.5,2.5,0,0,0,0,5,6.62,6.62,0,0,0,6.46-6.93V143.5c0-2.19.23-4.51-1.05-6.44a6.64,6.64,0,0,0-5.43-2.93c-.69,0-1.37,0-2.06,0-2.07,0-4.14,0-6.22,0a6.57,6.57,0,0,0-6.58,6.58c0,2,0,4,0,5.94s-.3,4.22.36,6a6.55,6.55,0,0,0,5.85,4.35c.78,0,1.56,0,2.33,0h6.34a2.5,2.5,0,0,0,0-5Z" style="fill:#3b3b3c" id="path372"></path><rect x="269.38" y="220.8" width="16.34" height="17.92" rx="3.96" style="fill:#a7a9ac;fill-opacity:1" id="rect374"></rect><path d="M281.76,236.23h-8.42c-.46,0-.21,0-.07,0-.09,0-.71-.2-.31,0a2.39,2.39,0,0,1-.52-.29c-.35-.23.37.38-.13-.12-.05-.06-.3-.36-.06,0a5.24,5.24,0,0,1-.3-.51c-.13-.29,0,.41,0-.18,0-.08-.06-.49,0-.06,0-.1,0-.22,0-.32,0-.59,0-1.18,0-1.77V226.6c0-.59,0-1.18,0-1.77,0-.1,0-.23,0-.32,0,.43,0,0,0-.06,0-.6-.1.11,0-.18a4.27,4.27,0,0,1,.3-.51c-.07.1-.26.3.06,0s.13-.13,0-.06a3.42,3.42,0,0,1,.62-.35c-.41.16.09,0,.19,0,.4-.09-.53,0,.19,0h3.77c1.54,0,3.1.06,4.65,0,.81,0-.48,0,.31,0,.06,0,.48.15.08,0,.15.06.27.15.41.22.64.34-.19-.14.15.11.09.07.4.46.14.11.09.13.17.27.25.4.25.44,0,.16,0,.06,0,.12.12.72.09.29,0,.48,0,1,0,1.43v7c0,.6,0,1.21,0,1.82a.57.57,0,0,1,0,.14c0,.18,0,.17,0,0a2,2,0,0,1-.09.35c-.09.39.29-.42,0,.17-.06.1-.45.6-.15.27q-.15.17-.33.33c.34-.3-.17.09-.26.14-.59.35.21,0-.18.06a3.58,3.58,0,0,1-.35.09c.26,0,.24,0-.07,0a2.5,2.5,0,0,0,0,5,6.63,6.63,0,0,0,6.46-6.93v-6.62c0-2.2.23-4.51-1.05-6.44a6.62,6.62,0,0,0-5.43-2.94c-.69,0-1.37,0-2.06,0-2.07,0-4.14,0-6.22,0a6.58,6.58,0,0,0-6.58,6.59c0,2,0,4,0,5.94s-.3,4.22.36,6a6.58,6.58,0,0,0,5.85,4.36c.78,0,1.56,0,2.33,0h6.34a2.5,2.5,0,0,0,0-5Z" style="fill:#3b3b3c" id="path376"></path><rect x="269.18" y="263.09" width="16.34" height="17.92" rx="3.96" style="fill:#0581a5;fill-opacity:1" id="rect378"></rect><path d="M281.55,278.51h-8.41c-.47,0-.22,0-.07,0-.1,0-.72-.2-.32,0a2.58,2.58,0,0,1-.51-.29c-.35-.23.37.38-.13-.12-.06-.06-.3-.36-.06,0a3,3,0,0,1-.3-.51c-.14-.29,0,.41,0-.19,0-.07,0-.48,0-.06,0-.09,0-.21,0-.31,0-.59,0-1.18,0-1.77v-6.33c0-.59,0-1.18,0-1.77,0-.1,0-.23,0-.32,0,.43,0,0,0-.06,0-.6-.1.11,0-.18a2.62,2.62,0,0,1,.3-.51c-.07.1-.27.3.06,0s.13-.13,0-.06a3.33,3.33,0,0,1,.61-.35c-.41.16.09,0,.2,0,.39-.09-.54,0,.19,0h.1c.25,0,.5,0,.75,0h2.91c1.55,0,3.11.06,4.65,0,.82,0-.47,0,.31,0,.06,0,.48.15.08,0,.15.06.28.15.42.22.64.34-.19-.14.14.11.09.07.4.46.15.11.09.13.16.27.24.4.26.44.06.16,0,.06,0,.12.11.71.09.29,0,.48,0,1,0,1.43v7c0,.6,0,1.21,0,1.82a.65.65,0,0,1,0,.14c0,.18,0,.17,0-.05a2.21,2.21,0,0,1-.08.35c-.1.39.29-.42-.06.17-.05.1-.44.6-.14.27l-.33.33c.33-.3-.17.09-.27.14-.59.35.22,0-.17.06l-.35.09c.26,0,.23-.05-.08,0a2.55,2.55,0,0,0-2.5,2.5,2.52,2.52,0,0,0,2.5,2.5,6.62,6.62,0,0,0,6.46-6.93V270c0-2.2.24-4.51-1.05-6.44a6.62,6.62,0,0,0-5.43-2.94c-.68,0-1.37,0-2,0-2.08,0-4.15,0-6.22,0a6.58,6.58,0,0,0-6.58,6.59c0,2,0,4,0,5.94s-.3,4.22.35,6a6.59,6.59,0,0,0,5.86,4.36c.77,0,1.55,0,2.33,0h6.33a2.5,2.5,0,0,0,0-5Z" style="fill:#3b3b3c" id="path380"></path><rect x="241.99" y="103.34" width="70.7" height="17.03" rx="3.86" style="fill:#a7a9ac" id="rect382"></rect><path d="M308.84,117.87H279.59c-11.09,0-22.18.06-33.27,0a2.49,2.49,0,0,1-1.06-.13c-.94-.48-.77-1.49-.77-2.5v-5.32a15.23,15.23,0,0,1,0-3c.3-1.26,1.62-1,2.76-1h60.42c1.25,0,2.37,0,2.49,1.4.24,2.83,0,5.78,0,8.63,0,1.06-.19,1.95-1.36,2-3.21.14-3.22,5.14,0,5a6.46,6.46,0,0,0,6.34-6c.09-1.24,0-2.51,0-3.75,0-3.51.79-8.15-2.21-10.7-1.73-1.46-3.66-1.55-5.76-1.55H257.94c-4,0-8-.1-11.93,0a6.63,6.63,0,0,0-4.54,1.76,7.18,7.18,0,0,0-2,5.54,85,85,0,0,0,.06,9c.41,3.71,3.54,5.7,7,5.7h62.26C312.06,122.87,312.06,117.87,308.84,117.87Z" style="fill:#3b3b3c" id="path384"></path><rect x="44.84" y="101.29" width="70.7" height="17.03" rx="3.86" style="fill:#a7a9ac" id="rect386"></rect><path d="M111.69,115.81H82.44c-11.09,0-22.18.06-33.27,0a2.34,2.34,0,0,1-1.06-.13c-.94-.48-.77-1.49-.77-2.5v-5.32a15.12,15.12,0,0,1,0-3c.3-1.27,1.62-1,2.76-1h60.42c1.25,0,2.37-.06,2.49,1.39.24,2.83,0,5.79,0,8.63,0,1.06-.19,2-1.36,2-3.21.14-3.22,5.14,0,5a6.46,6.46,0,0,0,6.34-6c.09-1.25,0-2.51,0-3.76,0-3.5.79-8.15-2.21-10.69-1.73-1.46-3.67-1.55-5.76-1.55H60.78c-4,0-8-.1-11.92,0a6.62,6.62,0,0,0-4.54,1.75,7.18,7.18,0,0,0-2,5.54,85,85,0,0,0,.06,9c.41,3.72,3.54,5.7,7,5.7h62.26C114.91,120.81,114.91,115.81,111.69,115.81Z" style="fill:#3b3b3c" id="path388"></path><rect x="73.36" y="178.31" width="16.34" height="17.92" rx="3.96" style="fill:#a7a9ac;fill-opacity:1" id="rect390"></rect><path d="M85.74,193.73H77.32c-.46,0-.21,0-.07,0-.09,0-.72-.19-.32,0a3.2,3.2,0,0,1-.51-.29c-.35-.23.37.38-.13-.12-.06-.06-.3-.36-.06,0a2.55,2.55,0,0,1-.3-.5c-.13-.29,0,.41,0-.19,0-.07,0-.48,0-.06,0-.09,0-.21,0-.31,0-.59,0-1.19,0-1.78v-6.32c0-.59,0-1.18,0-1.77,0-.1,0-.23,0-.32,0,.42,0,0,0-.06,0-.6-.09.1,0-.18a2.62,2.62,0,0,1,.3-.51c-.07.1-.27.29.06,0s.13-.13,0-.06a2.67,2.67,0,0,1,.61-.35c-.41.16.1,0,.2,0,.4-.09-.53,0,.19,0h3.77c1.54,0,3.1.06,4.65,0,.81,0-.48,0,.31,0,.06,0,.47.15.07,0,.15.06.28.15.42.22.64.34-.19-.15.14.11.09.07.4.46.15.11a4.23,4.23,0,0,1,.24.4c.26.44.06.16,0,.06,0,.12.11.71.09.29,0,.48,0,1,0,1.43v7c0,.61,0,1.22,0,1.83,0,0,0,.12,0,.14,0,.18,0,.17,0-.05a2.25,2.25,0,0,1-.09.35c-.09.38.29-.42-.06.17,0,.1-.44.6-.14.27q-.15.17-.33.33c.34-.3-.17.09-.26.14-.59.35.21,0-.18.06l-.35.08c.26,0,.24,0-.07,0a2.55,2.55,0,0,0-2.5,2.5,2.51,2.51,0,0,0,2.5,2.5,6.62,6.62,0,0,0,6.46-6.93v-6.61c0-2.2.23-4.51-1-6.44a6.62,6.62,0,0,0-5.43-2.94c-.69,0-1.38,0-2.06,0-2.07,0-4.15,0-6.22,0a6.57,6.57,0,0,0-6.58,6.59c0,2,0,4,0,5.94s-.3,4.22.36,6a6.58,6.58,0,0,0,5.85,4.36c.77,0,1.56,0,2.33,0h6.34a2.5,2.5,0,0,0,0-5Z" style="fill:#3b3b3c" id="path392"></path><rect x="73.36" y="136.43" width="16.34" height="17.92" rx="3.96" style="fill:#0581a5;fill-opacity:1" id="rect394"></rect><path d="M85.74,151.85H77.32c-.46,0-.21,0-.07,0-.09,0-.72-.2-.32,0a2.58,2.58,0,0,1-.51-.29c-.35-.22.37.38-.13-.12-.06,0-.3-.36-.06,0a2.62,2.62,0,0,1-.3-.51c-.13-.28,0,.42,0-.18,0-.08,0-.48,0-.06,0-.09,0-.22,0-.32,0-.59,0-1.18,0-1.77v-6.32c0-.59,0-1.19,0-1.78,0-.1,0-.22,0-.31,0,.42,0,0,0-.06,0-.6-.09.1,0-.19a2.55,2.55,0,0,1,.3-.5c-.07.09-.27.29.06,0s.13-.13,0-.06a3.7,3.7,0,0,1,.61-.35c-.41.17.1,0,.2,0,.4-.09-.53,0,.19,0h3.77c1.54,0,3.1,0,4.65,0,.81,0-.48,0,.31,0,.06,0,.47.14.07,0a3.42,3.42,0,0,1,.42.23c.64.33-.19-.15.14.1.09.07.4.46.15.12a2.65,2.65,0,0,1,.24.4c.26.43.06.15,0,.06,0,.11.11.71.09.29,0,.47,0,1,0,1.43v7c0,.61,0,1.22,0,1.82,0,0,0,.12,0,.14,0,.19,0,.17,0,0a2,2,0,0,1-.09.35c-.09.39.29-.41-.06.18,0,.09-.44.6-.14.26a2.57,2.57,0,0,1-.33.33c.34-.3-.17.09-.26.15-.59.34.21,0-.18.05a2,2,0,0,1-.35.09c.26,0,.24,0-.07,0a2.5,2.5,0,1,0,0,5,6.63,6.63,0,0,0,6.46-6.93V143.3c0-2.19.23-4.51-1-6.44a6.61,6.61,0,0,0-5.43-2.93c-.69,0-1.38,0-2.06,0-2.07,0-4.15,0-6.22,0a6.57,6.57,0,0,0-6.58,6.58c0,2,0,4,0,5.94s-.3,4.22.36,6a6.55,6.55,0,0,0,5.85,4.36c.77,0,1.56,0,2.33,0h6.34a2.5,2.5,0,0,0,0-5Z" style="fill:#3b3b3c" id="path396"></path><rect x="73.36" y="220.6" width="16.34" height="17.92" rx="3.96" style="fill:#0581a5;fill-opacity:1" id="rect398"></rect><path d="M85.74,236H77.32c-.46,0-.21,0-.07,0-.09,0-.72-.19-.32,0a3.2,3.2,0,0,1-.51-.29c-.35-.23.37.38-.13-.12-.06-.06-.3-.36-.06,0a2.55,2.55,0,0,1-.3-.5c-.13-.29,0,.41,0-.19,0-.07,0-.48,0-.06,0-.09,0-.21,0-.31,0-.59,0-1.19,0-1.78V226.4c0-.59,0-1.18,0-1.77,0-.1,0-.23,0-.32,0,.42,0,0,0-.06,0-.6-.09.1,0-.18a2.62,2.62,0,0,1,.3-.51c-.07.1-.27.29.06,0s.13-.13,0-.06a2.67,2.67,0,0,1,.61-.35c-.41.16.1,0,.2,0,.4-.09-.53,0,.19,0h.1c.25,0,.5,0,.75,0h2.92c1.54,0,3.1.06,4.65,0,.81,0-.48,0,.31,0,.06,0,.47.15.07,0,.15.06.28.15.42.22.64.33-.19-.15.14.11.09.07.4.46.15.11a4.23,4.23,0,0,1,.24.4c.26.44.06.16,0,.06,0,.12.11.71.09.29,0,.48,0,1,0,1.43v7c0,.61,0,1.22,0,1.83,0,0,0,.12,0,.14,0,.18,0,.16,0-.05a2.25,2.25,0,0,1-.09.35c-.09.38.29-.42-.06.17,0,.1-.44.6-.14.27q-.15.16-.33.33c.34-.31-.17.09-.26.14-.59.34.21,0-.18.06l-.35.08c.26,0,.24,0-.07,0a2.55,2.55,0,0,0-2.5,2.5,2.51,2.51,0,0,0,2.5,2.5,6.62,6.62,0,0,0,6.46-6.93v-6.61c0-2.2.23-4.52-1-6.44a6.62,6.62,0,0,0-5.43-2.94c-.69,0-1.38,0-2.06,0-2.07,0-4.15,0-6.22,0a6.57,6.57,0,0,0-6.58,6.59c0,2,0,4,0,5.94s-.3,4.22.36,6A6.58,6.58,0,0,0,77.07,241c.77,0,1.56,0,2.33,0h6.34a2.5,2.5,0,0,0,0-5Z" style="fill:#3b3b3c" id="path400"></path><rect x="73.36" y="262" width="16.34" height="17.92" rx="3.96" style="fill:#0581a5;fill-opacity:1" id="rect402"></rect><path d="M85.74,277.42H77.32c-.46,0-.21,0-.07,0-.09,0-.72-.19-.32,0a3.2,3.2,0,0,1-.51-.29c-.35-.23.37.38-.13-.12-.06-.06-.3-.36-.06,0a2.55,2.55,0,0,1-.3-.5c-.13-.29,0,.41,0-.19,0-.07,0-.48,0-.06,0-.09,0-.21,0-.31,0-.59,0-1.18,0-1.78V267.8c0-.59,0-1.18,0-1.77,0-.1,0-.23,0-.32,0,.42,0,0,0-.06,0-.6-.09.11,0-.18a2.62,2.62,0,0,1,.3-.51c-.07.1-.27.29.06,0s.13-.13,0-.06a3.1,3.1,0,0,1,.61-.35c-.41.16.1,0,.2,0,.4-.09-.53,0,.19,0h3.77c1.54,0,3.1.06,4.65,0,.81,0-.48,0,.31,0,.06,0,.47.15.07,0,.15.06.28.15.42.22.64.34-.19-.15.14.11.09.07.4.46.15.11a4.23,4.23,0,0,1,.24.4c.26.44.06.16,0,.06,0,.12.11.71.09.29,0,.48,0,1,0,1.43v7c0,.61,0,1.22,0,1.83,0,0,0,.12,0,.14,0,.18,0,.17,0,0a2.25,2.25,0,0,1-.09.35c-.09.38.29-.42-.06.17,0,.1-.44.6-.14.27l-.33.33c.34-.3-.17.09-.26.14-.59.35.21,0-.18.06a2,2,0,0,1-.35.08c.26,0,.24,0-.07,0a2.55,2.55,0,0,0-2.5,2.5,2.51,2.51,0,0,0,2.5,2.5,6.62,6.62,0,0,0,6.46-6.93v-6.61c0-2.2.23-4.51-1-6.44a6.62,6.62,0,0,0-5.43-2.94c-.69,0-1.38,0-2.06,0-2.07,0-4.15,0-6.22,0a6.58,6.58,0,0,0-6.58,6.59c0,2,0,4,0,5.94s-.3,4.22.36,6a6.58,6.58,0,0,0,5.85,4.36c.77,0,1.56,0,2.33,0h6.34a2.5,2.5,0,1,0,0-5Z" style="fill:#3b3b3c" id="path404"></path><path d="M177.25,278V317.8c0,3.21,5,3.22,5,0V278c0-3.22-5-3.22-5,0Z" style="fill:#3b3b3c" id="path406"></path><path d="M170.52,295v5.75a2.54,2.54,0,0,0,.74,1.77,2.48,2.48,0,0,0,1.76.73,2.53,2.53,0,0,0,2.5-2.5V295a2.61,2.61,0,0,0-.73-1.77,2.5,2.5,0,0,0-4.27,1.77Z" style="fill:#3b3b3c" id="path408"></path><path d="M183.82,295v5.75a2.57,2.57,0,0,0,.73,1.77,2.51,2.51,0,0,0,1.77.73,2.54,2.54,0,0,0,2.5-2.5V295a2.61,2.61,0,0,0-.73-1.77,2.57,2.57,0,0,0-1.77-.73,2.54,2.54,0,0,0-2.5,2.5Z" style="fill:#3b3b3c" id="path410"></path></g></g></svg>