<svg xmlns="http://www.w3.org/2000/svg" viewBox="0 0 92.75 109.55"><defs><style>.cls-1{fill:#f47e2b;}.cls-2{fill:#3b3b3c;}.cls-3{fill:#808285;}</style></defs><g id="Layer_2" data-name="Layer 2"><g id="Layer_31" data-name="Layer 31"><path class="cls-1" d="M51.12,67.34q.14-15.56-.12-31.09c-.1-6.43-10.1-6.45-10,0q.3,18.95,0,37.88c-.08,6.13,0,12.34-.39,18.46-.2,2.83-.82,4.67-4,4.73-2.93.06-4.93-1.6-4.54-4.53.85-6.36-9.16-6.29-10,0C19.84,109.58,48,112.7,50.38,96,51.72,86.73,51,76.74,51.12,67.34Z"></path><path class="cls-2" d="M53.62,67.34q.06-7.91,0-15.79c0-5.16.18-10.41-.16-15.56a7.33,7.33,0,0,0-5.25-6.74,7.91,7.91,0,0,0-7.79,1.89,7.12,7.12,0,0,0-1.91,4.34,65.4,65.4,0,0,0,0,7q.09,8,.08,16t-.12,15.95c-.07,5.18,0,10.37-.24,15.55,0,1.09-.07,2.2-.2,3.29a5.68,5.68,0,0,1-.37,1.31c-.3.45-.08.1,0,0-.45.43-.08,0-.05,0-.19,0-.29.15-.69.2a3.79,3.79,0,0,1-1.9-.26,1.32,1.32,0,0,1-.47-.55,8.87,8.87,0,0,1,0-2A6.44,6.44,0,0,0,33,87.74c-4.19-4.65-12.42-1.46-13.35,4.39a14.31,14.31,0,0,0,5.81,14.06,19.29,19.29,0,0,0,14.2,3.11c4.9-.74,9.6-3.66,11.75-8.22C53,97.64,53.25,93.75,53.49,90c.32-5.05.24-10.12.17-15.18,0-2.5-.06-5,0-7.49,0-3.22-5-3.23-5,0-.07,9.24.65,18.59-.62,27.79A14.43,14.43,0,0,1,47.64,97c-.07.27-.15.54-.23.8s-.35.91-.17.49a10.58,10.58,0,0,1-.71,1.38c-.13.22-.28.43-.42.64s-.31.42-.12.18-.21.25-.21.24a14.75,14.75,0,0,1-1,1.06c-.08.07-.6.51-.39.34s-.37.27-.51.36a11.61,11.61,0,0,1-1.26.75c-.22.12-.44.22-.67.32-.42.21-.07,0,0,0l-.49.19a17.36,17.36,0,0,1-3,.76c.56-.09-.16,0-.3,0s-.5.05-.75.06a16.64,16.64,0,0,1-1.73,0c-.25,0-.5,0-.75,0s-.81-.09-.31,0c-.53-.07-1.06-.18-1.58-.3a16,16,0,0,1-1.54-.45l-.7-.25c-.27-.1.07,0,.1,0l-.48-.22q-.66-.32-1.29-.69c-.21-.12-.42-.25-.62-.39s-.73-.52-.33-.21A12.44,12.44,0,0,1,27,101c-.17-.16-.33-.34-.49-.52s-.56-.71-.25-.29A11.86,11.86,0,0,1,25.5,99c-.12-.21-.22-.43-.33-.65,0-.06-.2-.47-.08-.18s-.11-.3-.1-.29a15.22,15.22,0,0,1-.4-1.47c0-.1,0-.22-.06-.32-.07-.39,0,.39,0,0s-.05-.62-.07-.92a16,16,0,0,1,.05-1.7c0-.52,0-.11.07-.48,0-.17.09-.32.13-.48.12-.43-.05,0,.07-.18a4.23,4.23,0,0,1,.41-.68c-.26.34.18-.15.27-.25l.25-.21c-.35.28-.06,0,0,0a8,8,0,0,1,.76-.41c-.54.24,1.29-.23.59-.16a7.86,7.86,0,0,1,.84,0l.31,0c.3,0-.42-.12,0,0,.1,0,.75.22.46.11s.28.15.39.22c.36.18-.19-.26.17.14.06.06.32.38.12.11s.06.1.07.15c.18.59,0-.18.1.26s0,.1,0,0a3.7,3.7,0,0,1,0,.47,16,16,0,0,0,0,2.4,6,6,0,0,0,2.76,4.32c3,1.86,7.77,1.44,9.68-1.69a10.26,10.26,0,0,0,1.12-4.72c.17-2.42.24-4.84.28-7.27.08-4.81.08-9.62.14-14.42q.15-14.72,0-29.41c0-1.17,0-2.33,0-3.49,0-.59,0-1.18,0-1.76,0,0,0-.44,0-.17s.09-.38.09-.38a2.07,2.07,0,0,1,.1-.33c.12-.36-.18.32,0,0,.09-.16.46-.64.14-.28.09-.1.54-.52.34-.37s.38-.22.52-.3c.32-.18-.38.13,0,0l.29-.1c.13,0,.95-.18.35-.11a4.21,4.21,0,0,1,.62,0l.42,0c.48,0-.24-.06,0,0l.7.19c.39.11-.2-.18.26.12.14.1.62.45.26.14.13.12.61.64.32.26a3.44,3.44,0,0,1,.44.74c-.17-.38,0,.13,0,.27.12.45.06.18,0,.06a3,3,0,0,1,0,.52c0,.66,0,1.32,0,2,0,2.46.06,4.93.08,7.4q.07,7.27,0,14.55c0,2.39,0,4.77,0,7.16C48.59,70.55,53.59,70.56,53.62,67.34Z"></path><path class="cls-3" d="M90.25,46.55a1,1,0,0,1-1.82.75A15.71,15.71,0,0,0,62,49.14a1,1,0,0,1-1.79,0,15.7,15.7,0,0,0-27.62,0,1,1,0,0,1-1.79,0A15.72,15.72,0,0,0,4.32,47.29a1,1,0,0,1-1.82-.75C5.36,26.09,23.91,10.3,46.37,10.3S87.39,26.1,90.25,46.55Z"></path><path class="cls-2" d="M87.75,46.55c.54-1.45,1.41-1.71,2.62-.8L90,45.24c-.23-.29-.46-.58-.7-.85a15.4,15.4,0,0,0-1.59-1.54,18.11,18.11,0,0,0-3.93-2.6,18.39,18.39,0,0,0-9.49-1.76,18.14,18.14,0,0,0-11.94,5.86,19.21,19.21,0,0,0-1.49,1.88,10.28,10.28,0,0,0-.58.88,4.25,4.25,0,0,0-.27.46c-.14.35-.2.42-.17.2l1.11-.64a.29.29,0,0,0,.31,0l1.11.64c-.2-.15-.79-1.23-1.12-1.69-.47-.64-1-1.27-1.5-1.86A18,18,0,0,0,56,41.13a18.29,18.29,0,0,0-19.18,0A18,18,0,0,0,33,44.23a20.81,20.81,0,0,0-1.5,1.87c-.34.46-.93,1.54-1.12,1.69l1.11-.64a.29.29,0,0,0,.31,0l1.11.64c.18.14-.29-.42-.34-.51-.18-.3-.38-.6-.58-.89a19.44,19.44,0,0,0-1.24-1.63,18.53,18.53,0,0,0-3.05-2.82,17.47,17.47,0,0,0-7.48-3.21A18.45,18.45,0,0,0,4,43.84c-.24.24-1.68,1.6-1.6,1.89l.76-.24c1-.59,1.58-.13,1.82,1.38a4.64,4.64,0,0,0,.16-1c.21-1.21.48-2.41.8-3.6a37,37,0,0,1,2.44-6.51,40.07,40.07,0,0,1,8.39-11.37c14.74-14,38.37-15.28,54.87-3.61A39.32,39.32,0,0,1,87.84,47.22,2.51,2.51,0,0,0,90.92,49a2.55,2.55,0,0,0,1.74-3.07C90.4,30.25,79.22,17.35,64.81,11.39a49.05,49.05,0,0,0-46.07,5A45.1,45.1,0,0,0,3.9,33.54a41.85,41.85,0,0,0-3.6,11,6.82,6.82,0,0,0-.16,3.17A3.57,3.57,0,0,0,2.8,50.1c2.65.58,3.84-2,5.52-3.49a13.34,13.34,0,0,1,19.87,3A4.4,4.4,0,0,0,30.63,52a3.54,3.54,0,0,0,3.73-1.11c.6-.7,1-1.58,1.5-2.31a13.23,13.23,0,0,1,21.64.88c.66,1,1.17,2.05,2.42,2.47a3.55,3.55,0,0,0,3.65-.81,22.73,22.73,0,0,0,1.69-2.53,13.5,13.5,0,0,1,2-2.09,13.3,13.3,0,0,1,10.43-3,13.47,13.47,0,0,1,5.67,2.23,12.44,12.44,0,0,1,2,1.75c.72.75,1.27,1.76,2.21,2.26a3.55,3.55,0,0,0,5.18-3.23C92.71,43.34,87.71,43.33,87.75,46.55Z"></path><path class="cls-2" d="M34.17,51.17a62.33,62.33,0,0,1,.47-9.85c0-.36.09-.72.13-1.07s-.08.6,0-.2c0-.16.05-.33.07-.49.13-.87.27-1.72.43-2.58.3-1.65.66-3.28,1.09-4.9A47.39,47.39,0,0,1,40.2,22a32,32,0,0,1,7.94-10,2.53,2.53,0,0,0,0-3.54,2.55,2.55,0,0,0-3.53,0c-11.18,9.25-15,25.06-15.43,39,0,1.22-.06,2.45,0,3.67.16,3.2,5.16,3.22,5,0Z"></path><path class="cls-2" d="M63.57,51.17A61.77,61.77,0,0,0,63,40.73a60.93,60.93,0,0,0-6.31-21.49A35.69,35.69,0,0,0,48.14,8.53a2.56,2.56,0,0,0-3.53,0,2.52,2.52,0,0,0,0,3.54C50.42,16.87,53.9,23.58,56,30.68c.5,1.72.92,3.47,1.28,5.24.15.74.28,1.49.41,2.24l.18,1.14c0,.17.18,1.25.12.83a72.78,72.78,0,0,1,.61,7.53c0,1.17.06,2.34,0,3.51-.15,3.22,4.85,3.21,5,0Z"></path><rect class="cls-1" x="39.01" y="2.52" width="13.1" height="8.13" rx="4.07"></rect><path class="cls-2" d="M48.05,8.15H42.9c-.58,0,.51.17,0,0-.06,0-.47-.08-.5-.15l.28.12L42.34,8l-.29-.18c.26.2.31.25.17.13a2.87,2.87,0,0,0-.31-.29l-.11-.12c-.17-.21-.15-.17.08.1-.06,0-.23-.38-.26-.44-.29-.46.11.51,0,0a2,2,0,0,0-.11-.42c-.13-.27,0,.58,0,0a2.16,2.16,0,0,1,0-.36c0-.29,0-.24,0,.13,0-.11.05-.23.08-.34l0-.17c.09-.25.07-.21-.07.12a1.48,1.48,0,0,1,.16-.3l.09-.15c.15-.22.12-.19-.1.1,0-.11.27-.3.34-.38l.13-.11c.21-.17.17-.15-.11.08,0-.06.39-.23.44-.26.43-.26-.13.06-.13,0A2.3,2.3,0,0,1,43,5l-.31,0a2.17,2.17,0,0,1,.36,0h5.15c.58,0-.51-.16,0,0a2.17,2.17,0,0,0,.42.11c.18.07.11,0-.2-.09a2.85,2.85,0,0,1,.3.16l.15.08c.22.16.19.12-.09-.09.16,0,.37.36.49.47.38.38-.23-.46,0,0,0,.11.27.35.24.45l-.12-.28c0,.11.08.22.11.33s0,.23.07.34c0-.37,0-.42,0-.13,0-.14,0,.49,0,.36,0,.54.15-.48,0,0,0,.07-.08.48-.15.5.15-.33.16-.37,0-.13a2.91,2.91,0,0,1-.17.3c-.24.49.37-.35,0,0L49,7.87c-.39.38.45-.23,0,0l-.29.17c-.25.11-.21.1.12-.05,0,.07-.43.13-.5.15-.27,0-.22,0,.15,0h-.36a2.5,2.5,0,0,0,0,5A6.74,6.74,0,0,0,53.66,10,6.57,6.57,0,0,0,48.58.05,25.61,25.61,0,0,0,46,0H43.13a6.58,6.58,0,0,0-6.31,8.53A6.65,6.65,0,0,0,41.45,13a15.43,15.43,0,0,0,3.66.2h2.94a2.5,2.5,0,0,0,0-5Z"></path></g></g></svg>