<svg xmlns:inkscape="http://www.inkscape.org/namespaces/inkscape" xmlns:sodipodi="http://sodipodi.sourceforge.net/DTD/sodipodi-0.dtd" xmlns="http://www.w3.org/2000/svg" xmlns:svg="http://www.w3.org/2000/svg" viewBox="0 0 155.88 78.17" id="svg1486" sodipodi:docname="Motorcycle.svg" inkscape:version="1.1.1 (c3084ef, 2021-09-22)"><defs id="defs1490"></defs><g id="Layer_2" data-name="Layer 2"><g id="Layer_2-2" data-name="Layer 2"><path d="M59.82,44.3s2.6,17.42,23.93,16.87h5a7,7,0,0,0,6.39-4L109.9,26a7.59,7.59,0,0,0-1.51-8.72c-5.42-5.22-17-11.54-34.75,3,0,0-10.69,5.44-20.07.11s-14.37-9-24-8.22.22,11.22.22,11.22,10.89-1.89,20.82,7.22A37.21,37.21,0,0,1,59.82,44.3Z" style="fill:#808285" id="path1432"></path><path d="M57.4,45a22.21,22.21,0,0,0,6.23,11.59,23.75,23.75,0,0,0,11,6.18c4.32,1.09,8.76.94,13.18.94,4.14,0,7.74-1.77,9.59-5.62,1-2,2-4.11,2.93-6.16L110,31.7c.69-1.47,1.41-2.93,2.09-4.41a10.46,10.46,0,0,0,0-9.18,14.08,14.08,0,0,0-4.38-4.67A22.1,22.1,0,0,0,98,9.19a26.14,26.14,0,0,0-14.61,2.06A43.07,43.07,0,0,0,75,16.07c-.81.59-1.61,1.19-2.39,1.82-1,.84,0,.06-.41.3a5.62,5.62,0,0,1-.56.25c.76-.34-.32.12-.51.2-4.83,1.79-10.56,2.44-15.34.11C50,15.93,44.9,11.88,38.53,10.33a27.85,27.85,0,0,0-9.32-.63c-2.28.23-4.72,1-5.83,3.18-1.84,3.6.91,7.68,3.08,10.46a8.55,8.55,0,0,0,2,2.21,2.75,2.75,0,0,0,2,.24c.32-.05-.9.09-.28,0s1-.08,1.51-.1a23.6,23.6,0,0,1,12.74,3.41A31.69,31.69,0,0,1,56.24,42.35c.21.42.42.84.61,1.27l.24.53c.26.55-.2-.5,0,0,.11.27.22.54.31.81a2.57,2.57,0,0,0,3.08,1.75,2.53,2.53,0,0,0,1.75-3.08c-4.2-12.09-15.38-22-28.34-22.85a20.83,20.83,0,0,0-4.8.2l2.43.64c-.41-.43-.78-.89-1.16-1.35-.09-.1-.17-.22-.26-.33.36.46.14.18.06.08l-.57-.79a20,20,0,0,1-1.09-1.77c-.14-.28-.28-.55-.41-.84s.18.55,0-.05c0-.13-.09-.25-.13-.38s-.19-1.14-.14-.42c0-.23.05-1.09-.06-.35,0,0,.07-.39.11-.39s0,.42,0,.08c0,0-.35.54-.08.11s0-.06-.1,0a3,3,0,0,1,1.54-.56,23.25,23.25,0,0,1,13.31,2.39c2.26,1.1,4.43,2.37,6.61,3.62a33,33,0,0,0,7.93,3.79A25.59,25.59,0,0,0,70.94,24a23.92,23.92,0,0,0,3.67-1.4,8.35,8.35,0,0,0,1.38-1c1.15-.92,2.35-1.78,3.58-2.59a30.19,30.19,0,0,1,12.17-5,17.14,17.14,0,0,1,8.61,1l.51.2c-.44-.18-.09,0,0,0,.32.14.64.29,1,.45.61.31,1.2.65,1.77,1s1,.65,1.41,1c-.53-.4.25.21.36.29l.66.57a5.41,5.41,0,0,1,1.56,6.62c-1.86,4.09-3.86,8.12-5.78,12.18L94.4,52.84c-.48,1-.94,2-1.44,3a4.75,4.75,0,0,1-3.71,2.78,33.51,33.51,0,0,1-3.75,0,36.54,36.54,0,0,1-10.22-1,17.06,17.06,0,0,1-4.46-1.87A20.17,20.17,0,0,1,69,54.65c-.39-.28-.12-.09,0,0l-.44-.36c-.31-.26-.61-.53-.91-.81-.45-.43-.89-.89-1.31-1.36-.22-.25-.43-.51-.64-.77.36.44-.19-.27-.3-.43A21.3,21.3,0,0,1,63.65,48l-.29-.63c-.31-.65.15.44-.09-.2-.15-.4-.31-.8-.44-1.2a17,17,0,0,1-.48-1.69c0-.21-.09-.42-.12-.63a2.53,2.53,0,0,0-3.08-1.74A2.56,2.56,0,0,0,57.4,45Z" style="fill:#3b3b3c" id="path1434"></path><circle cx="31.34" cy="53.47" r="22.24" style="fill:#4f504e" id="circle1436"></circle><path d="M51.07,53.47A19.74,19.74,0,0,1,16,65.86,19.75,19.75,0,0,1,35.11,34.09a20,20,0,0,1,16,19.38c0,3.22,5,3.22,5,0A25,25,0,0,0,39.66,30.18a24.74,24.74,0,1,0-3.38,47.53C47.73,75.48,56,65,56.07,53.47,56.1,50.25,51.1,50.25,51.07,53.47Z" style="fill:#3b3b3c" id="path1438"></path><circle cx="131.14" cy="53.47" r="22.24" style="fill:#4f504e" id="circle1440"></circle><path d="M150.88,53.47a19.73,19.73,0,1,1-16-19.38,19.9,19.9,0,0,1,16,19.38c0,3.22,5,3.22,5,0A24.73,24.73,0,1,0,110,66.24a25,25,0,0,0,26.13,11.47c11.45-2.23,19.71-12.69,19.8-24.24C155.91,50.25,150.91,50.25,150.88,53.47Z" style="fill:#3b3b3c" id="path1442"></path><circle cx="31.34" cy="53.47" r="12.13" style="fill:#0581a5;fill-opacity:1" id="circle1444"></circle><path d="M41,53.47A9.63,9.63,0,1,1,33,44a9.73,9.73,0,0,1,8,9.49c0,3.22,5,3.22,5,0a14.85,14.85,0,0,0-9.62-13.73,14.63,14.63,0,0,0-17.59,21.2A14.63,14.63,0,0,0,46,53.47C46,50.25,41,50.25,41,53.47Z" style="fill:#3b3b3c" id="path1446"></path><circle cx="131.14" cy="53.47" r="12.13" style="fill:#0581a5;fill-opacity:1" id="circle1448"></circle><path d="M140.77,53.47a9.62,9.62,0,1,1-8-9.49,9.72,9.72,0,0,1,8,9.49c0,3.22,5,3.22,5,0a14.84,14.84,0,0,0-9.61-13.73,14.63,14.63,0,0,0-17.59,21.2,14.63,14.63,0,0,0,27.2-7.47C145.82,50.25,140.82,50.25,140.77,53.47Z" style="fill:#3b3b3c" id="path1450"></path><line x1="32.1" y1="53.47" x2="78.9" y2="53.47" style="fill:#e6e7e8" id="line1452"></line><path d="M32.1,56H78.9c3.22,0,3.22-5,0-5H32.1c-3.21,0-3.22,5,0,5Z" style="fill:#3b3b3c" id="path1454"></path><path d="M108.91,8.61A6.13,6.13,0,0,1,115,2.5h8s1.79,9.15-2.4,12.22H115A6.13,6.13,0,0,1,108.91,8.61Z" style="fill:#808285" id="path1456"></path><path d="M111.41,8.61c0-.13.14-1,0-.45.07-.29.15-.57.23-.85s.1-.27,0,0l.19-.38c.06-.09.56-.82.21-.38a5.67,5.67,0,0,1,.58-.62c.1-.1.21-.19.32-.28-.22.17-.22.18,0,0l.55-.32c.26-.13.26-.13,0,0l.41-.14c.11,0,1-.2.42-.13A5.17,5.17,0,0,1,115,5h8l-2.41-1.83.06.37.06.41c.06.38-.09-.77,0-.29l0,.29a25.8,25.8,0,0,1,.16,3.29c0,.63-.08,1.26-.12,1.9,0,.19,0,.1,0-.28a2.87,2.87,0,0,0,0,.31l-.09.45a8.45,8.45,0,0,1-.22.9c0,.15-.09.29-.14.44s-.27.67-.08.26-.09.17-.13.25a3.59,3.59,0,0,1-.21.38c-.07.13-.16.24-.24.37-.26.43.39-.42,0-.05l-.29.31c-.12.13-.66.55,0,.08l1.26-.34h-6c-.53,0,.45.11-.2,0-.21,0-.43-.1-.64-.17s-.63-.31-.09,0l-.5-.26c-.06,0-.66-.44-.36-.22s-.25-.23-.3-.29-.25-.27-.38-.4c-.37-.39.19.35-.06-.08l-.33-.56c-.33-.53,0,.29-.09-.17-.05-.18-.12-.35-.17-.54a1.74,1.74,0,0,1-.11-.55c-.07.66,0-.14,0-.31a2.5,2.5,0,0,0-5,0,8.77,8.77,0,0,0,5.88,8.16c1.85.67,4,.45,6,.45.77,0,1.55,0,2.32,0,1.58-.06,2.79-1.46,3.58-2.72a14.38,14.38,0,0,0,1.77-7.56,26.45,26.45,0,0,0-.47-5.1A2.53,2.53,0,0,0,123,0h-5.39c-2.65,0-5.3-.1-7.57,1.58a8.84,8.84,0,0,0-3.67,7,2.52,2.52,0,0,0,2.5,2.5A2.55,2.55,0,0,0,111.41,8.61Z" style="fill:#3b3b3c" id="path1458"></path><line x1="100.83" y1="2.5" x2="130.81" y2="54.13" style="fill:#e6e7e8" id="line1460"></line><path d="M98.67,3.76l10.12,17.43L124.93,49l3.72,6.4c1.62,2.78,5.94.27,4.32-2.52L122.85,35.44,106.7,7.64,103,1.24c-1.62-2.78-5.94-.27-4.32,2.52Z" style="fill:#3b3b3c" id="path1462"></path><line x1="86.01" y1="2.5" x2="100.37" y2="2.5" style="fill:#e6e7e8" id="line1464"></line><path d="M86,5h14.36a2.53,2.53,0,0,0,2.5-2.5,2.55,2.55,0,0,0-2.5-2.5H86a2.53,2.53,0,0,0-2.5,2.5A2.54,2.54,0,0,0,86,5Z" style="fill:#3b3b3c" id="path1466"></path><path d="M4.9,46.13c2.11-9,9.46-16.35,18.25-19.05A27.5,27.5,0,0,1,50,33.41a29.39,29.39,0,0,1,7.83,12.72c.94,3.07,5.76,1.76,4.82-1.33A33.78,33.78,0,0,0,41,22.44,32.53,32.53,0,0,0,9.1,29.62a30.49,30.49,0,0,0-9,15.18c-.74,3.13,4.08,4.47,4.82,1.33Z" style="fill:#3b3b3c" id="path1468"></path><circle cx="73.44" cy="42.19" r="5.46" style="fill:#0581a5;fill-opacity:1" id="circle1470"></circle><path d="M77.65,42.19A4.21,4.21,0,1,1,74.15,38a4.26,4.26,0,0,1,3.5,4.16,1.25,1.25,0,0,0,2.5,0,6.82,6.82,0,0,0-4.42-6.31,6.73,6.73,0,0,0-7.42,2,6.71,6.71,0,1,0,11.84,4.33A1.25,1.25,0,0,0,77.65,42.19Z" style="fill:#3b3b3c" id="path1472"></path><path d="M85.38,43.27l7.43,3.24,1,.46a1.29,1.29,0,0,0,1.71-.45,1.26,1.26,0,0,0-.45-1.71l-7.43-3.24-1-.46a1.29,1.29,0,0,0-1.71.45,1.26,1.26,0,0,0,.45,1.71Z" style="fill:#3b3b3c" id="path1474"></path><path d="M87,39.61l7.43,3.24,1,.46a1.29,1.29,0,0,0,1.71-.45,1.26,1.26,0,0,0-.45-1.71L89.29,37.9l-1.05-.45a1.29,1.29,0,0,0-1.71.45A1.26,1.26,0,0,0,87,39.61Z" style="fill:#3b3b3c" id="path1476"></path><path d="M88.67,35.73,96.1,39l1.05.46A1.29,1.29,0,0,0,98.86,39a1.26,1.26,0,0,0-.45-1.71L91,34l-1-.46a1.29,1.29,0,0,0-1.71.45,1.26,1.26,0,0,0,.44,1.71Z" style="fill:#3b3b3c" id="path1478"></path><path d="M111.35,23.39,70.86,22.06c16.45-14.45,30.78-11,36.89-6.78A8.22,8.22,0,0,1,111.35,23.39Z" style="fill:#0581a5;fill-opacity:1" id="path1480"></path><path d="M111.35,20.89,75.94,19.72l-5.08-.16,1.77,4.26c5.79-5,13.08-9.2,20.7-9.66a21.59,21.59,0,0,1,7.73.78c.58.16,1.15.35,1.71.55l.8.31c-.47-.19.18.09.35.17a16,16,0,0,1,2.57,1.47,5.79,5.79,0,0,1,2.41,3.87s0,.43,0,.13,0,.24,0,.3c0,.26,0,.53,0,.79,0,.1,0,.49,0,.56.1-.1.12-.72,0-.36a2.5,2.5,0,1,0,4.82,1.32A10.53,10.53,0,0,0,112,16c-1.89-2.64-4.83-4.21-7.82-5.32-6.48-2.42-13.89-2-20.3.44a48.21,48.21,0,0,0-14.8,9.14c-1.72,1.49-.27,4.2,1.76,4.27l35.42,1.16,5.07.17C114.56,26,114.56,21,111.35,20.89Z" style="fill:#3b3b3c" id="path1482"></path></g></g></svg>