<svg xmlns="http://www.w3.org/2000/svg" viewBox="0 0 1920 1080" width="1920" height="1080" preserveAspectRatio="xMidYMid meet" style="width: 100%; height: 100%; transform: translate3d(0px, 0px, 0px);"><defs><clipPath id="__lottie_element_2"><rect width="1920" height="1080" x="0" y="0"></rect></clipPath><clipPath id="__lottie_element_13"><path fill="#ffffff" clip-rule="nonzero" d=" M-520.7529907226562,-260.0820007324219 C-520.7529907226562,-260.0820007324219 -520.7529907226562,269.87799072265625 -520.7529907226562,269.87799072265625 C-520.7529907226562,269.87799072265625 -274.4289855957031,269.87799072265625 -274.4289855957031,269.87799072265625 C-274.4289855957031,269.87799072265625 -243,213 -274.4289855957031,120 C-309,27 -327.64300537109375,-63.7859992980957 -274.4289855957031,-117 C-221.21499633789062,-170.21400451660156 -274.4289855957031,-260.0820007324219 -274.4289855957031,-260.0820007324219 C-274.4289855957031,-260.0820007324219 -520.7529907226562,-260.0820007324219 -520.7529907226562,-260.0820007324219" fill-opacity="1"></path></clipPath></defs><g clip-path="url(#__lottie_element_2)"><g transform="matrix(1,0,0,1,977,548)" opacity="1" style="display: block;"><g opacity="1" transform="matrix(0,0,0,0,-39,-21)"><path stroke-linecap="round" stroke-linejoin="round" fill-opacity="0" stroke-dasharray=" 394" stroke-dashoffset="0" stroke="rgb(225,240,255)" stroke-opacity="1" stroke-width="30" d=" M0,-357 C197.02830505371094,-357 357,-197.02830505371094 357,0 C357,197.02830505371094 197.02830505371094,357 0,357 C-197.02830505371094,357 -357,197.02830505371094 -357,0 C-357,-197.02830505371094 -197.02830505371094,-357 0,-357z"></path></g></g><g clip-path="url(#__lottie_element_13)" transform="matrix(1,0,0,1,960,540)" opacity="1" style="display: block;"><g opacity="1" transform="matrix(1,0,0,1,0,0)"><path fill="rgb(224,239,255)" fill-opacity="1" d=" M-10.041000366210938,-260.0820007324219 C-10.041000366210938,-260.0820007324219 -92.7969970703125,-218.3280029296875 -136.2760009765625,-207.24600219726562 C-179.7550048828125,-196.16400146484375 -248.08200073242188,-191.7550048828125 -248.08200073242188,-191.7550048828125 C-248.08200073242188,-191.7550048828125 -268.3190002441406,-2.375 -197.38800048828125,126.24500274658203 C-133,243 -4.428999900817871,269.87799072265625 -4.428999900817871,269.87799072265625 C-4.428999900817871,269.87799072265625 -10.041000366210938,-260.0820007324219 -10.041000366210938,-260.0820007324219z"></path></g></g><g transform="matrix(1,0,0,1,960,540)" opacity="1" style="display: block;"><g opacity="1" transform="matrix(1,0,0,1,0,0)"><path stroke-linecap="round" stroke-linejoin="round" fill-opacity="0" stroke="rgb(57,72,94)" stroke-opacity="1" stroke-width="30" d=" M-20,-264 C-170,-175 -250,-195 -250,-195 C-250,-195 -271.7659912109375,63.19499969482422 -157.38800048828125,186.4320068359375 C-126.41899871826172,219.8000030517578 -36,272 -24,272 C-9.192999839782715,272 64.73200225830078,231.87600708007812 100.6729965209961,197.7270050048828"></path></g></g><g transform="matrix(1,0,0,1,980,562)" opacity="1" style="display: block;"><g opacity="1" transform="matrix(1,0,0,1,-1,2)"><path stroke-linecap="round" stroke-linejoin="round" fill-opacity="0" stroke="rgb(225,240,255)" stroke-opacity="1" stroke-width="30" d="M0 0"></path></g></g><g transform="matrix(1,0,0,1,960,540)" opacity="1" style="display: block;"><g opacity="1" transform="matrix(1,0,0,1,-1,2)"><path stroke-linecap="round" stroke-linejoin="round" fill-opacity="0" stroke="rgb(5,129,165)" stroke-opacity="1" stroke-width="30" d="M0 0"></path></g></g></g></svg>