<svg xmlns:inkscape="http://www.inkscape.org/namespaces/inkscape" xmlns:sodipodi="http://sodipodi.sourceforge.net/DTD/sodipodi-0.dtd" xmlns="http://www.w3.org/2000/svg" xmlns:svg="http://www.w3.org/2000/svg" viewBox="0 0 350.68 324.84" id="svg5067" sodipodi:docname="Renter.svg" inkscape:version="1.1.1 (c3084ef, 2021-09-22)"><defs id="defs5071"></defs><g id="Layer_2" data-name="Layer 2"><g id="Layer_31" data-name="Layer 31"><rect x="57.06" y="19.33" width="214.35" height="39.38" rx="3.1" style="fill:#a7a9ac" id="rect4955"></rect><path d="M268.3,56.21H64.18c-1.21,0-2.43,0-3.64,0-.33,0-.58,0-.8-.18-.43-.43-.18-2-.18-2.57V23.91c0-.8-.25-1.93.6-2.08a3.25,3.25,0,0,1,.54,0H266.62c.57,0,1.91-.21,2.21.29s.07,1.94.07,2.59V54.07c0,.71.26,2.09-.6,2.14-3.2.17-3.22,5.17,0,5A5.81,5.81,0,0,0,273.9,55V32.93c0-3.49.13-7,0-10.48a5.72,5.72,0,0,0-5.67-5.62H72c-3.79,0-7.58,0-11.37,0-.27,0-.54,0-.82,0-3.4.27-5.26,3.08-5.26,6.27V52.47c0,1-.05,2.09,0,3.13a5.72,5.72,0,0,0,5.68,5.61c3.09.1,6.2,0,9.29,0H268.3C271.52,61.21,271.52,56.21,268.3,56.21Z" style="fill:#3b3b3c" id="path4957"></path><rect x="54.11" y="62.85" width="220.18" height="259.45" rx="3.96" style="fill:#e6e7e8" id="rect4959"></rect><path d="M270.33,319.8H58.68c-1.06,0-2-.25-2.07-1.55,0-.74,0-1.48,0-2.22V67.74c0-1.12,0-2.25,1.46-2.39.63,0,1.28,0,1.91,0H269.79c1,0,1.94.33,2,1.58.1,2.44,0,4.91,0,7.35V317.4c0,1.09,0,2.33-1.46,2.4-3.21.15-3.23,5.15,0,5,4-.18,6.46-3.29,6.46-7.11V73.86c0-2.33.07-4.67,0-7a6.64,6.64,0,0,0-6.85-6.52H59.74a17.15,17.15,0,0,0-2.87.13c-3.49.61-5.26,3.77-5.26,7V316.33c0,.66,0,1.32,0,2a6.64,6.64,0,0,0,6.91,6.49c3.38,0,6.76,0,10.14,0H270.33C273.54,324.8,273.55,319.8,270.33,319.8Z" style="fill:#3b3b3c" id="path4961"></path><rect x="43.61" y="39.77" width="239.86" height="37.87" rx="3.86" style="fill:#a7a9ac" id="rect4963"></rect><path d="M279.61,75.14H48.94c-1.31,0-2.7.2-2.83-1.36-.1-1.18,0-2.41,0-3.59v-25c0-1.33-.18-2.74,1.36-2.87.19,0,.39,0,.58,0H268.87c3.51,0,7,0,10.52,0A1.42,1.42,0,0,1,281,43.64c.1,1.26,0,2.58,0,3.85V72.22c0,1.3.21,2.85-1.36,2.92-3.2.14-3.22,5.14,0,5C283.51,80,286,77,286,73.2V48.68c0-1.63,0-3.27,0-4.89a6.5,6.5,0,0,0-6.38-6.52c-.85,0-1.7,0-2.55,0H48c-.34,0-.66,0-1,0-3.75.35-5.87,3.43-5.87,7V60c0,4.57-.13,9.16,0,13.72a6.49,6.49,0,0,0,6.39,6.46c.26,0,.52,0,.78,0H279.61C282.83,80.14,282.83,75.14,279.61,75.14Z" style="fill:#3b3b3c" id="path4965"></path><circle cx="34.85" cy="260.7" r="32.43" style="fill:#808285" id="circle4967"></circle><path d="M64.78,260.7a30.19,30.19,0,0,1-19.52,28.07,29.94,29.94,0,1,1-4.53-57.43,30.33,30.33,0,0,1,23.73,24.83,29.82,29.82,0,0,1,.32,4.53c0,3.21,5,3.22,5,0a35.35,35.35,0,0,0-23-32.84,34.93,34.93,0,1,0,22.58,38.36,37.93,37.93,0,0,0,.45-5.52C69.8,257.48,64.8,257.48,64.78,260.7Z" style="fill:#3b3b3c" id="path4969"></path><path d="M32.35,272.67v49.68c0,3.21,5,3.22,5,0V272.67c0-3.21-5-3.22-5,0Z" style="fill:#3b3b3c" id="path4971"></path><ellipse cx="303.92" cy="241.87" rx="44.26" ry="41.77" style="fill:#808285" id="ellipse4973"></ellipse><path d="M345.68,241.87c-.07,16.78-11.57,31.45-27.26,36.85-16.36,5.63-35.22,1.16-46.75-11.89a37.39,37.39,0,0,1-3.51-45.23c9.21-14.42,27.29-21.43,43.93-18.25,16.43,3.14,30.25,15.74,33.11,32.48a37,37,0,0,1,.48,6c0,3.22,5,3.23,5,0a42.82,42.82,0,0,0-8.62-25.59,47.25,47.25,0,0,0-22.31-16.07c-18-6.2-39.24-1.05-51.83,13.42a43.57,43.57,0,0,0-10.61,24.85,42.42,42.42,0,0,0,6.53,26.2c10.49,16.41,30.67,24.16,49.58,20.54,18.07-3.45,33.66-17.85,36.66-36.3a44.92,44.92,0,0,0,.6-7C350.7,238.66,345.7,238.65,345.68,241.87Z" style="fill:#3b3b3c" id="path4975"></path><path d="M301.42,257.3v64c0,3.22,5,3.22,5,0v-64c0-3.22-5-3.22-5,0Z" style="fill:#3b3b3c" id="path4977"></path><rect x="79.13" y="99.36" width="27.73" height="33.02" rx="3.96" style="fill:#0581a5;fill-opacity:1" id="rect4979"></rect><path d="M102.9,129.89H93.37c-3.38,0-6.86.24-10.23,0-1.17-.09-1.5-.9-1.51-1.95,0-1.39,0-2.78,0-4.16V104.89c0-.78-.17-1.88.32-2.48.63-.79,2-.55,2.92-.55h5.89c3.9,0,7.8,0,11.7,0,1.06,0,1.82.39,1.9,1.54s0,2.12,0,3.17v13.35c0,2.8.22,5.71,0,8.5a1.5,1.5,0,0,1-1.46,1.47c-3.21.13-3.23,5.13,0,5a6.61,6.61,0,0,0,6.46-6.6c0-1.25,0-2.5,0-3.74v-20c0-2-.24-3.94-1.68-5.54-1.59-1.76-3.71-2.13-5.94-2.13H95.59c-4.09,0-8.18,0-12.27,0a6.57,6.57,0,0,0-6.66,6c-.09,1,0,2.07,0,3.09v20.33a17,17,0,0,0,.18,3.7,6.62,6.62,0,0,0,6.68,5c1.67,0,3.35,0,5,0H102.9C106.11,134.89,106.12,129.89,102.9,129.89Z" style="fill:#3b3b3c" id="path4981"></path><rect x="125.74" y="99.36" width="27.73" height="33.02" rx="3.96" style="fill:#a7a9ac;fill-opacity:1" id="rect4983"></rect><path d="M149.5,129.89H140c-3.38,0-6.85.24-10.22,0-1.17-.09-1.51-.9-1.51-1.95,0-1.39,0-2.78,0-4.16V104.89c0-.78-.17-1.88.31-2.48.64-.79,2-.55,2.93-.55h5.89c3.9,0,7.8,0,11.7,0,1.06,0,1.81.39,1.89,1.54s0,2.12,0,3.17v13.35c0,2.8.23,5.71,0,8.5a1.48,1.48,0,0,1-1.46,1.47c-3.2.13-3.22,5.13,0,5a6.6,6.6,0,0,0,6.46-6.6c0-1.25,0-2.5,0-3.74v-20c0-2-.24-3.94-1.67-5.54-1.59-1.76-3.72-2.13-5.95-2.13h-6.15c-4.09,0-8.18,0-12.27,0a6.57,6.57,0,0,0-6.65,6c-.09,1,0,2.07,0,3.09v20.33a17,17,0,0,0,.18,3.7,6.61,6.61,0,0,0,6.67,5c1.68,0,3.36,0,5,0H149.5C152.72,134.89,152.73,129.89,149.5,129.89Z" style="fill:#3b3b3c" id="path4985"></path><rect x="171.77" y="99.36" width="27.73" height="33.02" rx="3.96" style="fill:#0581a5;fill-opacity:1" id="rect4987"></rect><path d="M195.53,129.89H186c-3.38,0-6.85.24-10.22,0-1.17-.09-1.51-.9-1.51-1.95,0-1.39,0-2.78,0-4.16V104.89c0-.78-.17-1.88.31-2.48.64-.79,2-.55,2.93-.55h5.89c3.9,0,7.8,0,11.7,0,1.06,0,1.81.39,1.89,1.54s0,2.12,0,3.17v13.35c0,2.8.23,5.71,0,8.5a1.48,1.48,0,0,1-1.46,1.47c-3.2.13-3.22,5.13,0,5a6.6,6.6,0,0,0,6.46-6.6c0-1.25,0-2.5,0-3.74v-20c0-2-.24-3.94-1.67-5.54-1.59-1.76-3.72-2.13-5.95-2.13h-6.15c-4.09,0-8.18,0-12.27,0a6.57,6.57,0,0,0-6.65,6c-.09,1,0,2.07,0,3.09v20.33a17,17,0,0,0,.18,3.7,6.61,6.61,0,0,0,6.67,5c1.68,0,3.36,0,5,0h14.37C198.75,134.89,198.76,129.89,195.53,129.89Z" style="fill:#3b3b3c" id="path4989"></path><rect x="218.08" y="99.36" width="27.73" height="33.02" rx="3.96" style="fill:#0581a5;fill-opacity:1" id="rect4991"></rect><path d="M241.85,129.89h-9.53c-3.38,0-6.85.24-10.22,0-1.18-.09-1.51-.9-1.52-1.95v-23c0-.78-.17-1.88.32-2.48.63-.79,2-.55,2.92-.55h5.9c3.9,0,7.8,0,11.69,0,1.07,0,1.82.39,1.9,1.54s0,2.12,0,3.17v13.35c0,2.8.23,5.71,0,8.5a1.49,1.49,0,0,1-1.46,1.47c-3.2.13-3.22,5.13,0,5a6.6,6.6,0,0,0,6.46-6.6c0-1.25,0-2.5,0-3.74v-20c0-2-.24-3.94-1.68-5.54-1.59-1.76-3.71-2.13-5.94-2.13h-6.15c-4.09,0-8.18,0-12.27,0a6.56,6.56,0,0,0-6.65,6c-.1,1,0,2.07,0,3.09v20.33a17,17,0,0,0,.19,3.7,6.61,6.61,0,0,0,6.67,5c1.68,0,3.36,0,5,0h14.37C245.07,134.89,245.07,129.89,241.85,129.89Z" style="fill:#3b3b3c" id="path4993"></path><rect x="79.13" y="263.59" width="27.73" height="33.02" rx="3.96" style="fill:#0581a5;fill-opacity:1" id="rect4995"></rect><path d="M102.9,294.12H93.37c-3.38,0-6.86.24-10.23,0-1.17-.09-1.5-.9-1.51-1.95,0-1.39,0-2.77,0-4.16V269.12c0-.78-.17-1.88.32-2.48.63-.79,2-.55,2.92-.55h5.89c3.9,0,7.8,0,11.7,0,1.06,0,1.82.39,1.9,1.55s0,2.11,0,3.16v13.35c0,2.8.22,5.71,0,8.5a1.5,1.5,0,0,1-1.46,1.47c-3.21.13-3.23,5.13,0,5a6.61,6.61,0,0,0,6.46-6.6c0-1.24,0-2.49,0-3.74v-20c0-2-.24-3.94-1.68-5.54-1.59-1.76-3.71-2.13-5.94-2.13H95.59c-4.09,0-8.18,0-12.27,0a6.58,6.58,0,0,0-6.66,6c-.09,1,0,2.06,0,3.08v20.33a17,17,0,0,0,.18,3.7,6.61,6.61,0,0,0,6.68,5H102.9C106.11,299.12,106.12,294.12,102.9,294.12Z" style="fill:#3b3b3c" id="path4997"></path><rect x="135.4" y="263.59" width="54" height="58.27" rx="3.96" style="fill:#4f504e" id="rect4999"></rect><path d="M185.44,319.36H142c-1.51,0-4,.49-4.13-1.52s0-3.95,0-5.9V272.78c0-1.72-.15-3.51,0-5.22.17-2.05,3.19-1.47,4.71-1.47h41.77a3.51,3.51,0,0,1,1.84.23c1.2.77.68,3.74.68,5v25.79c0,6.81,0,13.62,0,20.43,0,1-.36,1.82-1.46,1.86-3.21.14-3.23,5.14,0,5a6.59,6.59,0,0,0,6.46-6.52c0-.65,0-1.3,0-1.95V268.22a6.74,6.74,0,0,0-6.91-7.13c-7.57,0-15.14,0-22.72,0s-15,0-22.52,0a6.79,6.79,0,0,0-5.86,3,7.52,7.52,0,0,0-1,4.17V316c0,.62,0,1.25,0,1.87a6.58,6.58,0,0,0,6.46,6.5c6.46.23,13,0,19.43,0h26.65C188.65,324.36,188.66,319.36,185.44,319.36Z" style="fill:#3b3b3c" id="path5001"></path><rect x="218.08" y="263.59" width="27.73" height="33.02" rx="3.96" style="fill:#0581a5;fill-opacity:1" id="rect5003"></rect><path d="M241.85,294.12h-9.53c-3.38,0-6.85.24-10.22,0-1.18-.09-1.51-.9-1.52-1.95V269.12c0-.78-.17-1.88.32-2.48.63-.79,2-.55,2.92-.55h5.9c3.9,0,7.8,0,11.69,0,1.07,0,1.82.39,1.9,1.55s0,2.11,0,3.16v13.35c0,2.8.23,5.71,0,8.5a1.49,1.49,0,0,1-1.46,1.47c-3.2.13-3.22,5.13,0,5a6.6,6.6,0,0,0,6.46-6.6c0-1.24,0-2.49,0-3.74v-20c0-2-.24-3.94-1.68-5.54-1.59-1.76-3.71-2.13-5.94-2.13h-6.15c-4.09,0-8.18,0-12.27,0a6.57,6.57,0,0,0-6.65,6c-.1,1,0,2.06,0,3.08v20.33a17,17,0,0,0,.19,3.7,6.6,6.6,0,0,0,6.67,5h19.41C245.07,299.12,245.07,294.12,241.85,294.12Z" style="fill:#3b3b3c" id="path5005"></path><rect x="142.08" y="270.55" width="17.1" height="51.75" rx="3.96" style="fill:#0581a5;fill-opacity:1" id="rect5007"></rect><path d="M155.22,319.8h-6c-1.3,0-4.18.56-4.57-1.12a10.08,10.08,0,0,1,0-2.13V276c0-.76-.16-1.81.31-2.4s1.05-.54,1.72-.54h7.17a5.32,5.32,0,0,1,2.08.13c.94.47.82,1.45.82,2.36v34.94c0,2.59.19,5.26,0,7.84a1.5,1.5,0,0,1-1.46,1.48c-3.21.14-3.23,5.14,0,5a6.61,6.61,0,0,0,6.46-6.68c0-1.16,0-2.32,0-3.48V282.57c0-2.68.1-5.38,0-8.06a6.62,6.62,0,0,0-3.59-5.78,8.41,8.41,0,0,0-3.8-.68h-7.62c-3.83,0-6.95,2.47-7.09,6.47,0,.82,0,1.65,0,2.47v31.44c0,3.25-.08,6.51,0,9.76a6.59,6.59,0,0,0,6.49,6.61c2.3.08,4.61,0,6.91,0h2.24C158.43,324.8,158.44,319.8,155.22,319.8Z" style="fill:#3b3b3c" id="path5009"></path><rect x="165.18" y="270.55" width="17.1" height="51.75" rx="3.96" style="fill:#0581a5;fill-opacity:1" id="rect5011"></rect><path d="M178.32,319.8h-6c-1.3,0-4.18.56-4.57-1.12a10.08,10.08,0,0,1,0-2.13V276c0-.76-.16-1.81.31-2.4s1-.54,1.72-.54h7.17a5.39,5.39,0,0,1,2.09.13c.93.47.81,1.45.81,2.36v34.94c0,2.59.2,5.26,0,7.84a1.5,1.5,0,0,1-1.46,1.48c-3.21.14-3.23,5.14,0,5a6.61,6.61,0,0,0,6.46-6.68c0-1.16,0-2.32,0-3.48V282.57c0-2.68.1-5.38,0-8.06a6.59,6.59,0,0,0-3.58-5.78,8.43,8.43,0,0,0-3.81-.68h-7.61c-3.84,0-7,2.47-7.1,6.47,0,.82,0,1.65,0,2.47v31.44c0,3.25-.08,6.51,0,9.76a6.59,6.59,0,0,0,6.5,6.61c2.29.08,4.61,0,6.9,0h2.24C181.53,324.8,181.54,319.8,178.32,319.8Z" style="fill:#3b3b3c" id="path5013"></path><path d="M165.64,293.12v9.55a2.5,2.5,0,0,0,5,0v-9.55a2.5,2.5,0,0,0-5,0Z" style="fill:#3b3b3c" id="path5015"></path><path d="M153.19,293.12v9.55a2.5,2.5,0,0,0,5,0v-9.55a2.5,2.5,0,0,0-5,0Z" style="fill:#3b3b3c" id="path5017"></path><rect x="79.13" y="154.11" width="27.73" height="33.02" rx="3.96" style="fill:#a7a9ac;fill-opacity:1" id="rect5019"></rect><path d="M102.9,184.63H93.37c-3.38,0-6.86.24-10.23,0-1.17-.08-1.5-.89-1.51-1.95,0-1.39,0-2.77,0-4.16V159.64c0-.79-.17-1.88.32-2.49.63-.79,2-.54,2.92-.54h5.89c3.9,0,7.8,0,11.7,0,1.06,0,1.82.39,1.9,1.54s0,2.12,0,3.16v13.36c0,2.8.22,5.7,0,8.49a1.5,1.5,0,0,1-1.46,1.47c-3.21.14-3.23,5.14,0,5a6.6,6.6,0,0,0,6.46-6.6c0-1.24,0-2.49,0-3.74v-20c0-2-.24-3.94-1.68-5.53-1.59-1.77-3.71-2.13-5.94-2.13H95.59c-4.09,0-8.18-.05-12.27,0a6.57,6.57,0,0,0-6.66,5.95c-.09,1,0,2.06,0,3.09V181a16.92,16.92,0,0,0,.18,3.7,6.61,6.61,0,0,0,6.68,5H102.9C106.11,189.63,106.12,184.63,102.9,184.63Z" style="fill:#3b3b3c" id="path5021"></path><rect x="125.74" y="154.11" width="27.73" height="33.02" rx="3.96" style="fill:#0581a5;fill-opacity:1" id="rect5023"></rect><path d="M149.5,184.63H140c-3.38,0-6.85.24-10.22,0-1.17-.08-1.51-.89-1.51-1.95,0-1.39,0-2.77,0-4.16V159.64c0-.79-.17-1.88.31-2.49.64-.79,2-.54,2.93-.54h5.89c3.9,0,7.8,0,11.7,0,1.06,0,1.81.39,1.89,1.54s0,2.12,0,3.16v13.36c0,2.8.23,5.7,0,8.49a1.48,1.48,0,0,1-1.46,1.47c-3.2.14-3.22,5.14,0,5A6.59,6.59,0,0,0,156,183c0-1.24,0-2.49,0-3.74v-20c0-2-.24-3.94-1.67-5.53-1.59-1.77-3.72-2.13-5.95-2.13h-6.15c-4.09,0-8.18-.05-12.27,0a6.57,6.57,0,0,0-6.65,5.95c-.09,1,0,2.06,0,3.09V181a16.92,16.92,0,0,0,.18,3.7,6.6,6.6,0,0,0,6.67,5H149.5C152.72,189.63,152.73,184.63,149.5,184.63Z" style="fill:#3b3b3c" id="path5025"></path><rect x="171.77" y="154.11" width="27.73" height="33.02" rx="3.96" style="fill:#0581a5;fill-opacity:1" id="rect5027"></rect><path d="M195.53,184.63H186c-3.38,0-6.85.24-10.22,0-1.17-.08-1.51-.89-1.51-1.95,0-1.39,0-2.77,0-4.16V159.64c0-.79-.17-1.88.31-2.49.64-.79,2-.54,2.93-.54h5.89c3.9,0,7.8,0,11.7,0,1.06,0,1.81.39,1.89,1.54s0,2.12,0,3.16v13.36c0,2.8.23,5.7,0,8.49a1.48,1.48,0,0,1-1.46,1.47c-3.2.14-3.22,5.14,0,5A6.59,6.59,0,0,0,202,183c0-1.24,0-2.49,0-3.74v-20c0-2-.24-3.94-1.67-5.53-1.59-1.77-3.72-2.13-5.95-2.13h-6.15c-4.09,0-8.18-.05-12.27,0a6.57,6.57,0,0,0-6.65,5.95c-.09,1,0,2.06,0,3.09V181a16.92,16.92,0,0,0,.18,3.7,6.6,6.6,0,0,0,6.67,5h19.41C198.75,189.63,198.76,184.63,195.53,184.63Z" style="fill:#3b3b3c" id="path5029"></path><rect x="218.08" y="154.11" width="27.73" height="33.02" rx="3.96" style="fill:#0581a5;fill-opacity:1" id="rect5031"></rect><path d="M241.85,184.63h-9.53c-3.38,0-6.85.24-10.22,0-1.18-.08-1.51-.89-1.52-1.95v-23c0-.79-.17-1.88.32-2.49.63-.79,2-.54,2.92-.54h5.9c3.9,0,7.8,0,11.69,0,1.07,0,1.82.39,1.9,1.54s0,2.12,0,3.16v13.36c0,2.8.23,5.7,0,8.49a1.49,1.49,0,0,1-1.46,1.47c-3.2.14-3.22,5.14,0,5a6.6,6.6,0,0,0,6.46-6.6c0-1.24,0-2.49,0-3.74v-20c0-2-.24-3.94-1.68-5.53-1.59-1.77-3.71-2.13-5.94-2.13h-6.15c-4.09,0-8.18-.05-12.27,0a6.56,6.56,0,0,0-6.65,5.95c-.1,1,0,2.06,0,3.09V181a16.92,16.92,0,0,0,.19,3.7,6.6,6.6,0,0,0,6.67,5h19.41C245.07,189.63,245.07,184.63,241.85,184.63Z" style="fill:#3b3b3c" id="path5033"></path><text id="text5035"></text><rect x="79.13" y="208.85" width="27.73" height="33.02" rx="3.96" style="fill:#0581a5;fill-opacity:1" id="rect5037"></rect><path d="M102.9,239.37H93.37c-3.38,0-6.86.24-10.23,0-1.17-.08-1.5-.89-1.51-2,0-1.38,0-2.77,0-4.15V214.38c0-.78-.17-1.88.32-2.49.63-.79,2-.54,2.92-.54h5.89c3.9,0,7.8,0,11.7,0,1.06,0,1.82.39,1.9,1.54s0,2.12,0,3.17v13.35c0,2.8.22,5.7,0,8.49a1.49,1.49,0,0,1-1.46,1.47c-3.21.14-3.23,5.14,0,5a6.6,6.6,0,0,0,6.46-6.59c0-1.25,0-2.5,0-3.74V214c0-2-.24-3.94-1.68-5.54-1.59-1.76-3.71-2.13-5.94-2.13H95.59c-4.09,0-8.18,0-12.27,0a6.57,6.57,0,0,0-6.66,6c-.09,1,0,2.07,0,3.09v20.33a16.86,16.86,0,0,0,.18,3.69,6.61,6.61,0,0,0,6.68,5H102.9C106.11,244.37,106.12,239.37,102.9,239.37Z" style="fill:#3b3b3c" id="path5039"></path><rect x="125.74" y="208.85" width="27.73" height="33.02" rx="3.96" style="fill:#0581a5;fill-opacity:1" id="rect5041"></rect><path d="M149.5,239.37H140c-3.38,0-6.85.24-10.22,0-1.17-.08-1.51-.89-1.51-2,0-1.38,0-2.77,0-4.15V214.38c0-.78-.17-1.88.31-2.49.64-.79,2-.54,2.93-.54h5.89c3.9,0,7.8,0,11.7,0,1.06,0,1.81.39,1.89,1.54s0,2.12,0,3.17v13.35c0,2.8.23,5.7,0,8.49a1.48,1.48,0,0,1-1.46,1.47c-3.2.14-3.22,5.14,0,5a6.58,6.58,0,0,0,6.46-6.59c0-1.25,0-2.5,0-3.74V214c0-2-.24-3.94-1.67-5.54-1.59-1.76-3.72-2.13-5.95-2.13h-6.15c-4.09,0-8.18,0-12.27,0a6.57,6.57,0,0,0-6.65,6c-.09,1,0,2.07,0,3.09v20.33a16.86,16.86,0,0,0,.18,3.69,6.6,6.6,0,0,0,6.67,5H149.5C152.72,244.37,152.73,239.37,149.5,239.37Z" style="fill:#3b3b3c" id="path5043"></path><rect x="171.77" y="208.85" width="27.73" height="33.02" rx="3.96" style="fill:#0581a5;fill-opacity:1" id="rect5045"></rect><path d="M195.53,239.37H186c-3.38,0-6.85.24-10.22,0-1.17-.08-1.51-.89-1.51-2,0-1.38,0-2.77,0-4.15V214.38c0-.78-.17-1.88.31-2.49.64-.79,2-.54,2.93-.54h5.89c3.9,0,7.8,0,11.7,0,1.06,0,1.81.39,1.89,1.54s0,2.12,0,3.17v13.35c0,2.8.23,5.7,0,8.49a1.48,1.48,0,0,1-1.46,1.47c-3.2.14-3.22,5.14,0,5a6.58,6.58,0,0,0,6.46-6.59c0-1.25,0-2.5,0-3.74V214c0-2-.24-3.94-1.67-5.54-1.59-1.76-3.72-2.13-5.95-2.13h-6.15c-4.09,0-8.18,0-12.27,0a6.57,6.57,0,0,0-6.65,6c-.09,1,0,2.07,0,3.09v20.33a16.86,16.86,0,0,0,.18,3.69,6.6,6.6,0,0,0,6.67,5h19.41C198.75,244.37,198.76,239.37,195.53,239.37Z" style="fill:#3b3b3c" id="path5047"></path><rect x="218.08" y="208.85" width="27.73" height="33.02" rx="3.96" style="fill:#a7a9ac;fill-opacity:1" id="rect5049"></rect><path d="M241.85,239.37h-9.53c-3.38,0-6.85.24-10.22,0-1.18-.08-1.51-.89-1.52-2v-23c0-.78-.17-1.88.32-2.49.63-.79,2-.54,2.92-.54h5.9c3.9,0,7.8,0,11.69,0,1.07,0,1.82.39,1.9,1.54s0,2.12,0,3.17v13.35c0,2.8.23,5.7,0,8.49a1.48,1.48,0,0,1-1.46,1.47c-3.2.14-3.22,5.14,0,5a6.59,6.59,0,0,0,6.46-6.59c0-1.25,0-2.5,0-3.74V214c0-2-.24-3.94-1.68-5.54-1.59-1.76-3.71-2.13-5.94-2.13h-6.15c-4.09,0-8.18,0-12.27,0a6.56,6.56,0,0,0-6.65,6c-.1,1,0,2.07,0,3.09v20.33a16.86,16.86,0,0,0,.19,3.69,6.6,6.6,0,0,0,6.67,5h19.41C245.07,244.37,245.07,239.37,241.85,239.37Z" style="fill:#3b3b3c" id="path5051"></path><circle cx="163.54" cy="34.91" r="32.43" style="fill:#808285" id="circle5053"></circle><path d="M193.47,34.91a29.93,29.93,0,1,1-55.54-15.49,29.94,29.94,0,0,1,55.21,11,29.74,29.74,0,0,1,.33,4.53c0,3.21,5,3.22,5,0a34.92,34.92,0,1,0-64.86,18A34.92,34.92,0,0,0,198,40.42a39.12,39.12,0,0,0,.45-5.51C198.48,31.69,193.48,31.68,193.47,34.91Z" style="fill:#3b3b3c" id="path5055"></path><path d="M173.57,21.47a10,10,0,0,1-10,10,10,10,0,0,1-9-5.52,9.9,9.9,0,0,1-1.07-4.51,10,10,0,1,1,20.06,0Z" style="fill:#f47e2b" id="path5057"></path><path d="M171.07,21.47a8,8,0,0,1-1.71,4.79,7.39,7.39,0,0,1-3.85,2.48,7.61,7.61,0,0,1-8.21-3,7.85,7.85,0,0,1-1.24-5.19c.05-.5-.12.55.05-.29a5,5,0,0,1,.12-.53,7.23,7.23,0,0,1,.41-1.27c-.13.3.05-.1.07-.13.1-.2.2-.39.31-.58s.22-.37.35-.56c0,0,.45-.6.23-.33a7.57,7.57,0,0,1,8-2.6,6.71,6.71,0,0,1,2.27,1.07,3.78,3.78,0,0,1,.73.59c.16.14.31.3.46.46s.57.64.37.39a7.39,7.39,0,0,1,1.65,4.75c.05,3.22,5.05,3.22,5,0A12.53,12.53,0,1,0,152.28,27a12.53,12.53,0,0,0,23.79-5.48C176.13,18.25,171.13,18.25,171.07,21.47Z" style="fill:#3b3b3c" id="path5059"></path><path d="M172.58,37.19V57.46c-8.88,2.81-18.07,0-18.07,0V37.41a14.08,14.08,0,0,0,9,2.69A13.15,13.15,0,0,0,172.58,37.19Z" style="fill:#4f504e" id="path5061"></path><path d="M170.08,37.19V57.46l1.83-2.41a31.24,31.24,0,0,1-15.16.39c-.53-.11-1.06-.23-1.58-.39L157,57.46V37.41l-3.76,2.16a17.91,17.91,0,0,0,10.47,3,17.25,17.25,0,0,0,5.39-.74,18.05,18.05,0,0,0,4.73-2.51,2.57,2.57,0,0,0,.9-3.42,2.53,2.53,0,0,0-3.42-.9,23.58,23.58,0,0,1-2,1.3c-.3.17-.62.34-.94.49l-.11,0-.49.17a11.44,11.44,0,0,1-4.06.56,13.86,13.86,0,0,1-4.31-.49,7,7,0,0,1-1.65-.65,19.18,19.18,0,0,1-2-1.21A2.52,2.52,0,0,0,152,37.41V57.46a2.56,2.56,0,0,0,1.83,2.41A34.45,34.45,0,0,0,160.21,61a33,33,0,0,0,13-1.14,2.56,2.56,0,0,0,1.84-2.41V37.19C175.08,34,170.08,34,170.08,37.19Z" style="fill:#3b3b3c" id="path5063"></path></g></g></svg>